<svg width="173" height="188" viewBox="0 0 173 188" fill="none" xmlns="http://www.w3.org/2000/svg">
<rect x="0.5" y="0.5" width="171.5" height="186.643" rx="4.5" fill="white"/>
<rect x="0.5" y="0.5" width="171.5" height="186.643" rx="4.5" stroke="#F8EFEF"/>
<g clip-path="url(#clip0_1707_12123)">
<g opacity="0.65" filter="url(#filter0_f_1707_12123)">
<ellipse cx="142.073" cy="51.7406" rx="26.9269" ry="24.1746" fill="url(#paint0_radial_1707_12123)"/>
</g>
<g opacity="0.25" filter="url(#filter1_f_1707_12123)">
<ellipse cx="94.2414" cy="29.1746" rx="26.9269" ry="24.1746" fill="#68A7F4"/>
</g>
<g opacity="0.05" filter="url(#filter2_f_1707_12123)">
<ellipse cx="31.9269" cy="59.3685" rx="26.9269" ry="24.1746" fill="#68A7F4"/>
</g>
<g filter="url(#filter3_d_1707_12123)">
<rect x="89.2246" y="21.4794" width="31.8698" height="31.8698" rx="6.43433" fill="url(#paint1_radial_1707_12123)"/>
<path d="M106.543 35.1779C106.778 34.9423 107.16 34.9423 107.396 35.1779C107.631 35.4135 107.631 35.7954 107.396 36.031L103.776 39.6507C103.541 39.8863 103.159 39.8863 102.923 39.6507C102.687 39.4151 102.687 39.0331 102.923 38.7975L106.543 35.1779ZM109.785 29.3705C111.673 29.3705 113.203 30.9011 113.203 32.7891V33.5935C113.203 40.1461 107.891 45.458 101.339 45.458H100.534C98.6463 45.458 97.1157 43.9275 97.1157 42.0394V41.2351C97.1157 34.6825 102.428 29.3705 108.98 29.3705H109.785ZM111.997 32.7891C111.997 31.5675 111.006 30.5771 109.785 30.5771H108.98C108.656 30.5771 108.335 30.5916 108.018 30.62L111.954 34.5558C111.982 34.2388 111.997 33.9179 111.997 33.5935V32.7891ZM111.718 36.0261L106.548 30.856C102.589 31.7803 99.4779 34.9113 98.583 38.8815L103.692 43.9907C107.663 43.0958 110.793 39.9851 111.718 36.0261ZM98.3575 40.3623C98.3342 40.6502 98.3223 40.9412 98.3223 41.2351V42.0394C98.3223 43.2611 99.3126 44.2515 100.534 44.2515H101.339C101.633 44.2515 101.924 44.2396 102.211 44.2162L98.3575 40.3623Z" fill="black"/>
</g>
<g filter="url(#filter4_d_1707_12123)">
<rect x="52.9053" y="21.4794" width="31.8698" height="31.8698" rx="6.43433" fill="url(#paint2_linear_1707_12123)"/>
<g clip-path="url(#clip1_1707_12123)">
<g filter="url(#filter5_d_1707_12123)">
<path d="M68.8403 29.3713C64.3983 29.3713 60.7974 32.9723 60.7974 37.4142C60.7974 41.8562 64.3983 45.4572 68.8403 45.4572C73.2822 45.4572 76.8832 41.8562 76.8832 37.4142C76.8832 32.9723 73.2822 29.3713 68.8403 29.3713ZM67.291 30.7541C67.7888 30.6387 68.3074 30.5778 68.8403 30.5778C69.373 30.5778 69.8915 30.6387 70.3892 30.754L68.8416 31.6818L67.291 30.7541ZM65.8196 31.2796L68.2387 32.7269V34.4914L65.9936 36.1225L64.3498 35.554L63.878 32.7117C64.4325 32.1268 65.0892 31.6399 65.8196 31.2796ZM62.8796 34.064L63.1676 35.7995L62.0195 36.9477C62.0897 35.9051 62.3938 34.9265 62.8796 34.064ZM62.1014 38.5719L63.9731 36.7002L65.6127 37.2673L66.4836 39.9475L65.7043 41.2146L63.0551 41.0586C62.5853 40.3144 62.2551 39.4732 62.1014 38.5719ZM64.087 42.3279L65.619 42.4181L66.162 43.7062C65.3863 43.3755 64.6841 42.9056 64.087 42.3279ZM67.6579 44.1488L66.7054 41.8896L67.4806 40.6293H70.192L70.9255 41.9008L70.0893 44.1369C69.6843 44.2116 69.2669 44.2507 68.8403 44.2507C68.437 44.2507 68.0419 44.2158 67.6579 44.1488ZM71.5422 43.696L71.9985 42.4757L73.3414 42.5599C72.8084 43.0266 72.2021 43.4118 71.5422 43.696ZM74.3834 41.4165L71.9509 41.2639L71.197 39.9572L72.071 37.2674L73.6898 36.7075L75.5493 38.7346C75.3563 39.721 74.9512 40.6314 74.3834 41.4165ZM75.6687 37.0801L74.5101 35.817L74.802 34.0659C75.3077 34.9643 75.6162 35.9886 75.6687 37.0801ZM73.8043 32.7136L73.3307 35.5551L71.6902 36.1225L69.4451 34.4914V32.7266L71.8598 31.279C72.5914 31.6398 73.2492 32.1276 73.8043 32.7136ZM66.8028 37.0258L68.8419 35.5443L70.881 37.0258L70.1021 39.4229H67.5817L66.8028 37.0258Z" fill="white"/>
</g>
</g>
</g>
<g filter="url(#filter6_d_1707_12123)">
<rect x="16.5859" y="21.4794" width="31.8698" height="31.8698" rx="6.43433" fill="url(#paint3_radial_1707_12123)"/>
<path d="M33.2778 45.4225C35.0773 45.2534 36.8307 44.4799 38.2086 43.1021C41.3498 39.9608 41.3498 34.8678 38.2086 31.7265C35.0673 28.5852 29.9743 28.5852 26.833 31.7265C23.6917 34.8678 23.6917 39.9608 26.833 43.1021C28.5297 44.7988 30.7959 45.579 33.0163 45.4428C33.1017 45.4551 33.1907 45.4492 33.2778 45.4225ZM25.7457 36.4925C25.914 35.2483 26.4248 34.0417 27.2781 33.0249L31.6675 37.4143L30.792 38.2898C29.9462 37.6051 29.0031 37.2377 28.1045 36.9963C27.5815 36.8559 27.0622 36.7554 26.5872 36.6635L26.5738 36.6609C26.2786 36.6038 26.0032 36.5504 25.7457 36.4925ZM25.6902 37.7151C25.9041 37.7603 26.1203 37.8021 26.3343 37.8435L26.3446 37.8455C26.8296 37.9394 27.3118 38.0328 27.7916 38.1616C28.5586 38.3676 29.2892 38.6568 29.9329 39.149L27.2781 41.8037C26.2834 40.6184 25.7541 39.1751 25.6902 37.7151ZM30.7887 39.9995C31.3315 40.693 31.6251 41.4525 31.8323 42.2304C31.9327 42.6074 32.0101 42.9766 32.0883 43.3498C32.1104 43.4552 32.1326 43.561 32.1553 43.6674C32.1966 43.86 32.2398 44.0545 32.2882 44.2475C30.805 44.1974 29.3351 43.6671 28.1313 42.6569L30.7887 39.9995ZM33.518 44.1788C33.4526 43.9455 33.3944 43.6917 33.3352 43.4148C33.3147 43.3193 33.2941 43.2208 33.273 43.1199C33.1939 42.7425 33.1078 42.3314 32.9982 41.9198C32.7564 41.0124 32.3859 40.0399 31.6469 39.1413L32.5207 38.2675L36.9102 42.657C35.9139 43.493 34.7354 44.0003 33.518 44.1788ZM33.3739 37.4143L34.348 36.4402C35.244 37.1983 36.183 37.614 37.0551 37.9091C37.415 38.0308 37.7762 38.1359 38.1098 38.2329C38.2373 38.27 38.3609 38.3059 38.479 38.3412C38.7619 38.4257 39.0195 38.5083 39.2551 38.5992C39.0537 39.7498 38.5564 40.8588 37.7634 41.8038L33.3739 37.4143ZM38.8245 37.1852C38.689 37.1446 38.5544 37.1055 38.421 37.0667C38.0966 36.9724 37.7754 36.879 37.4419 36.7662C36.6824 36.5092 35.923 36.1705 35.2048 35.5834L37.7634 33.0248C38.8127 34.2751 39.3441 35.8125 39.3577 37.3537C39.1805 37.2935 39.0019 37.2382 38.8245 37.1852ZM36.9102 32.1716L34.3516 34.7303C33.7643 34.0119 33.4255 33.2524 33.1684 32.4928C33.0556 32.1592 32.9622 31.838 32.8679 31.5135L32.8676 31.5125C32.8288 31.3793 32.7899 31.2455 32.7494 31.1101C32.6965 30.9328 32.6412 30.7544 32.5811 30.5774C34.1223 30.5909 35.6598 31.1223 36.9102 32.1716ZM32.0255 32.8795C32.3207 33.7517 32.7365 34.6909 33.4948 35.587L32.5207 36.5612L28.1312 32.1717C29.0762 31.3787 30.1851 30.8815 31.3356 30.68C31.4264 30.9154 31.5089 31.173 31.5934 31.4556C31.6288 31.5738 31.6647 31.6976 31.7019 31.8253C31.7989 32.1589 31.9038 32.5196 32.0255 32.8795Z" fill="black"/>
</g>
<g filter="url(#filter7_d_1707_12123)">
<rect x="125.544" y="21.4793" width="31.8698" height="31.8698" rx="6.43433" fill="url(#paint4_radial_1707_12123)"/>
<path d="M145.895 33.2886C145.949 32.9597 145.726 32.6496 145.397 32.5959C145.061 32.5409 144.761 32.7839 144.702 33.1095C144.699 33.1243 144.694 33.1485 144.687 33.1814C144.673 33.2472 144.649 33.3477 144.614 33.4775C144.542 33.7372 144.422 34.1133 144.23 34.5628C143.845 35.4622 143.175 36.6502 142.033 37.792C140.89 38.9349 139.655 39.6515 138.704 40.0821C138.229 40.2971 137.828 40.4396 137.549 40.5276C137.409 40.5716 137.3 40.6019 137.228 40.6207C137.192 40.6302 137.165 40.6367 137.148 40.6407L137.131 40.6449L137.129 40.6453L137.128 40.6455C136.803 40.7163 136.596 41.0371 136.666 41.3625C136.781 41.8921 137.384 41.8246 137.384 41.8246L137.386 41.8242L137.389 41.8235L137.398 41.8215L137.428 41.8145C137.453 41.8085 137.489 41.7997 137.534 41.7879C137.623 41.7644 137.751 41.7287 137.911 41.6784C138.23 41.5779 138.677 41.4187 139.202 41.1813C140.249 40.707 141.616 39.9154 142.886 38.6452C144.157 37.3738 144.907 36.0481 145.339 35.0372C145.555 34.5315 145.693 34.1032 145.777 33.7974C145.819 33.6444 145.848 33.5218 145.867 33.4352C145.876 33.3919 145.883 33.3576 145.887 33.3329L145.893 33.3032L145.894 33.294L145.895 33.2908L145.895 33.2896L145.895 33.2886ZM133.719 37.8749C133.169 39.4018 133.096 40.9909 134.072 41.9763L134.071 41.977L134.26 42.1677C134.382 42.2919 134.562 42.4738 134.792 42.7049C135.25 43.167 135.905 43.8258 136.692 44.6124C137.721 45.6418 139.35 45.6587 140.946 45.1433C142.576 44.6167 144.364 43.4854 145.954 41.8961C147.543 40.3068 148.674 38.5181 149.201 36.888C149.716 35.2923 149.7 33.6635 148.67 32.634C148.254 32.2178 147.6 31.5588 147.049 31.0032C146.774 30.7256 146.525 30.474 146.344 30.2918L146.053 29.997L146.051 29.9987C145.066 29.0221 143.476 29.0948 141.949 29.6451C140.368 30.2147 138.612 31.3689 137.027 32.9533C135.443 34.5378 134.289 36.2942 133.719 37.8749ZM134.854 38.2839C135.351 36.9046 136.393 35.2942 137.88 33.8065C139.368 32.3188 140.979 31.2772 142.358 30.7803C143.786 30.2655 144.746 30.3998 145.206 30.8597L145.207 30.858L145.487 31.1407C145.667 31.323 145.917 31.5747 146.192 31.8526C146.743 32.408 147.399 33.0688 147.817 33.4872C148.359 34.0297 148.52 35.0693 148.053 36.5171C147.596 37.9304 146.583 39.5601 145.101 41.0429C143.618 42.5258 141.988 43.5386 140.575 43.9951C139.127 44.4628 138.087 44.3018 137.545 43.7592C136.76 42.9739 136.106 42.3164 135.648 41.8552C135.42 41.6246 135.24 41.4431 135.118 41.3193L134.933 41.1324L134.934 41.1317C134.474 40.6718 134.339 39.7125 134.854 38.2839Z" fill="black"/>
</g>
<rect x="4" y="47.5889" width="163.999" height="33.0545" fill="url(#paint5_linear_1707_12123)"/>
</g>
<path d="M23.8943 95.6049H26.2395C25.3988 97.5667 23.319 98.8647 21.195 98.8647C18.1565 98.8647 15.5015 96.3277 15.5015 93.1417C15.5015 90.1032 18.0385 87.5072 21.1508 87.5072C23.319 87.5072 25.3988 88.7609 26.2985 90.8407H23.9975C23.2158 89.9409 22.3013 89.3952 21.077 89.3952C19.1005 89.3952 17.5223 91.2389 17.5223 93.1712C17.5223 95.1329 19.1448 96.9767 21.1508 96.9767C22.1685 96.9767 22.9945 96.6079 23.8943 95.6049ZM34.5625 98.6434H32.6008V94.3807C32.6008 92.6844 32.0403 91.9764 30.9193 91.9764C29.7983 91.9764 29.2673 92.7729 29.2673 94.4102V98.6434H27.3055V87.7284H29.2673V91.0324C29.872 90.4572 30.5505 90.1769 31.3913 90.1769C32.3795 90.1769 34.5625 90.8702 34.5625 93.6432V98.6434ZM40.088 98.9089C37.6838 98.9089 35.722 96.9177 35.722 94.5577C35.722 92.1977 37.6248 90.1769 40.088 90.1769C42.566 90.1769 44.4245 92.1682 44.4245 94.5282C44.4245 96.9767 42.5955 98.9089 40.088 98.9089ZM40.088 97.1094C41.4745 97.1094 42.4628 95.9294 42.4628 94.5724C42.4628 93.2302 41.4598 91.9764 40.0733 91.9764C38.7605 91.9764 37.6838 93.1859 37.6838 94.5577C37.6838 95.9294 38.6868 97.1094 40.088 97.1094ZM49.5228 98.9089C47.1186 98.9089 45.1568 96.9177 45.1568 94.5577C45.1568 92.1977 47.0596 90.1769 49.5228 90.1769C52.0008 90.1769 53.8593 92.1682 53.8593 94.5282C53.8593 96.9767 52.0303 98.9089 49.5228 98.9089ZM49.5228 97.1094C50.9093 97.1094 51.8976 95.9294 51.8976 94.5724C51.8976 93.2302 50.8946 91.9764 49.5081 91.9764C48.1953 91.9764 47.1186 93.1859 47.1186 94.5577C47.1186 95.9294 48.1216 97.1094 49.5228 97.1094ZM60.2114 92.6844H58.2939C58.1907 92.2567 57.9694 91.9764 57.5122 91.9764C57.0992 91.9764 56.7599 92.2714 56.7599 92.6844C56.7599 93.0679 56.9222 93.2449 58.1022 93.5842C60.0197 94.1447 60.4327 95.0002 60.4327 96.0474C60.4327 97.6847 59.1789 98.9089 57.5712 98.9089C56.0372 98.9089 54.6212 98.0239 54.5032 96.0622H56.5092C56.6714 96.8144 57.0254 97.1094 57.5859 97.1094C58.1022 97.1094 58.4709 96.7554 58.4709 96.2834C58.4709 95.7082 58.0432 95.5312 56.9222 95.1624C55.2849 94.6462 54.7982 93.7317 54.7982 92.7139C54.7982 91.2684 56.0667 90.1769 57.5417 90.1769C58.9134 90.1769 60.1377 91.1799 60.2114 92.6844ZM69.5987 95.4279H63.2415C63.389 96.1507 64.2887 97.1094 65.4982 97.1094C66.3095 97.1094 66.988 96.7849 67.3862 96.0622H69.4512C68.9202 97.7142 67.2387 98.9089 65.4982 98.9089C63.035 98.9089 61.1765 96.9914 61.1765 94.5724C61.1765 92.1534 62.9907 90.1769 65.4835 90.1769C67.8582 90.1769 69.7167 92.0502 69.7167 94.4397C69.7167 94.7494 69.6725 95.0739 69.5987 95.4279ZM63.1825 93.8497H67.7107C67.519 92.6697 66.7077 91.9764 65.4835 91.9764C64.4067 91.9764 63.4922 92.5959 63.1825 93.8497ZM20.5755 116.643H18.5548V112.617L14.9705 105.728H17.183L19.5578 110.743L21.9473 105.728H24.1745L20.5755 112.617V116.643ZM27.4122 116.909C25.008 116.909 23.0462 114.918 23.0462 112.558C23.0462 110.198 24.949 108.177 27.4122 108.177C29.8902 108.177 31.7487 110.168 31.7487 112.528C31.7487 114.977 29.9197 116.909 27.4122 116.909ZM27.4122 115.109C28.7987 115.109 29.787 113.929 29.787 112.572C29.787 111.23 28.784 109.976 27.3975 109.976C26.0847 109.976 25.008 111.186 25.008 112.558C25.008 113.929 26.011 115.109 27.4122 115.109ZM40.1363 116.643H38.3368V115.817H38.3073C37.7616 116.57 37.0683 116.909 36.3161 116.909C34.3543 116.909 32.8498 115.876 32.8498 113.266V108.457H34.8116V112.69C34.8116 114.283 35.3426 115.109 36.5226 115.109C37.6583 115.109 38.1746 114.136 38.1746 112.705V108.457H40.1363V116.643ZM43.8475 116.643H41.8858V108.457H43.6853V109.18H43.7148C44.231 108.413 44.6588 108.177 45.588 108.177H45.6323V110.08C44.4523 110.124 43.8475 110.758 43.8475 111.982V116.643ZM56.8214 108.619H54.7564V108.605C54.6974 107.897 54.2992 107.395 53.5322 107.395C52.8979 107.395 52.4112 107.852 52.4112 108.501C52.4112 109.209 52.8832 109.622 53.8124 109.888C56.1134 110.566 57.0869 111.599 57.0869 113.384C57.0869 115.522 55.5382 116.865 53.5469 116.865C51.6442 116.865 50.1102 115.493 49.9922 113.516H52.1162C52.2194 114.416 52.7504 114.977 53.5617 114.977C54.3877 114.977 55.0662 114.372 55.0662 113.59C55.0662 112.794 54.5352 112.322 53.6649 112.012C51.9392 111.392 50.3904 110.906 50.3904 108.619C50.3904 106.761 51.8654 105.507 53.5912 105.507C55.2727 105.507 56.7182 106.776 56.8214 108.619ZM60.1333 119.372H58.1715V108.457H59.971V109.416H60.0005C60.6938 108.546 61.5788 108.177 62.6555 108.177C65.0598 108.177 66.756 110.198 66.756 112.513C66.756 114.918 64.9713 116.909 62.6555 116.909C61.6083 116.909 60.915 116.629 60.1333 115.862V119.372ZM62.4048 115.109C63.747 115.109 64.7943 113.9 64.7943 112.543C64.7943 111.215 63.806 109.976 62.4195 109.976C61.0625 109.976 60.0153 111.127 60.0153 112.543C60.0153 114.269 61.3723 115.109 62.4048 115.109ZM71.9503 116.909C69.5461 116.909 67.5843 114.918 67.5843 112.558C67.5843 110.198 69.4871 108.177 71.9503 108.177C74.4283 108.177 76.2868 110.168 76.2868 112.528C76.2868 114.977 74.4578 116.909 71.9503 116.909ZM71.9503 115.109C73.3368 115.109 74.3251 113.929 74.3251 112.572C74.3251 111.23 73.3221 109.976 71.9356 109.976C70.6228 109.976 69.5461 111.186 69.5461 112.558C69.5461 113.929 70.5491 115.109 71.9503 115.109ZM79.5414 116.643H77.5796V108.457H79.3791V109.18H79.4086C79.9249 108.413 80.3526 108.177 81.2819 108.177H81.3261V110.08C80.1461 110.124 79.5414 110.758 79.5414 111.982V116.643ZM84.8933 116.643H82.9316V110.198H81.9728V108.457H82.9316V105.728H84.8933V108.457H86.0733V110.198H84.8933V116.643Z" fill="black"/>
<path opacity="0.05" d="M129.563 95.6734V108.88C129.563 115.46 124.816 120.348 117.766 120.348C112.22 120.348 106.204 116.4 106.204 108.927V95.7204C106.204 88.9994 111.045 84.1584 118.095 84.1584C124.816 84.1584 129.563 89.4224 129.563 95.6734ZM123.312 108.269V95.7674C123.312 92.7124 121.103 90.0804 117.907 90.0804C114.57 90.0804 112.455 92.7594 112.455 96.0024V108.128C112.455 111.747 114.429 114.426 117.907 114.426C121.338 114.426 123.312 111.841 123.312 108.269ZM148.061 119.643H141.81V90.7854H137.439V84.8634H148.061V119.643Z" fill="#27273A"/>
<path d="M19.58 131.163H18.5C18.5 130.493 18.07 130.093 17.46 130.093C16.94 130.093 16.47 130.563 16.47 131.103C16.47 131.623 16.82 131.923 17.54 132.153C19.14 132.663 19.73 133.263 19.73 134.543C19.73 135.883 18.77 136.783 17.46 136.783C16.14 136.783 15.2 135.843 15.18 134.453H16.26C16.27 135.253 16.74 135.793 17.46 135.793C18.18 135.793 18.65 135.273 18.65 134.543C18.65 134.003 18.41 133.663 17.62 133.393C15.79 132.773 15.39 132.173 15.39 131.123C15.39 129.993 16.32 129.103 17.46 129.103C18.68 129.103 19.56 129.873 19.58 131.163ZM21.723 133.523H25.303C25.223 132.583 24.393 131.903 23.503 131.903C22.653 131.903 21.803 132.573 21.723 133.523ZM26.313 134.323H21.723C21.963 135.243 22.693 135.833 23.543 135.833C24.193 135.833 24.803 135.493 25.123 134.903H26.163C25.733 136.043 24.693 136.783 23.503 136.783C21.943 136.783 20.683 135.403 20.683 133.923C20.683 132.173 22.003 130.953 23.473 130.953C25.103 130.953 26.343 132.213 26.343 133.803C26.343 133.973 26.343 134.133 26.313 134.323ZM28.419 136.643H27.379V129.243H28.419V136.643ZM30.5218 133.523H34.1018C34.0218 132.583 33.1918 131.903 32.3018 131.903C31.4518 131.903 30.6018 132.573 30.5218 133.523ZM35.1118 134.323H30.5218C30.7618 135.243 31.4918 135.833 32.3418 135.833C32.9918 135.833 33.6018 135.493 33.9218 134.903H34.9618C34.5318 136.043 33.4918 136.783 32.3018 136.783C30.7418 136.783 29.4818 135.403 29.4818 133.923C29.4818 132.173 30.8018 130.953 32.2718 130.953C33.9018 130.953 35.1418 132.213 35.1418 133.803C35.1418 133.973 35.1418 134.133 35.1118 134.323ZM40.2978 134.813H41.4578C41.0178 136.063 39.9578 136.783 38.7278 136.783C37.1378 136.783 35.8878 135.503 35.8878 133.923C35.8878 132.253 37.0978 130.953 38.7178 130.953C39.9778 130.953 41.1278 131.743 41.4578 132.943H40.3078C39.9978 132.293 39.4978 131.903 38.7478 131.903C37.6578 131.903 36.9278 132.733 36.9278 133.863C36.9278 134.963 37.6778 135.833 38.7278 135.833C39.4378 135.833 40.0078 135.453 40.2978 134.813ZM43.6073 136.643H42.5673V132.053H41.8173V131.103H42.5673V129.243H43.6073V131.103H44.5173V132.053H43.6073V136.643ZM49.24 136.643H48.2V132.053H47.71V131.103H48.2V130.853C48.2 129.793 48.95 129.243 49.98 129.243H50.21V130.193C49.53 130.193 49.24 130.433 49.24 130.843V131.103H50.21V132.053H49.24V136.643ZM51.6807 136.643H50.6407V131.103H51.6107V131.603H51.6307C51.8807 131.233 52.3107 130.993 53.0407 130.953V132.023C52.1407 132.053 51.6807 132.603 51.6807 133.533V136.643ZM59.4557 133.913C59.4357 135.393 58.1957 136.783 56.4257 136.783C54.8657 136.783 53.4757 135.453 53.4757 133.893C53.4757 132.203 54.8057 130.953 56.5057 130.953C58.0357 130.953 59.4757 132.153 59.4557 133.913ZM58.4157 133.853C58.4157 132.773 57.5457 131.903 56.4557 131.903C55.4157 131.903 54.5157 132.783 54.5157 133.863C54.5157 134.913 55.3857 135.833 56.4357 135.833C57.5257 135.833 58.4157 134.973 58.4157 133.853ZM68.8938 136.643H67.8538V133.543C67.8538 132.493 67.4138 131.903 66.5438 131.903C65.6238 131.903 65.2238 132.413 65.2238 133.523V136.643H64.1838V133.423C64.1838 132.333 63.6738 131.903 62.9238 131.903C62.0038 131.903 61.5538 132.443 61.5538 133.533V136.643H60.5138V131.103H61.4738V131.703H61.4938C61.9438 131.173 62.3638 130.953 63.0838 130.953C63.8038 130.953 64.5238 131.303 64.8038 131.883C65.2038 131.253 65.7538 130.953 66.6338 130.953C68.0738 130.953 68.8938 131.853 68.8938 133.283V136.643ZM75.81 135.833C76.89 135.833 77.74 134.933 77.74 133.883C77.74 132.803 76.96 131.903 75.81 131.903C74.77 131.903 73.92 132.793 73.92 133.883C73.92 134.923 74.77 135.833 75.81 135.833ZM78.76 136.643H77.72V135.783H77.7C77.31 136.443 76.61 136.783 75.82 136.783C74.2 136.783 72.88 135.563 72.88 133.963C72.88 132.193 74.15 130.953 75.78 130.953C76.59 130.953 77.27 131.253 77.7 131.883H77.72V131.103H78.76V136.643ZM85.4428 136.643H84.7128L82.5128 131.103H83.6228L85.0728 135.063H85.0928L86.5128 131.103H87.6228L85.4428 136.643ZM90.8686 135.833C91.9486 135.833 92.7986 134.933 92.7986 133.883C92.7986 132.803 92.0186 131.903 90.8686 131.903C89.8286 131.903 88.9786 132.793 88.9786 133.883C88.9786 134.923 89.8286 135.833 90.8686 135.833ZM93.8186 136.643H92.7786V135.783H92.7586C92.3686 136.443 91.6686 136.783 90.8786 136.783C89.2586 136.783 87.9386 135.563 87.9386 133.963C87.9386 132.193 89.2086 130.953 90.8386 130.953C91.6486 130.953 92.3286 131.253 92.7586 131.883H92.7786V131.103H93.8186V136.643ZM96.2022 136.643H95.1622V131.103H96.1322V131.603H96.1522C96.4022 131.233 96.8322 130.993 97.5622 130.953V132.023C96.6622 132.053 96.2022 132.603 96.2022 133.533V136.643ZM99.6202 130.463H98.5802V129.243H99.6202V130.463ZM99.6202 136.643H98.5802V131.103H99.6202V136.643ZM101.723 133.523H105.303C105.223 132.583 104.393 131.903 103.503 131.903C102.653 131.903 101.803 132.573 101.723 133.523ZM106.313 134.323H101.723C101.963 135.243 102.693 135.833 103.543 135.833C104.193 135.833 104.803 135.493 105.123 134.903H106.163C105.733 136.043 104.693 136.783 103.503 136.783C101.943 136.783 100.683 135.403 100.683 133.923C100.683 132.173 102.003 130.953 103.473 130.953C105.103 130.953 106.343 132.213 106.343 133.803C106.343 133.973 106.343 134.133 106.313 134.323ZM108.539 136.643H107.499V132.053H106.749V131.103H107.499V129.243H108.539V131.103H109.449V132.053H108.539V136.643ZM112.062 138.493H110.982L111.792 136.533L109.582 131.103H110.702L112.332 135.403L114.002 131.103H115.122L112.062 138.493ZM124.534 133.913C124.514 135.393 123.274 136.783 121.504 136.783C119.944 136.783 118.554 135.453 118.554 133.893C118.554 132.203 119.884 130.953 121.584 130.953C123.114 130.953 124.554 132.153 124.534 133.913ZM123.494 133.853C123.494 132.773 122.624 131.903 121.534 131.903C120.494 131.903 119.594 132.783 119.594 133.863C119.594 134.913 120.464 135.833 121.514 135.833C122.604 135.833 123.494 134.973 123.494 133.853ZM126.662 136.643H125.622V132.053H125.132V131.103H125.622V130.853C125.622 129.793 126.372 129.243 127.402 129.243H127.632V130.193C126.952 130.193 126.662 130.433 126.662 130.843V131.103H127.632V132.053H126.662V136.643ZM18.89 144.573H17.85C17.8 144.173 17.57 143.903 17.14 143.903C16.74 143.903 16.49 144.173 16.49 144.493C16.49 144.963 16.97 145.103 17.52 145.273C18.3 145.513 19.02 145.983 19.02 147.013C19.02 148.083 18.24 148.783 17.16 148.783C16.16 148.783 15.2 148.103 15.2 146.823H16.24C16.29 147.493 16.63 147.833 17.18 147.833C17.66 147.833 17.98 147.523 17.98 147.073C17.98 146.693 17.69 146.443 17.04 146.233C15.68 145.803 15.45 145.213 15.45 144.583C15.45 143.603 16.28 142.953 17.19 142.953C18.11 142.953 18.86 143.593 18.89 144.573ZM20.9483 150.493H19.9083V143.103H20.8583V143.953H20.8783C21.3483 143.283 22.0583 142.953 22.8483 142.953C24.4983 142.953 25.7183 144.233 25.7183 145.943C25.7183 147.503 24.5083 148.783 22.9183 148.783C22.0783 148.783 21.3283 148.443 20.9683 147.843H20.9483V150.493ZM22.8083 147.833C23.8783 147.833 24.6783 146.943 24.6783 145.883C24.6783 144.873 23.8783 143.903 22.7683 143.903C21.7283 143.903 20.9283 144.833 20.9283 145.863C20.9283 146.943 21.7283 147.833 22.8083 147.833ZM32.4538 145.913C32.4338 147.393 31.1938 148.783 29.4238 148.783C27.8638 148.783 26.4738 147.453 26.4738 145.893C26.4738 144.203 27.8038 142.953 29.5038 142.953C31.0338 142.953 32.4738 144.153 32.4538 145.913ZM31.4138 145.853C31.4138 144.773 30.5438 143.903 29.4538 143.903C28.4138 143.903 27.5138 144.783 27.5138 145.863C27.5138 146.913 28.3838 147.833 29.4338 147.833C30.5238 147.833 31.4138 146.973 31.4138 145.853ZM34.5518 148.643H33.5118V143.103H34.4818V143.603H34.5018C34.7518 143.233 35.1818 142.993 35.9118 142.953V144.023C35.0118 144.053 34.5518 144.603 34.5518 145.533V148.643ZM38.0995 148.643H37.0595V144.053H36.3095V143.103H37.0595V141.243H38.0995V143.103H39.0095V144.053H38.0995V148.643ZM42.933 144.573H41.893C41.843 144.173 41.613 143.903 41.183 143.903C40.783 143.903 40.533 144.173 40.533 144.493C40.533 144.963 41.013 145.103 41.563 145.273C42.343 145.513 43.063 145.983 43.063 147.013C43.063 148.083 42.283 148.783 41.203 148.783C40.203 148.783 39.243 148.103 39.243 146.823H40.283C40.333 147.493 40.673 147.833 41.223 147.833C41.703 147.833 42.023 147.523 42.023 147.073C42.023 146.693 41.733 146.443 41.083 146.233C39.723 145.803 39.493 145.213 39.493 144.583C39.493 143.603 40.323 142.953 41.233 142.953C42.153 142.953 42.903 143.593 42.933 144.573ZM47.9405 142.463H46.9005V141.243H47.9405V142.463ZM47.9405 148.643H46.9005V143.103H47.9405V148.643ZM54.1933 148.643H53.1533V145.623C53.1533 144.453 52.6933 143.903 51.7733 143.903C50.8633 143.903 50.3133 144.573 50.3133 145.613V148.643H49.2733V143.103H50.2433V143.693H50.2633C50.6733 143.163 51.2433 142.953 51.8833 142.953C53.2133 142.953 54.1933 143.793 54.1933 145.323V148.643ZM59.6435 146.813H60.8035C60.3635 148.063 59.3035 148.783 58.0735 148.783C56.4835 148.783 55.2335 147.503 55.2335 145.923C55.2335 144.253 56.4435 142.953 58.0635 142.953C59.3235 142.953 60.4735 143.743 60.8035 144.943H59.6535C59.3435 144.293 58.8435 143.903 58.0935 143.903C57.0035 143.903 56.2735 144.733 56.2735 145.863C56.2735 146.963 57.0235 147.833 58.0735 147.833C58.7835 147.833 59.3535 147.453 59.6435 146.813ZM62.6866 148.643H61.6466V141.243H62.6866V148.643ZM68.9294 148.643H67.9794V148.043H67.9594C67.6894 148.513 67.0594 148.783 66.3294 148.783C65.1394 148.783 64.0194 148.143 64.0194 146.193V143.103H65.0594V146.113C65.0594 147.273 65.4894 147.833 66.4394 147.833C67.3994 147.833 67.8894 147.163 67.8894 146.093V143.103H68.9294V148.643ZM74.8396 145.923C74.8396 144.793 74.0796 143.903 72.9096 143.903C71.8496 143.903 71.0196 144.793 71.0196 145.883C71.0196 146.923 71.8696 147.833 72.9096 147.833C73.9596 147.833 74.8396 146.973 74.8396 145.923ZM75.7996 148.643H74.8396V147.853H74.8196C74.3896 148.453 73.6696 148.783 72.8596 148.783C71.2496 148.783 69.9796 147.563 69.9796 145.933C69.9796 144.243 71.1796 142.953 72.8296 142.953C73.5796 142.953 74.2896 143.223 74.7396 143.783H74.7596V141.243H75.7996V148.643ZM78.1748 142.463H77.1348V141.243H78.1748V142.463ZM78.1748 148.643H77.1348V143.103H78.1748V148.643ZM84.4277 148.643H83.3877V145.623C83.3877 144.453 82.9277 143.903 82.0077 143.903C81.0977 143.903 80.5477 144.573 80.5477 145.613V148.643H79.5077V143.103H80.4777V143.693H80.4977C80.9077 143.163 81.4777 142.953 82.1177 142.953C83.4477 142.953 84.4277 143.793 84.4277 145.323V148.643ZM90.3579 147.913H90.3379C89.9079 148.493 89.2179 148.783 88.4279 148.783C86.8379 148.783 85.4679 147.413 85.4679 145.913C85.4679 144.243 86.7679 142.953 88.4379 142.953C89.1579 142.953 89.9179 143.253 90.3579 143.743V143.103H91.3979V147.913C91.3979 149.713 90.2879 150.823 88.4079 150.823C87.1379 150.823 86.1379 150.153 85.6679 149.073H86.8279C87.2179 149.623 87.7379 149.873 88.4179 149.873C89.6879 149.873 90.3579 149.183 90.3579 147.913ZM88.4179 147.833C89.6279 147.833 90.3579 146.773 90.3579 145.873C90.3579 144.573 89.3679 143.903 88.4079 143.903C87.3779 143.903 86.5079 144.793 86.5079 145.873C86.5079 146.933 87.3879 147.833 88.4179 147.833ZM101.534 148.643H100.384L99.5645 146.463H96.9045L96.0845 148.643H94.9445L97.7545 141.243H98.7245L101.534 148.643ZM99.1945 145.473L98.2545 142.643H98.2345L97.2845 145.473H99.1945ZM110.7 148.643H109.66V145.543C109.66 144.493 109.22 143.903 108.35 143.903C107.43 143.903 107.03 144.413 107.03 145.523V148.643H105.99V145.423C105.99 144.333 105.48 143.903 104.73 143.903C103.81 143.903 103.36 144.443 103.36 145.533V148.643H102.32V143.103H103.28V143.703H103.3C103.75 143.173 104.17 142.953 104.89 142.953C105.61 142.953 106.33 143.303 106.61 143.883C107.01 143.253 107.56 142.953 108.44 142.953C109.88 142.953 110.7 143.853 110.7 145.283V148.643ZM112.787 145.523H116.367C116.287 144.583 115.457 143.903 114.567 143.903C113.717 143.903 112.867 144.573 112.787 145.523ZM117.377 146.323H112.787C113.027 147.243 113.757 147.833 114.607 147.833C115.257 147.833 115.867 147.493 116.187 146.903H117.227C116.797 148.043 115.757 148.783 114.567 148.783C113.007 148.783 111.747 147.403 111.747 145.923C111.747 144.173 113.067 142.953 114.537 142.953C116.167 142.953 117.407 144.213 117.407 145.803C117.407 145.973 117.407 146.133 117.377 146.323ZM119.483 148.643H118.443V143.103H119.413V143.603H119.433C119.683 143.233 120.113 142.993 120.843 142.953V144.023C119.943 144.053 119.483 144.603 119.483 145.533V148.643ZM122.901 142.463H121.861V141.243H122.901V142.463ZM122.901 148.643H121.861V143.103H122.901V148.643ZM128.364 146.813H129.524C129.084 148.063 128.024 148.783 126.794 148.783C125.204 148.783 123.954 147.503 123.954 145.923C123.954 144.253 125.164 142.953 126.784 142.953C128.044 142.953 129.194 143.743 129.524 144.943H128.374C128.064 144.293 127.564 143.903 126.814 143.903C125.724 143.903 124.994 144.733 124.994 145.863C124.994 146.963 125.744 147.833 126.794 147.833C127.504 147.833 128.074 147.453 128.364 146.813ZM133.154 147.833C134.234 147.833 135.084 146.933 135.084 145.883C135.084 144.803 134.304 143.903 133.154 143.903C132.114 143.903 131.264 144.793 131.264 145.883C131.264 146.923 132.114 147.833 133.154 147.833ZM136.104 148.643H135.064V147.783H135.044C134.654 148.443 133.954 148.783 133.164 148.783C131.544 148.783 130.224 147.563 130.224 145.963C130.224 144.193 131.494 142.953 133.124 142.953C133.934 142.953 134.614 143.253 135.044 143.883H135.064V143.103H136.104V148.643ZM142.357 148.643H141.317V145.623C141.317 144.453 140.857 143.903 139.937 143.903C139.027 143.903 138.477 144.573 138.477 145.613V148.643H137.437V143.103H138.407V143.693H138.427C138.837 143.163 139.407 142.953 140.047 142.953C141.377 142.953 142.357 143.793 142.357 145.323V148.643ZM16.74 160.643H15.7V156.053H15.21V155.103H15.7V154.853C15.7 153.793 16.45 153.243 17.48 153.243H17.71V154.193C17.03 154.193 16.74 154.433 16.74 154.843V155.103H17.71V156.053H16.74V160.643ZM23.9381 157.913C23.9181 159.393 22.6781 160.783 20.9081 160.783C19.3481 160.783 17.9581 159.453 17.9581 157.893C17.9581 156.203 19.2881 154.953 20.9881 154.953C22.5181 154.953 23.9581 156.153 23.9381 157.913ZM22.8981 157.853C22.8981 156.773 22.0281 155.903 20.9381 155.903C19.8981 155.903 18.9981 156.783 18.9981 157.863C18.9981 158.913 19.8681 159.833 20.9181 159.833C22.0081 159.833 22.8981 158.973 22.8981 157.853ZM30.6862 157.913C30.6662 159.393 29.4262 160.783 27.6562 160.783C26.0962 160.783 24.7062 159.453 24.7062 157.893C24.7062 156.203 26.0362 154.953 27.7362 154.953C29.2662 154.953 30.7062 156.153 30.6862 157.913ZM29.6462 157.853C29.6462 156.773 28.7762 155.903 27.6862 155.903C26.6462 155.903 25.7462 156.783 25.7462 157.863C25.7462 158.913 26.6162 159.833 27.6662 159.833C28.7562 159.833 29.6462 158.973 29.6462 157.853ZM32.9042 160.643H31.8642V156.053H31.1142V155.103H31.8642V153.243H32.9042V155.103H33.8142V156.053H32.9042V160.643ZM35.5477 160.643H34.5177V153.243H35.5577V155.873H35.5777C36.0277 155.263 36.7277 154.953 37.4777 154.953C39.0477 154.953 40.3477 156.273 40.3477 157.873C40.3477 159.423 39.1277 160.783 37.5677 160.783C36.7677 160.783 36.0277 160.463 35.5677 159.843H35.5477V160.643ZM37.4177 159.833C38.4377 159.833 39.3077 158.953 39.3077 157.873C39.3077 156.823 38.4777 155.903 37.4077 155.903C36.3777 155.903 35.5277 156.803 35.5277 157.853C35.5277 158.953 36.3577 159.833 37.4177 159.833ZM44.0424 159.833C45.1224 159.833 45.9724 158.933 45.9724 157.883C45.9724 156.803 45.1924 155.903 44.0424 155.903C43.0024 155.903 42.1524 156.793 42.1524 157.883C42.1524 158.923 43.0024 159.833 44.0424 159.833ZM46.9924 160.643H45.9524V159.783H45.9324C45.5424 160.443 44.8424 160.783 44.0524 160.783C42.4324 160.783 41.1124 159.563 41.1124 157.963C41.1124 156.193 42.3824 154.953 44.0124 154.953C44.8224 154.953 45.5024 155.253 45.9324 155.883H45.9524V155.103H46.9924V160.643ZM49.4248 160.643H48.3848V153.243H49.4248V160.643ZM51.8077 160.643H50.7677V153.243H51.8077V160.643ZM53.3505 161.913V161.293C53.6205 161.193 53.7205 161.073 53.7205 160.643H53.3505V159.423H54.3905V160.573C54.3905 161.313 54.0605 161.773 53.3505 161.913ZM59.2 160.643H58.17V153.243H59.21V155.873H59.23C59.68 155.263 60.38 154.953 61.13 154.953C62.7 154.953 64 156.273 64 157.873C64 159.423 62.78 160.783 61.22 160.783C60.42 160.783 59.68 160.463 59.22 159.843H59.2V160.643ZM61.07 159.833C62.09 159.833 62.96 158.953 62.96 157.873C62.96 156.823 62.13 155.903 61.06 155.903C60.03 155.903 59.18 156.803 59.18 157.853C59.18 158.953 60.01 159.833 61.07 159.833ZM67.6948 159.833C68.7748 159.833 69.6248 158.933 69.6248 157.883C69.6248 156.803 68.8448 155.903 67.6948 155.903C66.6548 155.903 65.8048 156.793 65.8048 157.883C65.8048 158.923 66.6548 159.833 67.6948 159.833ZM70.6448 160.643H69.6048V159.783H69.5848C69.1948 160.443 68.4948 160.783 67.7048 160.783C66.0848 160.783 64.7648 159.563 64.7648 157.963C64.7648 156.193 66.0348 154.953 67.6648 154.953C68.4748 154.953 69.1548 155.253 69.5848 155.883H69.6048V155.103H70.6448V160.643ZM75.2084 156.573H74.1684C74.1184 156.173 73.8884 155.903 73.4584 155.903C73.0584 155.903 72.8084 156.173 72.8084 156.493C72.8084 156.963 73.2884 157.103 73.8384 157.273C74.6184 157.513 75.3384 157.983 75.3384 159.013C75.3384 160.083 74.5584 160.783 73.4784 160.783C72.4784 160.783 71.5184 160.103 71.5184 158.823H72.5584C72.6084 159.493 72.9484 159.833 73.4984 159.833C73.9784 159.833 74.2984 159.523 74.2984 159.073C74.2984 158.693 74.0084 158.443 73.3584 158.233C71.9984 157.803 71.7684 157.213 71.7684 156.583C71.7684 155.603 72.5984 154.953 73.5084 154.953C74.4284 154.953 75.1784 155.593 75.2084 156.573ZM77.3666 160.643H76.3266V153.243H77.3666V160.643ZM80.9066 160.643H79.6066L77.3866 157.773L79.3566 155.103H80.5866L78.5766 157.713L80.9066 160.643ZM81.9964 157.523H85.5764C85.4964 156.583 84.6664 155.903 83.7764 155.903C82.9264 155.903 82.0764 156.573 81.9964 157.523ZM86.5864 158.323H81.9964C82.2364 159.243 82.9664 159.833 83.8164 159.833C84.4664 159.833 85.0764 159.493 85.3964 158.903H86.4364C86.0064 160.043 84.9664 160.783 83.7764 160.783C82.2164 160.783 80.9564 159.403 80.9564 157.923C80.9564 156.173 82.2764 154.953 83.7464 154.953C85.3764 154.953 86.6164 156.213 86.6164 157.803C86.6164 157.973 86.6164 158.133 86.5864 158.323ZM88.8124 160.643H87.7724V156.053H87.0224V155.103H87.7724V153.243H88.8124V155.103H89.7224V156.053H88.8124V160.643ZM91.4559 160.643H90.4259V153.243H91.4659V155.873H91.4859C91.9359 155.263 92.6359 154.953 93.3859 154.953C94.9559 154.953 96.2559 156.273 96.2559 157.873C96.2559 159.423 95.0359 160.783 93.4759 160.783C92.6759 160.783 91.9359 160.463 91.4759 159.843H91.4559V160.643ZM93.3259 159.833C94.3459 159.833 95.2159 158.953 95.2159 157.873C95.2159 156.823 94.3859 155.903 93.3159 155.903C92.2859 155.903 91.4359 156.803 91.4359 157.853C91.4359 158.953 92.2659 159.833 93.3259 159.833ZM99.9506 159.833C101.031 159.833 101.881 158.933 101.881 157.883C101.881 156.803 101.101 155.903 99.9506 155.903C98.9106 155.903 98.0606 156.793 98.0606 157.883C98.0606 158.923 98.9106 159.833 99.9506 159.833ZM102.901 160.643H101.861V159.783H101.841C101.451 160.443 100.751 160.783 99.9606 160.783C98.3406 160.783 97.0206 159.563 97.0206 157.963C97.0206 156.193 98.2906 154.953 99.9206 154.953C100.731 154.953 101.411 155.253 101.841 155.883H101.861V155.103H102.901V160.643ZM105.333 160.643H104.293V153.243H105.333V160.643ZM107.716 160.643H106.676V153.243H107.716V160.643ZM109.259 161.913V161.293C109.529 161.193 109.629 161.073 109.629 160.643H109.259V159.423H110.299V160.573C110.299 161.313 109.969 161.773 109.259 161.913ZM117.298 156.573H116.258C116.208 156.173 115.978 155.903 115.548 155.903C115.148 155.903 114.898 156.173 114.898 156.493C114.898 156.963 115.378 157.103 115.928 157.273C116.708 157.513 117.428 157.983 117.428 159.013C117.428 160.083 116.648 160.783 115.568 160.783C114.568 160.783 113.608 160.103 113.608 158.823H114.648C114.698 159.493 115.038 159.833 115.588 159.833C116.068 159.833 116.388 159.523 116.388 159.073C116.388 158.693 116.098 158.443 115.448 158.233C114.088 157.803 113.858 157.213 113.858 156.583C113.858 155.603 114.688 154.953 115.598 154.953C116.518 154.953 117.268 155.593 117.298 156.573ZM124.006 157.913C123.986 159.393 122.746 160.783 120.976 160.783C119.416 160.783 118.026 159.453 118.026 157.893C118.026 156.203 119.356 154.953 121.056 154.953C122.586 154.953 124.026 156.153 124.006 157.913ZM122.966 157.853C122.966 156.773 122.096 155.903 121.006 155.903C119.966 155.903 119.066 156.783 119.066 157.863C119.066 158.913 119.936 159.833 120.986 159.833C122.076 159.833 122.966 158.973 122.966 157.853ZM129.185 158.813H130.345C129.905 160.063 128.845 160.783 127.615 160.783C126.025 160.783 124.775 159.503 124.775 157.923C124.775 156.253 125.985 154.953 127.605 154.953C128.865 154.953 130.015 155.743 130.345 156.943H129.195C128.885 156.293 128.385 155.903 127.635 155.903C126.545 155.903 125.815 156.733 125.815 157.863C125.815 158.963 126.565 159.833 127.615 159.833C128.325 159.833 128.895 159.453 129.185 158.813ZM135.454 158.813H136.614C136.174 160.063 135.114 160.783 133.884 160.783C132.294 160.783 131.044 159.503 131.044 157.923C131.044 156.253 132.254 154.953 133.874 154.953C135.134 154.953 136.284 155.743 136.614 156.943H135.464C135.154 156.293 134.654 155.903 133.904 155.903C132.814 155.903 132.084 156.733 132.084 157.863C132.084 158.963 132.834 159.833 133.884 159.833C134.594 159.833 135.164 159.453 135.454 158.813ZM138.364 157.523H141.944C141.864 156.583 141.034 155.903 140.144 155.903C139.294 155.903 138.444 156.573 138.364 157.523ZM142.954 158.323H138.364C138.604 159.243 139.334 159.833 140.184 159.833C140.834 159.833 141.444 159.493 141.764 158.903H142.804C142.374 160.043 141.334 160.783 140.144 160.783C138.584 160.783 137.324 159.403 137.324 157.923C137.324 156.173 138.644 154.953 140.114 154.953C141.744 154.953 142.984 156.213 142.984 157.803C142.984 157.973 142.984 158.133 142.954 158.323ZM145.06 160.643H144.02V155.103H144.99V155.603H145.01C145.26 155.233 145.69 154.993 146.42 154.953V156.023C145.52 156.053 145.06 156.603 145.06 157.533V160.643ZM146.69 161.913V161.293C146.96 161.193 147.06 161.073 147.06 160.643H146.69V159.423H147.73V160.573C147.73 161.313 147.4 161.773 146.69 161.913ZM19.79 170.813H20.95C20.51 172.063 19.45 172.783 18.22 172.783C16.63 172.783 15.38 171.503 15.38 169.923C15.38 168.253 16.59 166.953 18.21 166.953C19.47 166.953 20.62 167.743 20.95 168.943H19.8C19.49 168.293 18.99 167.903 18.24 167.903C17.15 167.903 16.42 168.733 16.42 169.863C16.42 170.963 17.17 171.833 18.22 171.833C18.93 171.833 19.5 171.453 19.79 170.813ZM22.9795 172.643H21.9395V167.103H22.9095V167.603H22.9295C23.1795 167.233 23.6095 166.993 24.3395 166.953V168.023C23.4395 168.053 22.9795 168.603 22.9795 169.533V172.643ZM26.3975 166.463H25.3575V165.243H26.3975V166.463ZM26.3975 172.643H25.3575V167.103H26.3975V172.643ZM31.8603 170.813H33.0203C32.5803 172.063 31.5203 172.783 30.2903 172.783C28.7003 172.783 27.4503 171.503 27.4503 169.923C27.4503 168.253 28.6603 166.953 30.2803 166.953C31.5403 166.953 32.6903 167.743 33.0203 168.943H31.8703C31.5603 168.293 31.0603 167.903 30.3103 167.903C29.2203 167.903 28.4903 168.733 28.4903 169.863C28.4903 170.963 29.2403 171.833 30.2903 171.833C31.0003 171.833 31.5703 171.453 31.8603 170.813ZM35.0034 172.643H33.9634V165.243H35.0034V172.643ZM38.5434 172.643H37.2434L35.0234 169.773L36.9934 167.103H38.2234L36.2134 169.713L38.5434 172.643ZM39.6331 169.523H43.2131C43.1331 168.583 42.3031 167.903 41.4131 167.903C40.5631 167.903 39.7131 168.573 39.6331 169.523ZM44.2231 170.323H39.6331C39.8731 171.243 40.6031 171.833 41.4531 171.833C42.1031 171.833 42.7131 171.493 43.0331 170.903H44.0731C43.6431 172.043 42.6031 172.783 41.4131 172.783C39.8531 172.783 38.5931 171.403 38.5931 169.923C38.5931 168.173 39.9131 166.953 41.3831 166.953C43.0131 166.953 44.2531 168.213 44.2531 169.803C44.2531 169.973 44.2531 170.133 44.2231 170.323ZM46.4491 172.643H45.4091V168.053H44.6591V167.103H45.4091V165.243H46.4491V167.103H47.3591V168.053H46.4491V172.643ZM47.7157 173.913V173.293C47.9857 173.193 48.0857 173.073 48.0857 172.643H47.7157V171.423H48.7557V172.573C48.7557 173.313 48.4257 173.773 47.7157 173.913ZM55.1752 171.833C56.2552 171.833 57.1052 170.933 57.1052 169.883C57.1052 168.803 56.3252 167.903 55.1752 167.903C54.1352 167.903 53.2852 168.793 53.2852 169.883C53.2852 170.923 54.1352 171.833 55.1752 171.833ZM58.1252 172.643H57.0852V171.783H57.0652C56.6752 172.443 55.9752 172.783 55.1852 172.783C53.5652 172.783 52.2452 171.563 52.2452 169.963C52.2452 168.193 53.5152 166.953 55.1452 166.953C55.9552 166.953 56.6352 167.253 57.0652 167.883H57.0852V167.103H58.1252V172.643ZM64.3788 172.643H63.3388V169.623C63.3388 168.453 62.8788 167.903 61.9588 167.903C61.0488 167.903 60.4988 168.573 60.4988 169.613V172.643H59.4588V167.103H60.4288V167.693H60.4488C60.8588 167.163 61.4288 166.953 62.0688 166.953C63.3988 166.953 64.3788 167.793 64.3788 169.323V172.643ZM70.2791 169.923C70.2791 168.793 69.5191 167.903 68.3491 167.903C67.2891 167.903 66.4591 168.793 66.4591 169.883C66.4591 170.923 67.3091 171.833 68.3491 171.833C69.3991 171.833 70.2791 170.973 70.2791 169.923ZM71.2391 172.643H70.2791V171.853H70.2591C69.8291 172.453 69.1091 172.783 68.2991 172.783C66.6891 172.783 65.4191 171.563 65.4191 169.933C65.4191 168.243 66.6191 166.953 68.2691 166.953C69.0191 166.953 69.7291 167.223 70.1791 167.783H70.1991V165.243H71.2391V172.643ZM83.9035 172.643H82.8635V169.543C82.8635 168.493 82.4235 167.903 81.5535 167.903C80.6335 167.903 80.2335 168.413 80.2335 169.523V172.643H79.1935V169.423C79.1935 168.333 78.6835 167.903 77.9335 167.903C77.0135 167.903 76.5635 168.443 76.5635 169.533V172.643H75.5235V167.103H76.4835V167.703H76.5035C76.9535 167.173 77.3735 166.953 78.0935 166.953C78.8135 166.953 79.5335 167.303 79.8135 167.883C80.2135 167.253 80.7635 166.953 81.6435 166.953C83.0835 166.953 83.9035 167.853 83.9035 169.283V172.643ZM90.9205 169.913C90.9005 171.393 89.6605 172.783 87.8905 172.783C86.3305 172.783 84.9405 171.453 84.9405 169.893C84.9405 168.203 86.2705 166.953 87.9705 166.953C89.5005 166.953 90.9405 168.153 90.9205 169.913ZM89.8805 169.853C89.8805 168.773 89.0105 167.903 87.9205 167.903C86.8805 167.903 85.9805 168.783 85.9805 169.863C85.9805 170.913 86.8505 171.833 87.9005 171.833C88.9905 171.833 89.8805 170.973 89.8805 169.853ZM93.0186 172.643H91.9786V167.103H92.9486V167.603H92.9686C93.2186 167.233 93.6486 166.993 94.3786 166.953V168.023C93.4786 168.053 93.0186 168.603 93.0186 169.533V172.643ZM95.8636 169.523H99.4436C99.3636 168.583 98.5336 167.903 97.6436 167.903C96.7936 167.903 95.9436 168.573 95.8636 169.523ZM100.454 170.323H95.8636C96.1036 171.243 96.8336 171.833 97.6836 171.833C98.3336 171.833 98.9436 171.493 99.2636 170.903H100.304C99.8736 172.043 98.8336 172.783 97.6436 172.783C96.0836 172.783 94.8236 171.403 94.8236 169.923C94.8236 168.173 96.1436 166.953 97.6136 166.953C99.2436 166.953 100.484 168.213 100.484 169.803C100.484 169.973 100.484 170.133 100.454 170.323ZM102.535 172.643H101.495V171.423H102.535V172.643Z" fill="#8A8A8A"/>
<defs>
<filter id="filter0_f_1707_12123" x="55.6483" y="-31.9317" width="172.849" height="167.345" filterUnits="userSpaceOnUse" color-interpolation-filters="sRGB">
<feFlood flood-opacity="0" result="BackgroundImageFix"/>
<feBlend mode="normal" in="SourceGraphic" in2="BackgroundImageFix" result="shape"/>
<feGaussianBlur stdDeviation="29.7488" result="effect1_foregroundBlur_1707_12123"/>
</filter>
<filter id="filter1_f_1707_12123" x="37.6927" y="-24.6217" width="113.097" height="107.593" filterUnits="userSpaceOnUse" color-interpolation-filters="sRGB">
<feFlood flood-opacity="0" result="BackgroundImageFix"/>
<feBlend mode="normal" in="SourceGraphic" in2="BackgroundImageFix" result="shape"/>
<feGaussianBlur stdDeviation="14.8109" result="effect1_foregroundBlur_1707_12123"/>
</filter>
<filter id="filter2_f_1707_12123" x="-24.6217" y="5.57217" width="113.097" height="107.593" filterUnits="userSpaceOnUse" color-interpolation-filters="sRGB">
<feFlood flood-opacity="0" result="BackgroundImageFix"/>
<feBlend mode="normal" in="SourceGraphic" in2="BackgroundImageFix" result="shape"/>
<feGaussianBlur stdDeviation="14.8109" result="effect1_foregroundBlur_1707_12123"/>
</filter>
<filter id="filter3_d_1707_12123" x="82.0417" y="16.8391" width="46.2355" height="46.2357" filterUnits="userSpaceOnUse" color-interpolation-filters="sRGB">
<feFlood flood-opacity="0" result="BackgroundImageFix"/>
<feColorMatrix in="SourceAlpha" type="matrix" values="0 0 0 0 0 0 0 0 0 0 0 0 0 0 0 0 0 0 127 0" result="hardAlpha"/>
<feOffset dy="2.54264"/>
<feGaussianBlur stdDeviation="3.59147"/>
<feComposite in2="hardAlpha" operator="out"/>
<feColorMatrix type="matrix" values="0 0 0 0 0.517647 0 0 0 0 0.729412 0 0 0 0 0.988235 0 0 0 0.15 0"/>
<feBlend mode="normal" in2="BackgroundImageFix" result="effect1_dropShadow_1707_12123"/>
<feBlend mode="normal" in="SourceGraphic" in2="effect1_dropShadow_1707_12123" result="shape"/>
</filter>
<filter id="filter4_d_1707_12123" x="47.8836" y="16.4577" width="41.913" height="41.9132" filterUnits="userSpaceOnUse" color-interpolation-filters="sRGB">
<feFlood flood-opacity="0" result="BackgroundImageFix"/>
<feColorMatrix in="SourceAlpha" type="matrix" values="0 0 0 0 0 0 0 0 0 0 0 0 0 0 0 0 0 0 127 0" result="hardAlpha"/>
<feOffset/>
<feGaussianBlur stdDeviation="2.51085"/>
<feComposite in2="hardAlpha" operator="out"/>
<feColorMatrix type="matrix" values="0 0 0 0 0.407843 0 0 0 0 0.654902 0 0 0 0 0.956863 0 0 0 0.5 0"/>
<feBlend mode="normal" in2="BackgroundImageFix" result="effect1_dropShadow_1707_12123"/>
<feBlend mode="normal" in="SourceGraphic" in2="effect1_dropShadow_1707_12123" result="shape"/>
</filter>
<filter id="filter5_d_1707_12123" x="58.2547" y="26.8287" width="21.1712" height="21.1711" filterUnits="userSpaceOnUse" color-interpolation-filters="sRGB">
<feFlood flood-opacity="0" result="BackgroundImageFix"/>
<feColorMatrix in="SourceAlpha" type="matrix" values="0 0 0 0 0 0 0 0 0 0 0 0 0 0 0 0 0 0 127 0" result="hardAlpha"/>
<feOffset/>
<feGaussianBlur stdDeviation="1.27132"/>
<feComposite in2="hardAlpha" operator="out"/>
<feColorMatrix type="matrix" values="0 0 0 0 1 0 0 0 0 1 0 0 0 0 1 0 0 0 0.25 0"/>
<feBlend mode="normal" in2="BackgroundImageFix" result="effect1_dropShadow_1707_12123"/>
<feBlend mode="normal" in="SourceGraphic" in2="effect1_dropShadow_1707_12123" result="shape"/>
</filter>
<filter id="filter6_d_1707_12123" x="9.40299" y="16.8391" width="46.2355" height="46.2357" filterUnits="userSpaceOnUse" color-interpolation-filters="sRGB">
<feFlood flood-opacity="0" result="BackgroundImageFix"/>
<feColorMatrix in="SourceAlpha" type="matrix" values="0 0 0 0 0 0 0 0 0 0 0 0 0 0 0 0 0 0 127 0" result="hardAlpha"/>
<feOffset dy="2.54264"/>
<feGaussianBlur stdDeviation="3.59147"/>
<feComposite in2="hardAlpha" operator="out"/>
<feColorMatrix type="matrix" values="0 0 0 0 0.517647 0 0 0 0 0.729412 0 0 0 0 0.988235 0 0 0 0.15 0"/>
<feBlend mode="normal" in2="BackgroundImageFix" result="effect1_dropShadow_1707_12123"/>
<feBlend mode="normal" in="SourceGraphic" in2="effect1_dropShadow_1707_12123" result="shape"/>
</filter>
<filter id="filter7_d_1707_12123" x="118.361" y="16.839" width="46.2355" height="46.2357" filterUnits="userSpaceOnUse" color-interpolation-filters="sRGB">
<feFlood flood-opacity="0" result="BackgroundImageFix"/>
<feColorMatrix in="SourceAlpha" type="matrix" values="0 0 0 0 0 0 0 0 0 0 0 0 0 0 0 0 0 0 127 0" result="hardAlpha"/>
<feOffset dy="2.54264"/>
<feGaussianBlur stdDeviation="3.59147"/>
<feComposite in2="hardAlpha" operator="out"/>
<feColorMatrix type="matrix" values="0 0 0 0 0.517647 0 0 0 0 0.729412 0 0 0 0 0.988235 0 0 0 0.15 0"/>
<feBlend mode="normal" in2="BackgroundImageFix" result="effect1_dropShadow_1707_12123"/>
<feBlend mode="normal" in="SourceGraphic" in2="effect1_dropShadow_1707_12123" result="shape"/>
</filter>
<radialGradient id="paint0_radial_1707_12123" cx="0" cy="0" r="1" gradientUnits="userSpaceOnUse" gradientTransform="translate(142.073 51.7406) rotate(90) scale(24.1746 26.9269)">
<stop stop-color="#68A7F4"/>
<stop offset="1" stop-color="#D5E7FE"/>
</radialGradient>
<radialGradient id="paint1_radial_1707_12123" cx="0" cy="0" r="1" gradientUnits="userSpaceOnUse" gradientTransform="translate(105.16 37.4143) rotate(90) scale(19.8031)">
<stop offset="0.535" stop-color="white" stop-opacity="0"/>
<stop offset="1" stop-color="white"/>
</radialGradient>
<linearGradient id="paint2_linear_1707_12123" x1="68.8402" y1="17.6112" x2="68.8402" y2="57.2174" gradientUnits="userSpaceOnUse">
<stop stop-color="#8EC1FF"/>
<stop offset="1" stop-color="#68A7F4"/>
</linearGradient>
<radialGradient id="paint3_radial_1707_12123" cx="0" cy="0" r="1" gradientUnits="userSpaceOnUse" gradientTransform="translate(32.5208 37.4143) rotate(90) scale(19.8031)">
<stop offset="0.535" stop-color="white" stop-opacity="0"/>
<stop offset="1" stop-color="white"/>
</radialGradient>
<radialGradient id="paint4_radial_1707_12123" cx="0" cy="0" r="1" gradientUnits="userSpaceOnUse" gradientTransform="translate(141.479 37.4142) rotate(90) scale(19.8031)">
<stop offset="0.535" stop-color="white" stop-opacity="0"/>
<stop offset="1" stop-color="white"/>
</radialGradient>
<linearGradient id="paint5_linear_1707_12123" x1="95.8979" y1="75.8623" x2="95.8979" y2="47.5889" gradientUnits="userSpaceOnUse">
<stop stop-color="white"/>
<stop offset="1" stop-color="white" stop-opacity="0"/>
</linearGradient>
<clipPath id="clip0_1707_12123">
<rect x="5" y="5" width="162.5" height="75.6434" rx="3.17829" fill="white"/>
</clipPath>
<clipPath id="clip1_1707_12123">
<rect width="19.303" height="19.303" fill="white" transform="translate(59.189 27.7628)"/>
</clipPath>
</defs>
</svg>
