<svg width="135" height="45" viewBox="0 0 135 45" fill="none" xmlns="http://www.w3.org/2000/svg">
<g clip-path="url(#clip0_5_2)">
<path d="M129.557 24.8056C128.551 26.6705 127.318 28.2486 127.318 28.2486C123.1 25.9789 121.836 26.2991 117.236 27.5671C117.168 27.5851 117.1 27.603 117.033 27.6235C116.713 27.7106 116.375 27.8054 116.019 27.9002C115.267 28.1051 114.432 28.328 113.499 28.5611C112.302 28.8583 111.179 29.2041 110.089 29.5909L110.029 29.3117L109.738 27.9796L115.036 19.2414C115.462 19.1415 115.886 19.0467 116.31 18.9545C116.552 18.9007 116.794 18.8495 117.033 18.8008C117.1 18.7854 117.168 18.77 117.236 18.7572C121.183 17.9503 124.889 17.5686 127.893 18.3935C127.908 18.3986 127.921 18.4011 127.937 18.4063L129.557 24.8056Z" fill="#315A8C"/>
<path d="M117.033 18.8008V27.6235C116.713 27.7106 116.375 27.8054 116.019 27.9002C115.267 28.1051 114.432 28.328 113.499 28.5611C112.302 28.8583 111.179 29.2041 110.089 29.5909L110.029 29.3117L109.738 27.9796L115.036 19.2414C115.462 19.1415 115.886 19.0467 116.31 18.9545C116.552 18.9007 116.794 18.8495 117.033 18.8008Z" fill="#1A3352"/>
<path d="M133.169 8.75867C133.169 8.75867 133.037 9.09426 132.795 9.16343C129.346 10.1523 126.304 11.4511 123.139 13.439C120.936 14.8224 118.957 16.3748 117.236 18.0271C117.168 18.0937 117.1 18.1578 117.033 18.227C116.786 18.4652 116.544 18.7086 116.31 18.9545C113.158 22.2259 110.989 25.8405 110.029 29.3117C110.014 29.3604 110.001 29.4065 109.988 29.4552C109.988 29.4552 107.868 25.8815 107.601 22.6665C107.601 22.6563 107.601 22.646 107.601 22.6358C107.689 22.5563 107.78 22.4821 107.874 22.4129C107.874 22.4129 107.875 22.4129 107.879 22.4129C108.537 21.9287 109.338 21.7084 110.172 21.7084C110.331 21.7084 110.464 21.734 110.622 21.734L110.674 21.442L110.862 20.4019C110.651 20.3737 110.412 20.3481 110.172 20.3481C109.223 20.3481 108.373 20.5992 107.65 21.05C107.663 20.968 107.679 20.8886 107.697 20.8067C107.712 20.7349 107.728 20.6632 107.746 20.594C108.768 16.7821 111.252 12.7909 114.898 9.26078C115.116 9.05071 115.337 8.84064 115.563 8.63314C117.147 7.17806 118.931 5.81264 120.897 4.57786C124.065 2.58993 127.357 1.16559 130.553 0.302275C138.695 -1.89572 133.172 8.76123 133.172 8.76123L133.169 8.75867Z" fill="#68A7F4"/>
<path d="M130.189 27.2316C129.151 27.7516 128.119 28.328 127.074 28.9838C120.14 33.3337 115.433 39.3615 113.92 45C113.92 45 112.95 43.3605 112.24 41.3034C112.061 40.7884 111.899 40.2505 111.774 39.7023C111.494 38.4777 111.39 37.2173 111.678 36.1363C112.412 33.4054 113.894 30.5798 116.019 27.9002C116.338 27.4903 116.679 27.0856 117.033 26.6859C117.1 26.6091 117.168 26.5348 117.236 26.4579C119.308 24.1472 121.867 21.98 124.829 20.1201C125.838 19.4848 126.865 18.9135 127.893 18.3935C127.911 18.3858 127.926 18.3755 127.945 18.3679L130.189 27.2316Z" fill="#68A7F4"/>
<path d="M117.033 12.4758V18.227C116.786 18.4652 116.544 18.7086 116.31 18.9545C113.158 22.2259 110.989 25.8405 110.029 29.3117C110.014 29.3604 110.001 29.4065 109.988 29.4552C109.988 29.4552 107.868 25.8815 107.601 22.6665C107.601 22.6563 107.601 22.646 107.601 22.6358C107.689 22.5564 107.78 22.4821 107.874 22.4129C107.874 22.4129 107.875 22.4129 107.879 22.4129C108.537 21.9287 109.338 21.7084 110.172 21.7084C110.331 21.7084 110.464 21.734 110.622 21.734L110.674 21.442L110.862 20.4019C110.651 20.3737 110.412 20.3481 110.172 20.3481C109.223 20.3481 108.373 20.5992 107.65 21.05C107.663 20.9681 107.679 20.8886 107.697 20.8067C107.712 20.7349 107.728 20.6632 107.746 20.594C108.768 16.7821 111.252 12.7909 114.898 9.26078C115.116 9.05072 115.337 8.84065 115.563 8.63315C116.481 9.65786 117.035 11.0053 117.035 12.4784L117.033 12.4758Z" fill="#4A87D1"/>
<path d="M117.033 26.6859V35.5752C117.033 38.4162 114.971 40.7859 112.24 41.3034C112.061 40.7884 111.899 40.2505 111.774 39.7023C111.494 38.4777 111.39 37.2173 111.678 36.1363C112.412 33.4054 113.894 30.5798 116.019 27.9002C116.338 27.4903 116.679 27.0855 117.033 26.6859Z" fill="#4A87D1"/>
<path d="M26.5101 31.9478C26.5101 32.7086 25.8573 33.2159 24.9081 33.2159C22.7393 33.2159 20.833 31.1075 20.833 27.7055V22.6614C20.833 22.377 21.0697 22.1413 21.361 22.1413H23.6911C23.9797 22.1413 24.219 22.377 24.219 22.6614V27.4852C24.219 28.8609 24.5544 29.6063 25.293 30.3749C25.7637 30.8642 26.5101 31.1997 26.5101 31.9452M22.526 16.6668C21.3818 16.6668 20.4534 17.5814 20.4534 18.7086C20.4534 19.8357 21.3818 20.7503 22.526 20.7503C23.6703 20.7503 24.5987 19.8357 24.5987 18.7086C24.5987 17.5814 23.6703 16.6668 22.526 16.6668Z" fill="black"/>
<path d="M6.00472 24.7134C4.31176 24.7134 3.30794 25.9532 3.30794 27.4852C3.30794 29.0171 4.31176 30.257 6.00472 30.257C7.69768 30.257 8.68849 29.0171 8.68849 27.4852C8.68849 25.9532 7.66387 24.7134 6.00472 24.7134ZM12.2174 29.4526C12.6153 30.754 13.3747 30.9615 13.3747 31.958C13.3747 32.6702 12.7948 33.2159 11.791 33.2159C10.0772 33.2159 9.42705 31.9913 9.31523 31.7582C9.15659 31.9555 8.06436 33.2159 5.57043 33.2159C2.32493 33.2159 0.00263977 30.859 0.00263977 27.4596C0.00263977 24.347 2.08048 21.752 5.57043 21.752C7.60926 21.752 8.64688 22.8484 8.87833 23.0841V22.6819C8.87833 22.3514 9.12018 22.1388 9.41665 22.1388H11.4399C11.7832 22.1388 11.9938 22.3873 11.9938 22.6793V27.8259C11.9938 28.5048 12.0848 29.0274 12.2148 29.4501" fill="black"/>
<path d="M18.8514 30.3774C18.1129 29.6115 17.9386 28.6995 17.9386 27.4878V15.1861C17.9386 14.9018 17.702 14.6661 17.4107 14.6661H15.0806C14.7894 14.6661 14.5527 14.8992 14.5527 15.1861V27.7055C14.5527 31.1075 16.2977 33.2159 18.4665 33.2159C19.4183 33.2159 20.0711 32.7086 20.0711 31.9478C20.0711 31.1869 19.3247 30.8642 18.854 30.3774" fill="black"/>
<path d="M32.4627 33.2159C30.8634 33.2159 29.8752 32.5498 29.225 30.9871C28.6659 29.6422 26.3462 23.8424 25.9795 22.915C25.9353 22.8048 25.8781 22.6588 25.8781 22.5307C25.8781 22.2848 26.0628 22.1388 26.3514 22.1388H28.6997C29.069 22.1388 29.3317 22.2208 29.4669 22.5692C29.6125 22.9483 32.4341 30.3211 32.4341 30.3211C33.1727 29.7857 33.4613 28.8276 33.4613 27.4826V22.6588C33.4613 22.3719 33.698 22.1362 33.9892 22.1362H36.2413C36.53 22.1362 36.7692 22.3719 36.7692 22.6588V27.4852C36.7692 30.4645 35.2453 33.2133 32.4653 33.2133" fill="black"/>
<path d="M75.7698 20.1918C73.7699 20.1918 72.0042 21.9543 72.0042 24.365C72.0042 26.7756 73.7699 28.5381 75.7698 28.5381C77.7696 28.5381 79.5354 26.7756 79.5354 24.365C79.5354 21.9543 77.7696 20.1918 75.7698 20.1918Z" fill="#68A7F4"/>
<path d="M64.2363 20.1918C62.2365 20.1918 60.4707 21.9543 60.4707 24.365C60.4707 26.7756 62.2365 28.5381 64.2363 28.5381C66.2361 28.5381 68.0019 26.7756 68.0019 24.365C68.0019 21.9543 66.2361 20.1918 64.2363 20.1918Z" fill="#68A7F4"/>
<path d="M110.264 9.9704H43.4189C40.7741 9.9704 38.6312 12.0813 38.6312 14.6866V33.3645C38.6312 35.9698 40.7741 38.0832 43.4189 38.0832H110.264C112.908 38.0832 115.051 35.9698 115.051 33.3645V14.6866C115.051 12.0813 112.908 9.9704 110.264 9.9704ZM53.4076 29.5833C51.1711 29.5833 49.759 28.1922 49.642 26.4528H50.7004C50.9605 27.7516 51.7354 28.5406 53.4076 28.5406C54.9367 28.5406 55.8807 27.6133 55.8807 26.5706C55.8807 23.7425 49.8786 25.6433 49.8786 21.9339C49.8786 20.4275 51.1503 19.1518 53.2932 19.1518C55.293 19.1518 56.7077 20.5428 56.8247 22.0517H55.7663C55.5062 21.0091 54.7079 20.197 53.2932 20.197C51.764 20.197 50.9397 21.0091 50.9397 21.9364C50.9397 24.6263 56.9417 22.6793 56.9417 26.5732C56.9417 28.1743 55.5296 29.5884 53.4102 29.5884L53.4076 29.5833ZM64.2363 29.5833C63.0348 29.5833 62.1637 29.1196 61.5759 28.6559C61.2223 28.3767 60.9414 28.077 60.7047 27.7286H60.5877V33.1774H59.5293V19.2645H60.2367L60.5903 21.0039H60.7073C60.944 20.6555 61.2249 20.3532 61.5785 20.0766C62.1663 19.6129 63.0374 19.1492 64.2389 19.1492C66.9461 19.1492 69.0655 21.3523 69.0655 24.3675C69.0655 27.3827 66.9461 29.5858 64.2389 29.5858L64.2363 29.5833ZM75.7698 29.5833C73.0626 29.5833 70.9431 27.3802 70.9431 24.365C70.9431 21.3498 73.0626 19.1466 75.7698 19.1466C78.4769 19.1466 80.5964 21.3498 80.5964 24.365C80.5964 27.3802 78.4769 29.5833 75.7698 29.5833ZM88.1276 20.1918H87.5399C85.54 20.1918 84.245 21.4446 84.245 23.5554V29.468H83.1865V19.2645H83.8939L84.2476 20.7708H84.3646C84.5518 20.4685 84.8119 20.2149 85.1188 19.9587C85.6597 19.5642 86.4606 19.1466 87.6621 19.1466H88.1328V20.1893L88.1276 20.1918ZM94.7434 20.3071H92.1533V26.5681C92.1533 27.9591 92.9776 28.5381 94.0361 28.5381C94.2233 28.5381 94.3897 28.515 94.5536 28.492L94.7408 28.4228V29.3502C94.6706 29.3963 94.577 29.4424 94.4808 29.4654C94.2935 29.5346 94.0569 29.5807 93.7994 29.5807C92.2703 29.5807 91.0922 28.4202 91.0922 26.5655V20.3046H89.0924V19.2619H90.0338C90.8114 19.2619 91.2119 18.8674 91.2119 18.1014V16.2467H92.1533V19.2619H94.7434V20.3046V20.3071ZM100.511 29.5833C98.275 29.5833 96.8629 28.1922 96.7458 26.4528H97.8043C98.0643 27.7516 98.8393 28.5406 100.511 28.5406C102.041 28.5406 102.985 27.6133 102.985 26.5706C102.985 23.7425 96.9825 25.6433 96.9825 21.9339C96.9825 20.4275 98.2542 19.1518 100.397 19.1518C102.397 19.1518 103.812 20.5428 103.929 22.0517H102.87C102.61 21.0091 101.812 20.197 100.397 20.197C98.8679 20.197 98.0435 21.0091 98.0435 21.9364C98.0435 24.6263 104.046 22.6793 104.046 26.5732C104.046 28.1743 102.633 29.5884 100.514 29.5884L100.511 29.5833Z" fill="#68A7F4"/>
</g>
<defs>
<clipPath id="clip0_5_2">
<rect width="135" height="45" fill="white"/>
</clipPath>
</defs>
</svg>
