<svg width="33" height="27" viewBox="0 0 33 27" fill="none" xmlns="http://www.w3.org/2000/svg">
<path d="M10.0038 6.11854L14.465 4.46818L17.1056 11.6062L12.6444 13.2566L10.0038 6.11854Z" fill="#F9CF58"/>
<path d="M21.6037 1.82666L26.065 0.17627L28.7056 7.31431L24.2443 8.9647L21.6037 1.82666Z" fill="#F9CF58"/>
<path d="M0.5 20.7982H3.35369V24.6031H0.5V20.7982Z" fill="#F9CF58"/>
<path d="M24.2808 20.7982H27.1028V24.6031H24.2808V20.7982Z" fill="#F9CF58"/>
<path d="M16.2498 3.80744L19.8188 2.48716L22.4594 9.6252L18.8905 10.9455L16.2498 3.80744Z" fill="#F9CF58"/>
<path d="M6.1928 9.52163L7.51375 13.09L10.1961 12.1167L8.87509 8.54839L6.1928 9.52163Z" fill="#F9CF58"/>
<path d="M31.1785 0.297852L28.5039 1.29202L29.8249 4.86047L32.5 3.86624L31.1785 0.297852Z" fill="#F9CF58"/>
<path d="M5.25616 18.8957H10.0123V26.5056H5.25616V18.8957Z" fill="#F9CF58"/>
<path d="M11.9148 18.8957H15.7197V26.5056H11.9148V18.8957Z" fill="#F9CF58"/>
<path d="M17.6222 18.8957H22.3783V26.5056H17.6222V18.8957Z" fill="#F9CF58"/>
</svg>
