<svg width="44" height="44" viewBox="0 0 44 44" fill="none" xmlns="http://www.w3.org/2000/svg">
<rect x="0.5" y="0.5" width="43" height="43" rx="4.5" fill="#F6F6F6"/>
<rect x="0.5" y="0.5" width="43" height="43" rx="4.5" stroke="#F8EFEF"/>
<path d="M12.4 15.4C12.4 15.0687 12.6686 14.8 13 14.8H31C31.3314 14.8 31.6 15.0687 31.6 15.4C31.6 15.7314 31.3314 16 31 16H13C12.6686 16 12.4 15.7314 12.4 15.4ZM12.4 21.4C12.4 21.0687 12.6686 20.8 13 20.8H31C31.3314 20.8 31.6 21.0687 31.6 21.4C31.6 21.7314 31.3314 22 31 22H13C12.6686 22 12.4 21.7314 12.4 21.4ZM13 26.8C12.6686 26.8 12.4 27.0687 12.4 27.4C12.4 27.7314 12.6686 28 13 28H31C31.3314 28 31.6 27.7314 31.6 27.4C31.6 27.0687 31.3314 26.8 31 26.8H13Z" fill="#8A8A8A"/>
<path fill-rule="evenodd" clip-rule="evenodd" d="M13 14.95C12.7515 14.95 12.55 15.1515 12.55 15.4C12.55 15.6486 12.7515 15.85 13 15.85H31C31.2485 15.85 31.45 15.6486 31.45 15.4C31.45 15.1515 31.2485 14.95 31 14.95H13ZM12.25 15.4C12.25 14.9858 12.5858 14.65 13 14.65H31C31.4142 14.65 31.75 14.9858 31.75 15.4C31.75 15.8142 31.4142 16.15 31 16.15H13C12.5858 16.15 12.25 15.8142 12.25 15.4ZM13 20.95C12.7515 20.95 12.55 21.1515 12.55 21.4C12.55 21.6486 12.7515 21.85 13 21.85H31C31.2485 21.85 31.45 21.6486 31.45 21.4C31.45 21.1515 31.2485 20.95 31 20.95H13ZM12.25 21.4C12.25 20.9858 12.5858 20.65 13 20.65H31C31.4142 20.65 31.75 20.9858 31.75 21.4C31.75 21.8142 31.4142 22.15 31 22.15H13C12.5858 22.15 12.25 21.8142 12.25 21.4ZM12.25 27.4C12.25 26.9858 12.5858 26.65 13 26.65H31C31.4142 26.65 31.75 26.9858 31.75 27.4C31.75 27.8142 31.4142 28.15 31 28.15H13C12.5858 28.15 12.25 27.8142 12.25 27.4ZM13 26.95C12.7515 26.95 12.55 27.1515 12.55 27.4C12.55 27.6486 12.7515 27.85 13 27.85H31C31.2485 27.85 31.45 27.6486 31.45 27.4C31.45 27.1515 31.2485 26.95 31 26.95H13Z" fill="#8A8A8A"/>
</svg>
