<svg width="40" height="40" viewBox="0 0 40 40" fill="none" xmlns="http://www.w3.org/2000/svg">
<g clip-path="url(#clip0_2333_29024)">
<path d="M27.8739 10.2711C27.4981 9.90962 26.8904 9.90962 26.5145 10.2711C26.1387 10.6327 26.1387 11.2172 26.5145 11.5788L28.719 13.7003H7.96265C7.43187 13.6993 7 14.1147 7 14.6242C7 15.1337 7.43077 15.5492 7.96155 15.5492H28.719L26.5145 17.6697C26.1387 18.0312 26.1387 18.6158 26.5145 18.9773C26.7014 19.1581 26.9486 19.249 27.1937 19.249C27.4387 19.249 27.686 19.1581 27.8739 18.9784L31.7201 15.2786C32.0959 14.917 32.0959 14.3325 31.7201 13.971L27.8739 10.2711Z" fill="#68A7F4"/>
<path opacity="0.35" d="M31.0403 24.7999H10.284L12.4884 22.6793C12.8642 22.3178 12.8642 21.7333 12.4884 21.3717C12.1126 21.0102 11.5049 21.0102 11.1291 21.3717L7.28285 25.0705C6.90702 25.432 6.90702 26.0166 7.28285 26.3781L11.1291 30.0779C11.317 30.2576 11.5631 30.3485 11.8093 30.3485C12.0554 30.3485 12.3016 30.2576 12.4895 30.0779C12.8653 29.7164 12.8653 29.1318 12.4895 28.7703L10.284 26.6487H31.0403C31.5722 26.6487 32.0019 26.2354 32.0019 25.7238C32.0019 25.2121 31.5722 24.7988 31.0403 24.7988V24.7999Z" fill="#68A7F4"/>
</g>
<defs>
<clipPath id="clip0_2333_29024">
<rect width="25.0014" height="20.35" fill="white" transform="translate(7 10)"/>
</clipPath>
</defs>
</svg>
