<svg width="35" height="20" viewBox="0 0 35 20" fill="none" xmlns="http://www.w3.org/2000/svg">
<path d="M2.04305 0H6.70654C7.83839 0 8.74959 0.917942 8.74959 2.05817V17.9418C8.74959 19.0821 7.83839 20 6.70654 20H2.04305C0.911201 20 0 19.0821 0 17.9418V2.05817C0 0.917942 0.911201 0 2.04305 0Z" fill="white"/>
<path d="M5.54805 3.66597L5.55454 3.73362C5.69524 3.81738 5.76879 3.88503 5.91265 3.97845C6.28999 4.22006 6.75376 4.64852 6.69616 6.12074C6.80484 6.44288 6.85285 7.07107 6.94879 7.2708C7.1439 7.66704 7.27816 7.92476 7.33572 8.29523C7.33572 8.29523 7.39333 8.8751 7.46683 8.91698C7.85692 9.00718 7.74509 9.04584 7.79941 9.11671C7.86012 9.19402 8.08717 9.1908 8.08717 9.40342C8.16716 9.50973 8.22792 9.61604 8.26944 9.73201V2.07456C8.26944 1.19832 7.56592 0.489594 6.69927 0.489594H5.19945C5.43928 0.576573 5.57679 0.679661 5.65678 0.840734C5.84856 0.856842 6.07574 1.29174 5.72069 1.93926C5.87734 2.04879 5.75582 2.20986 5.6439 2.39349C5.60872 2.45147 5.57355 2.55778 5.46802 2.55134C5.32731 2.84449 5.16418 3.12154 5.03955 3.13765C5.00442 3.18275 4.97875 3.30839 5.03311 3.36637C5.21552 3.45013 5.43608 3.55966 5.54805 3.66597Z" fill="#C80F2E"/>
<path d="M6.94862 19.4899L6.93268 19.4931C7.62016 19.0711 7.19485 18.2722 7.06379 17.8019L7.08932 17.7213C7.1245 17.6568 7.05099 17.5055 7.05099 17.5055C6.9647 17.4346 6.94547 17.0416 6.90065 16.8612C6.82719 16.5681 7.03176 16.0558 7.03176 15.8819C7.03176 15.7078 6.90065 15.4695 6.66406 15.1667C6.60645 15.0991 6.43377 13.614 6.28028 13.2371C6.06602 12.7184 6.00202 12.8021 5.74628 12.1804C5.55117 11.7455 5.70467 11.1044 5.26341 9.61612L5.3625 9.52269C5.3625 9.52269 5.01074 8.22766 4.89557 7.8733C4.78361 7.51894 4.57584 7.49639 4.57584 7.49639L4.58858 7.31276C4.60462 7.258 5.01709 6.1788 5.05227 6.14337C5.05542 6.12082 5.64706 5.71169 5.65661 5.7729C5.70453 6.03706 5.93482 7.38041 6.03391 7.59303C6.13304 7.80887 6.4753 8.46605 6.63195 8.87518C6.02116 9.02659 5.56383 9.5839 5.56383 10.2443C5.56383 11.0239 6.19065 11.6585 6.96452 11.6585C7.55603 11.6585 8.06777 11.2881 8.27238 10.7662L8.26919 17.9276C8.26932 18.72 7.70331 19.3739 6.94862 19.4899Z" fill="#C80F2E"/>
<path d="M4.70704 0.489594C4.19538 0.689325 4.12503 0.911607 4.10589 1.62677C4.01955 1.63644 3.84043 1.55268 3.90123 1.98758C3.90123 1.98758 3.93321 2.27751 4.04833 2.22919C3.95879 2.8606 4.02994 3.01863 3.61347 3.06355C3.52393 3.07322 3.41516 3.07966 3.2809 3.0861L3.23932 3.14409C2.67011 3.19886 2.38817 3.16221 2.02091 3.64986C1.88021 3.83671 1.72991 4.10087 1.54443 4.47778C1.54443 4.47778 1.37495 4.89979 1.32374 5.07375C1.16065 5.41845 0.760924 6.18194 0.642604 6.67161C0.604275 6.83912 0.53068 6.89067 0.636209 7.13228C0.792902 7.4802 0.533878 7.5704 1.42287 7.54463V7.7508C1.42287 7.7508 1.18623 7.95698 1.13507 8.07939C1.0871 8.20503 0.949595 8.82033 0.956035 9.11349C0.97198 9.87698 1.5892 10.5148 1.77144 11.2751L2.18395 11.3331C2.4078 11.8518 3.38633 13.2498 3.61342 13.4754C3.61662 13.4786 3.61982 13.4819 3.62302 13.4851C3.67414 13.6171 3.92681 13.7814 4.07387 13.9457C4.16345 14.0327 4.57601 14.4837 5.12599 14.9122C5.3279 15.0695 5.545 15.2247 5.77195 15.3568C5.76556 15.3535 5.90626 15.6371 5.97661 15.869C5.69521 16.0976 6.24203 16.5165 6.40832 17.2091C6.41791 17.3025 6.24839 17.396 6.50106 17.6247C6.48507 18.6716 6.16853 19.2193 6.69932 19.5092H2.02091C1.17033 19.4899 0.482758 18.7876 0.482758 17.9274V2.07456C0.482758 1.20798 1.17029 0.508922 2.02091 0.489594H4.70704Z" fill="#1D4289"/>
<path fill-rule="evenodd" clip-rule="evenodd" d="M11.1033 0.480469V19.487H13.1425C13.1478 14.5923 13.258 9.6779 12.959 4.84049L15.3099 19.487H18.2357V0.480469H16.2166C16.1755 5.51989 16.3531 10.4889 16.6923 15.4059L14.2495 0.480469H11.1033Z" fill="#1D4289"/>
<path fill-rule="evenodd" clip-rule="evenodd" d="M28.7799 0.467285L26.7757 19.4898H29.2693L29.5956 15.6433H31.2269L31.5532 19.4898H34.0352L32.0892 0.467285H28.7799ZM30.4112 5.83665L31.0405 13.4115H29.782L30.4112 5.83665Z" fill="#1D4289"/>
<path d="M19.8078 0.480326V19.4766H23.455C24.0528 19.4766 26.0885 18.9503 26.0885 16.3127V12.5187C26.0885 12.119 26.0918 10.8658 25.0048 10.1294C25.684 10.1294 26.0885 8.80195 26.0885 7.59571V3.52603C26.0885 1.94036 25.1087 0.476011 23.1404 0.480326H19.8078ZM22.0567 2.90901H23.1637C23.6708 2.90901 23.8395 3.47299 23.8395 3.90674V8.33088C23.8395 9.08764 23.5926 9.14482 23.0821 9.14482H22.0567V2.90901ZM22.0567 11.219H23.1637C23.6708 11.219 23.8395 11.783 23.8395 12.2168V16.1683C23.8395 16.6832 23.5847 17.0741 23.0821 17.0741L22.0567 17.0872V11.219Z" fill="#1D4289"/>
</svg>
