<svg width="24" height="25" viewBox="0 0 24 25" fill="none" xmlns="http://www.w3.org/2000/svg">
<path d="M13.2673 4.70926C12.9674 4.42357 12.4926 4.43511 12.2069 4.73504C11.9213 5.03497 11.9328 5.5097 12.2327 5.79539L18.4841 11.75H3.75C3.33579 11.75 3 12.0858 3 12.5C3 12.9142 3.33579 13.25 3.75 13.25H18.4842L12.2327 19.2047C11.9328 19.4904 11.9213 19.9651 12.2069 20.2651C12.4926 20.565 12.9674 20.5765 13.2673 20.2908L20.6862 13.2241C20.8551 13.0632 20.9551 12.858 20.9861 12.6446C20.9952 12.5978 21 12.5495 21 12.5C21 12.4504 20.9952 12.402 20.986 12.3551C20.955 12.1419 20.855 11.9368 20.6862 11.776L13.2673 4.70926Z" fill="white"/>
</svg>
