<svg width="83" height="82" viewBox="0 0 83 82" fill="none" xmlns="http://www.w3.org/2000/svg">
<path d="M50.9095 34.1667C54.2117 34.1667 56.8887 36.8436 56.8887 40.1458V56.3714C56.8887 64.8648 50.0034 71.75 41.5101 71.75C33.0167 71.75 26.1315 64.8648 26.1315 56.3714V40.1458C26.1315 36.8436 28.8085 34.1667 32.1107 34.1667H50.9095ZM50.9095 39.2917H32.1107C31.6389 39.2917 31.2565 39.6741 31.2565 40.1458V56.3714C31.2565 62.0343 35.8472 66.625 41.5101 66.625C47.173 66.625 51.7637 62.0343 51.7637 56.3714V40.1458C51.7637 39.6741 51.3812 39.2917 50.9095 39.2917ZM13.3124 34.1667L24.8651 34.1635C23.6919 35.5828 22.9277 37.3526 22.7531 39.2923L13.3124 39.2917C12.8407 39.2917 12.4583 39.6741 12.4583 40.1458V51.2458C12.4583 55.9655 16.2844 59.7917 21.0042 59.7917C21.6875 59.7917 22.352 59.7115 22.989 59.56C23.2784 61.2817 23.8069 62.9238 24.5357 64.4521C23.4113 64.7563 22.2265 64.9167 21.0042 64.9167C13.4539 64.9167 7.33325 58.796 7.33325 51.2458V40.1458C7.33325 36.8436 10.0102 34.1667 13.3124 34.1667ZM58.155 34.1635L69.6874 34.1667C72.9896 34.1667 75.6666 36.8436 75.6666 40.1458V51.25C75.6666 58.7979 69.5478 64.9167 61.9999 64.9167C60.7821 64.9167 59.6015 64.7574 58.4778 64.4585C59.212 62.9273 59.7409 61.2852 60.0354 59.5631C60.6646 59.7129 61.323 59.7917 61.9999 59.7917C66.7174 59.7917 70.5416 55.9674 70.5416 51.25V40.1458C70.5416 39.6741 70.1592 39.2917 69.6874 39.2917L60.2671 39.2923C60.0924 37.3526 59.3282 35.5828 58.155 34.1635ZM41.4999 10.25C47.1608 10.25 51.7499 14.8391 51.7499 20.5C51.7499 26.1609 47.1608 30.75 41.4999 30.75C35.839 30.75 31.2499 26.1609 31.2499 20.5C31.2499 14.8391 35.839 10.25 41.4999 10.25ZM63.7082 13.6667C68.4257 13.6667 72.2499 17.4909 72.2499 22.2083C72.2499 26.9258 68.4257 30.75 63.7082 30.75C58.9908 30.75 55.1666 26.9258 55.1666 22.2083C55.1666 17.4909 58.9908 13.6667 63.7082 13.6667ZM19.2916 13.6667C24.009 13.6667 27.8333 17.4909 27.8333 22.2083C27.8333 26.9258 24.009 30.75 19.2916 30.75C14.5742 30.75 10.7499 26.9258 10.7499 22.2083C10.7499 17.4909 14.5742 13.6667 19.2916 13.6667ZM41.4999 15.375C38.6695 15.375 36.3749 17.6695 36.3749 20.5C36.3749 23.3305 38.6695 25.625 41.4999 25.625C44.3304 25.625 46.6249 23.3305 46.6249 20.5C46.6249 17.6695 44.3304 15.375 41.4999 15.375ZM63.7082 18.7917C61.8213 18.7917 60.2916 20.3214 60.2916 22.2083C60.2916 24.0953 61.8213 25.625 63.7082 25.625C65.5952 25.625 67.1249 24.0953 67.1249 22.2083C67.1249 20.3214 65.5952 18.7917 63.7082 18.7917ZM19.2916 18.7917C17.4046 18.7917 15.8749 20.3214 15.8749 22.2083C15.8749 24.0953 17.4046 25.625 19.2916 25.625C21.1786 25.625 22.7083 24.0953 22.7083 22.2083C22.7083 20.3214 21.1786 18.7917 19.2916 18.7917Z" fill="#68A7F4"/>
</svg>
