<svg width="19" height="23" viewBox="0 0 19 23" fill="none" xmlns="http://www.w3.org/2000/svg">
<g clip-path="url(#clip0_2228_22543)">
<path d="M10.0537 10.3908V9.89978H8.58779V10.3908C5.56624 10.7676 3.22363 13.4326 3.22363 16.6711C3.22363 20.1678 5.95362 23 9.3197 23C12.6858 23 15.4158 20.1658 15.4158 16.6711C15.4158 13.4326 13.0732 10.7676 10.0517 10.3908H10.0537ZM11.5115 20.17L9.3197 18.5062L7.13002 20.17L7.97614 17.4924L5.77421 15.8435L8.48789 15.8519L9.31769 13.1701L10.1495 15.8519L12.8632 15.8435L10.6633 17.4924L11.5094 20.17H11.5115Z" fill="#68A7F4"/>
<path d="M12.6939 9.30925L18.0969 0H11.3096L5.90674 9.30925H12.6939Z" fill="#68A7F4"/>
<path d="M8.89181 2.76652L7.28724 0H0.5L5.4992 8.61285L8.89181 2.76652Z" fill="#68A7F4"/>
</g>
<defs>
<clipPath id="clip0_2228_22543">
<rect width="18" height="23" fill="white" transform="translate(0.5)"/>
</clipPath>
</defs>
</svg>
