<svg width="19" height="30" viewBox="0 0 19 30" fill="none" xmlns="http://www.w3.org/2000/svg">
<path d="M18.3852 8.73893C18.0877 7.13239 17.4975 6.82725 17.2856 6.35057C17.0738 5.87642 16.7963 6.12106 16.0801 5.37957C15.3638 4.63808 14.978 4.78436 14.978 4.78436L14.9679 4.7087C14.4659 4.80706 12.7611 4.30769 12.4584 4.25473C12.1557 4.20176 11.8808 3.88903 11.8808 3.88903C12.012 3.69231 11.959 3.03657 11.959 3.03657C12.3096 3.07188 12.4029 2.47163 12.3777 2.1488C12.355 1.82346 12.2516 1.95208 12.2516 1.95208C12.2516 1.95208 12.4079 1.32661 12.1381 1.01135C11.8682 0.696089 11.6513 0.00252154 10.7055 0C9.76231 0 9.40923 0.668348 9.40923 0.668348C8.84675 0.880205 9.13174 1.94452 9.13174 1.94452C8.7812 1.9773 9.01826 2.76671 9.06114 2.96595C9.10402 3.16267 9.36635 3.17024 9.36635 3.17024C9.37891 3.91929 9.59584 4.16646 9.59584 4.16646C8.59459 4.49181 6.95268 6.10592 6.95268 6.10592C6.2667 6.38083 6.03216 7.82344 6.17339 8.35814C6.31463 8.89284 5.97667 9.58887 5.8203 10.005C5.66645 10.4212 5.71437 11.2509 5.71437 11.2509C4.87705 12.1866 4.68285 13.9697 4.67024 14.4086C4.65762 14.8474 4.75094 15.4905 4.53405 15.942C4.31967 16.3909 4.32219 16.4691 4.32219 16.4691C4.32219 16.4691 4.24148 17.14 3.9918 17.3039C3.74211 17.4678 3.70681 17.8613 3.52269 18.0277C3.3411 18.1942 3.38146 18.6129 3.38146 18.6129C3.26544 18.9357 2.7005 19.4451 3.02837 19.5208C3.33858 19.5939 3.50252 19.2509 3.52017 19.2156C3.41929 19.5511 3.67654 19.4527 3.67654 19.4527C4.0372 19.2459 4.19104 18.2926 4.19104 18.2926C4.29445 18.2799 4.71311 17.7579 4.71311 17.7579C4.84426 17.8083 5.17213 17.7201 5.17213 17.7201C5.24022 18.0302 5.78499 18.1665 5.78499 18.1665C5.78499 18.1665 6.1179 18.8474 6.08007 19.1702C6.04224 19.4931 6.28184 19.6368 6.28184 19.6368C6.28184 19.6368 6.44325 19.541 6.04981 19.9445C5.65384 20.3481 5.6034 21.4325 5.39659 21.7856C5.18978 22.1387 2.63745 26.0504 2.6324 26.3203C2.62736 26.5902 2.58701 26.5751 2.17844 26.8575C1.76986 27.1375 1.6034 27.6797 1.6034 27.6797C1.6034 27.6797 1.53782 27.4553 0.750939 28.1109C-0.0359446 28.7642 1.20743 29.3266 1.80012 29.7755C2.3928 30.2245 2.37011 29.8613 2.37011 29.8613C2.66771 29.9395 3.66897 28.0278 3.65384 27.7403C3.63871 27.4527 4.76103 26.2194 6.10782 24.9382C7.4546 23.657 7.33607 21.7251 7.71939 21.0618C8.10025 20.3985 8.68035 20.1992 8.68035 20.1992C8.67025 20.5347 8.82913 20.797 8.9678 20.8272C9.09392 20.8524 9.31589 20.6003 9.35372 20.5549C9.35625 20.5599 9.35877 20.5674 9.3613 20.575C9.44959 20.7768 9.86315 20.6734 9.95396 20.7869C10.0448 20.8978 10.0372 21.024 9.99937 21.3569C9.96154 21.6873 9.57563 22.343 10.6324 22.3808C11.6917 22.4187 11.7597 21.3064 11.8405 20.8978C11.9186 20.4918 11.7724 20.6633 12.4861 19.8689C13.1999 19.0769 12.3752 18.4313 12.1457 18.3304C11.9161 18.2295 11.901 18.4363 11.901 18.4363C11.2352 18.454 11.1948 18.8676 11.1948 18.8676C11.0057 18.8903 10.978 18.9962 10.978 18.9962C10.5895 18.7617 10.2768 18.9408 10.2768 18.8247C10.2768 18.7087 10.8619 17.7705 11.0864 17.7049C11.3108 17.6394 11.2226 17.3897 11.5378 17.2081C11.8531 17.0239 12.1305 17.1753 12.0599 16.9811C11.9893 16.7869 12.07 16.7491 12.07 16.7491C12.7232 16.4514 12.4508 15.995 12.418 15.942C12.4256 15.942 12.4382 15.9369 12.4533 15.9319C12.5542 15.8991 12.5214 15.6923 12.5214 15.6923C12.8821 15.3215 13.1091 14.2951 12.9502 14.2623C12.7913 14.2295 12.7409 14.2245 12.8796 14.0076C13.0208 13.7906 12.5618 13.3972 12.8695 12.9634C13.1772 12.5271 13.331 11.7907 13.331 11.7907C13.6589 11.43 13.6009 10.744 13.838 10.2396C14.0725 9.7352 13.9413 9.30142 13.9413 9.30142C13.9413 9.30142 14.4029 8.76925 14.5668 8.53218C14.7308 8.29259 14.7913 7.59648 14.7913 7.59648C14.7913 7.59648 14.9552 7.1526 15.2983 7.44518C15.6412 7.73768 16.249 7.78309 16.249 7.78309C16.2995 8.30515 16.8594 8.66328 17.4168 9.67716C17.9817 10.7037 17.9817 11.3291 17.9817 11.3291C17.9817 11.3291 17.9716 11.3291 17.9565 11.3342C17.9035 11.3443 17.8834 11.3821 17.7371 11.5511C17.5454 11.773 17.1292 11.6772 17.2655 11.8966C17.4017 12.1186 17.4521 12.5372 17.4521 12.5372C17.2049 12.9256 17.6538 13.3089 17.8001 13.3997C17.9464 13.4906 18.819 12.749 18.8316 12.5422C18.8443 12.3354 18.9351 12.0277 18.8897 11.3796C18.8443 10.7314 18.6753 10.3455 18.3777 8.73648L18.3852 8.73893ZM6.08259 16.1085C6.08259 16.1085 5.9464 16.2598 6.09016 16.4161C6.09016 16.4161 5.65889 16.7592 5.72698 17.0089C5.79508 17.261 5.65889 17.2485 5.74211 17.4603C5.82535 17.6721 5.77238 17.7856 5.77238 17.7856C5.77238 17.7856 5.48991 17.7528 5.48739 17.425C5.48739 17.0971 5.34111 17.0189 5.24022 16.6557C5.13934 16.2925 5.99432 15.5359 6.0725 15.0946C6.06746 15.1501 5.98928 15.9722 6.08007 16.111L6.08259 16.1085Z" fill="#EED2D2"/>
</svg>
