<svg width="45" height="45" viewBox="0 0 45 45" fill="none" xmlns="http://www.w3.org/2000/svg">
<path d="M5.12095 20.6826C4.95243 20.8365 4.81912 21.025 4.73012 21.2352C4.64112 21.4453 4.59852 21.6723 4.60524 21.9004V30.8726C4.59687 31.1025 4.63852 31.3314 4.72731 31.5436C4.81609 31.7557 4.9499 31.9461 5.11947 32.1015C5.28905 32.2569 5.49034 32.3736 5.70945 32.4436C5.92856 32.5135 6.16025 32.5351 6.3885 32.5067C7.19003 32.4384 7.99778 32.3763 8.79931 32.3203V30.6241C7.99778 30.6676 7.19003 30.7111 6.3885 30.7608V22.0122C7.19003 22.0619 7.99778 22.1054 8.79931 22.1489V20.4527C7.99778 20.3967 7.19003 20.3346 6.3885 20.2663C6.15951 20.2358 5.9266 20.2574 5.70714 20.3295C5.48767 20.4016 5.28729 20.5223 5.12095 20.6826Z" fill="#061922"/>
<path d="M10.955 20.5893C10.3585 20.552 9.76202 20.5148 9.16553 20.4713V32.2954C10.4703 32.2022 11.7752 32.1256 13.08 32.0655V30.4438C12.3717 30.4687 11.6633 30.4935 10.955 30.5246V20.5893Z" fill="#061922"/>
<path d="M13.4342 32.047C14.0431 32.016 14.652 31.9911 15.261 31.9725V20.8007L13.4342 20.7261V32.047Z" fill="#061922"/>
<path d="M18.6413 20.8938C17.6347 20.8752 16.6281 20.8441 15.6215 20.813V31.96C16.218 31.9413 16.8207 31.9227 17.4172 31.904V27.1756C17.8273 27.1756 18.2312 27.1756 18.635 27.1694C19.099 27.1793 19.5502 27.0178 19.9026 26.7158C20.0705 26.5834 20.206 26.4144 20.2986 26.2216C20.3912 26.0289 20.4385 25.8175 20.4369 25.6036V22.4845C20.4359 22.272 20.3873 22.0624 20.2949 21.871C20.2024 21.6797 20.0684 21.5114 19.9026 21.3785C19.5566 21.0665 19.1072 20.8938 18.6413 20.8938ZM18.6413 25.6036C18.2312 25.6036 17.8273 25.6036 17.4234 25.5974V22.4472C17.8335 22.4534 18.2374 22.4596 18.6413 22.4658V25.6036Z" fill="#061922"/>
<path d="M34.5046 26.7345C34.6753 26.588 34.8117 26.4057 34.9041 26.2006C34.9964 25.9955 35.0425 25.7726 35.039 25.5477V22.1986C35.0442 21.9798 34.9987 21.7627 34.906 21.5643C34.8133 21.366 34.6759 21.1918 34.5046 21.0554C34.3342 20.9029 34.1344 20.7867 33.9175 20.7141C33.7007 20.6414 33.4712 20.6138 33.2433 20.6329C32.2367 20.6888 31.2364 20.7385 30.2298 20.7758V31.9848C30.8263 32.0097 31.429 32.0345 32.0255 32.0656V27.244C32.5226 28.8532 33.0196 30.4874 33.5167 32.1464C34.1132 32.1774 34.7097 32.2147 35.3124 32.2582C34.7905 30.5184 34.2685 28.816 33.7466 27.1383C34.0302 27.0721 34.2915 26.9329 34.5046 26.7345ZM32.0255 22.3229C32.4294 22.3105 32.8394 22.2918 33.2433 22.2794V25.5663C32.8394 25.5725 32.4294 25.5725 32.0255 25.5725V22.3229Z" fill="#061922"/>
<path d="M23.823 20.9312C22.8164 20.9374 21.8098 20.9374 20.8032 20.9312V31.8482C21.4059 31.842 22.0024 31.842 22.6051 31.842V27.1695H23.8292C24.2924 27.1815 24.7437 27.0222 25.0967 26.7221C25.2647 26.5897 25.4001 26.4207 25.4927 26.2279C25.5854 26.0351 25.6327 25.8237 25.6311 25.6099V22.4783C25.6318 22.2673 25.584 22.0589 25.4914 21.8692C25.3987 21.6796 25.2637 21.5138 25.0967 21.3847C24.7459 21.0759 24.29 20.9135 23.823 20.9312ZM23.823 25.6037H22.5989V22.4907C23.009 22.4907 23.4129 22.4907 23.823 22.4845V25.6037Z" fill="#061922"/>
<path d="M25.9854 31.8668C27.2964 31.8916 28.6013 31.9289 29.9123 31.9786V30.3818C29.204 30.3631 28.4956 30.3445 27.7873 30.3321V27.1756C28.1912 27.1756 28.9182 27.1819 29.3282 27.1819V25.5912C28.9244 25.5912 28.1974 25.5974 27.7873 25.5974V22.441C28.4956 22.4286 29.204 22.4099 29.9123 22.3913V20.7944C28.6075 20.8441 27.2985 20.8814 25.9854 20.9063V31.8668Z" fill="#061922"/>
<path d="M40.3947 23.6963V21.9006C40.3975 21.6723 40.3521 21.446 40.2614 21.2365C40.1708 21.0269 40.0369 20.8389 39.8686 20.6846C39.7003 20.5304 39.5013 20.4134 39.2846 20.3413C39.068 20.2693 38.8386 20.2438 38.6114 20.2665C38.1081 20.3099 37.6048 20.3472 37.1016 20.3845C36.6165 20.4137 36.1609 20.6271 35.8278 20.981C35.6635 21.1369 35.533 21.3249 35.4443 21.5333C35.3556 21.7417 35.3106 21.9661 35.3121 22.1926V25.5479C35.3085 25.7719 35.3527 25.9942 35.4416 26.1998C35.5305 26.4055 35.6622 26.5899 35.8278 26.7409C36.1704 27.0685 36.6275 27.2491 37.1016 27.2442L38.6114 27.2628V30.761C38.1081 30.7299 37.6048 30.705 37.1016 30.674V28.9591L35.3121 28.9031V30.5808C35.3108 30.8091 35.3558 31.0353 35.4444 31.2457C35.5331 31.4561 35.6635 31.6463 35.8278 31.8048C36.166 32.1488 36.62 32.3548 37.1016 32.3827C37.6048 32.4199 38.1081 32.4634 38.6114 32.5007C38.8374 32.5274 39.0664 32.5052 39.283 32.4355C39.4995 32.3658 39.6986 32.2503 39.8665 32.0968C40.0402 31.9437 40.1777 31.7539 40.269 31.5411C40.3603 31.3284 40.4033 31.098 40.3947 30.8666V27.2752C40.3997 27.0397 40.3553 26.8058 40.2644 26.5885C40.1734 26.3713 40.0379 26.1755 39.8665 26.0139C39.706 25.8437 39.511 25.7097 39.2946 25.6208C39.0781 25.5318 38.8453 25.49 38.6114 25.4982C38.1081 25.5044 37.6049 25.5106 37.1016 25.5168V22.087C37.6048 22.0621 38.1081 22.0311 38.6114 22V23.7522C39.2079 23.7398 39.8044 23.7149 40.3947 23.6963Z" fill="#061922"/>
<path d="M6.49439 20.4589C7.20272 20.5211 7.94212 20.577 8.68773 20.6329V20.5583C7.92348 20.5024 7.1468 20.4403 6.38876 20.3782C6.33299 20.373 6.27699 20.3709 6.22099 20.3719C6.03473 20.3674 5.84941 20.3997 5.67563 20.4668C5.50184 20.534 5.343 20.6348 5.2082 20.7634C5.05183 20.9064 4.92814 21.0814 4.84558 21.2766C4.76301 21.4718 4.72351 21.6824 4.72977 21.8942V30.8664C4.72002 31.2136 4.82969 31.5535 5.04044 31.8295C4.88276 31.5718 4.80293 31.2741 4.81054 30.9721V22.0061C4.80332 21.7908 4.84291 21.5765 4.92658 21.3781C5.01026 21.1796 5.13603 21.0017 5.29519 20.8566C5.43246 20.7256 5.59424 20.6231 5.77124 20.5549C5.94824 20.4866 6.13698 20.454 6.32662 20.4589C6.3825 20.4558 6.43851 20.4558 6.49439 20.4589Z" fill="#BEC0C2"/>
<path d="M10.8368 20.7758V20.7012C10.3211 20.6702 9.79916 20.6391 9.28345 20.6018V32.1712L9.36422 32.165V20.6826H9.37665C9.84887 20.7136 10.3397 20.7447 10.8368 20.7758Z" fill="#BEC0C2"/>
<path d="M15.1434 20.987V20.9125C14.6214 20.8938 14.0871 20.869 13.5527 20.8441V31.9227L13.6335 31.9165V20.9249H13.6459C14.1368 20.9497 14.6401 20.9684 15.1434 20.987Z" fill="#BEC0C2"/>
<path d="M18.7469 21.0927C19.0879 21.0929 19.4218 21.1899 19.71 21.3723C19.4011 21.1416 19.0268 21.0153 18.6413 21.0119C17.6782 20.9933 16.7027 20.9684 15.7458 20.9312V31.8357H15.8266V21.0181H15.839C16.8021 21.0492 17.7838 21.0741 18.7469 21.0927Z" fill="#BEC0C2"/>
<path d="M33.4719 20.8317C33.7748 20.824 34.0731 20.9061 34.3294 21.0678C34.0534 20.857 33.7134 20.7474 33.3663 20.7571C33.3268 20.7563 33.2874 20.7583 33.2482 20.7633C32.2976 20.8193 31.3221 20.8628 30.3466 20.9V31.8792L30.4273 31.8854V20.9746H30.4398C31.4215 20.9373 32.4032 20.8876 33.3539 20.8317L33.4719 20.8317Z" fill="#BEC0C2"/>
<path d="M22.6114 21.1361C23.0525 21.1361 23.4999 21.1361 23.9349 21.1299H23.9535C24.2948 21.123 24.6311 21.2136 24.9228 21.3909C24.6134 21.1587 24.2345 21.0382 23.8479 21.0491H23.8292C23.3881 21.0491 22.9407 21.0554 22.5058 21.0554C21.9901 21.0554 21.4557 21.0554 20.9276 21.0491V31.7238H21.0083V21.1299H21.0208C21.5489 21.1299 22.0833 21.1361 22.6114 21.1361Z" fill="#BEC0C2"/>
<path d="M29.7943 20.9187C28.5765 20.9622 27.3338 20.9995 26.1097 21.0243V31.7549H26.1905V21.0989H26.2029C27.3897 21.074 28.6013 21.043 29.8005 20.9995V20.9187H29.7943Z" fill="#BEC0C2"/>
<path d="M38.7229 20.459C38.7766 20.4538 38.8306 20.4517 38.8845 20.4528C39.1602 20.4473 39.4318 20.5206 39.6674 20.664C39.4138 20.4669 39.0999 20.3637 38.7789 20.372C38.727 20.3709 38.6751 20.373 38.6235 20.3782C38.1202 20.4217 37.6169 20.459 37.1137 20.4962C36.6596 20.525 36.2333 20.7248 35.9207 21.0555C35.7671 21.201 35.6449 21.3764 35.5616 21.5708C35.4783 21.7653 35.4355 21.9747 35.436 22.1863V25.5416C35.4273 25.8752 35.5374 26.2011 35.7467 26.4611C35.5917 26.2183 35.5117 25.9352 35.5168 25.6472V22.2919C35.5159 22.077 35.559 21.8641 35.6434 21.6665C35.7278 21.4688 35.8518 21.2905 36.0077 21.1424C36.326 20.8083 36.7587 20.6064 37.2193 20.577C37.7164 20.546 38.2196 20.5025 38.7229 20.459Z" fill="#BEC0C2"/>
<path d="M4.60522 34.4516C16.4892 32.9728 28.5107 32.9728 40.3946 34.4516V33.8303C28.5044 32.4571 16.4955 32.4571 4.60522 33.8303L4.60522 34.4516Z" fill="#1D428A"/>
<path d="M8.9234 36.1042C17.8252 33.7804 27.1744 33.7804 36.0761 36.1042V35.5202C27.1665 33.2585 17.833 33.2585 8.9234 35.5202C8.9234 35.7128 8.9234 35.9116 8.9234 36.1042Z" fill="#C8102E"/>
<path d="M18.9458 19.1727C14.1508 19.0562 9.36458 18.6995 4.60522 18.104L4.60522 18.7253C9.66297 19.3094 14.758 19.6449 19.8592 19.7319C19.5392 19.5723 19.2336 19.3851 18.9458 19.1727Z" fill="#1D428A"/>
<path d="M26.0542 19.1727C25.7664 19.3851 25.4608 19.5723 25.1408 19.7319C30.242 19.6449 35.3371 19.3094 40.3948 18.7253V18.104C35.6354 18.6995 30.8492 19.0562 26.0542 19.1727Z" fill="#1D428A"/>
<path d="M17.7527 17.9798C14.7724 17.7156 11.8191 17.2044 8.9234 16.4513V17.0354C11.9856 17.8071 15.1076 18.3184 18.256 18.5639C18.0769 18.3793 17.9088 18.1842 17.7527 17.9798Z" fill="#C8102E"/>
<path d="M27.2463 17.9798C27.0902 18.1879 26.92 18.3852 26.7368 18.57C29.8853 18.3256 33.0074 17.8143 36.0694 17.0415V16.4575C33.1752 17.2065 30.2242 17.7157 27.2463 17.9798Z" fill="#C8102E"/>
<path d="M16.9818 14.4133C16.9818 13.322 17.3053 12.2553 17.9116 11.3479C18.5179 10.4406 19.3796 9.73336 20.3878 9.31575C21.396 8.89814 22.5054 8.78888 23.5757 9.00177C24.646 9.21467 25.6291 9.74016 26.4008 10.5118C27.1724 11.2834 27.6979 12.2666 27.9108 13.3369C28.1237 14.4072 28.0144 15.5166 27.5968 16.5248C27.1792 17.533 26.472 18.3947 25.5647 19.001C24.6573 19.6072 23.5906 19.9308 22.4993 19.9308C21.7747 19.9309 21.0572 19.7882 20.3877 19.511C19.7183 19.2337 19.11 18.8273 18.5976 18.3149C18.0853 17.8026 17.6789 17.1943 17.4016 16.5248C17.1243 15.8554 16.9817 15.1379 16.9818 14.4133Z" fill="white"/>
<path d="M22.4993 8.89575C21.408 8.89575 20.3413 9.21935 19.4339 9.82562C18.5266 10.4319 17.8194 11.2936 17.4018 12.3018C16.9841 13.31 16.8749 14.4194 17.0878 15.4897C17.3007 16.56 17.8262 17.5431 18.5978 18.3148C19.3694 19.0864 20.3526 19.6119 21.4229 19.8248C22.4932 20.0377 23.6026 19.9284 24.6108 19.5108C25.619 19.0932 26.4807 18.386 27.087 17.4787C27.6932 16.5713 28.0168 15.5046 28.0168 14.4133C28.0159 12.9502 27.4343 11.5473 26.3998 10.5128C25.3652 9.47826 23.9624 8.89666 22.4993 8.89575ZM26.4883 11.3501C27.1164 12.1611 27.4788 13.1463 27.526 14.171H25.4445C25.4968 13.1463 25.861 12.162 26.4883 11.3501ZM18.5165 11.3501C19.1446 12.1611 19.5069 13.1463 19.5541 14.171H17.4726C17.521 13.1454 17.8856 12.16 18.5165 11.3501ZM18.5165 17.4765C17.8884 16.6655 17.526 15.6803 17.4788 14.6556H19.5603C19.5062 15.6799 19.1422 16.6637 18.5165 17.4765ZM22.7416 19.44V17.9984H22.257V19.44C20.9521 19.3814 19.7225 18.8124 18.8334 17.8555C19.5687 16.9462 19.9914 15.8241 20.0388 14.6556V14.171C19.9914 13.0025 19.5687 11.8804 18.8334 10.971C19.7233 10.0153 20.9524 9.44642 22.257 9.38661V10.8157H22.7416V9.38661C24.0465 9.44513 25.2761 10.0142 26.1652 10.971C25.4299 11.8804 25.0072 13.0025 24.9598 14.171V14.6556C25.0072 15.8241 25.4299 16.9462 26.1652 17.8555C25.2761 18.8124 24.0465 19.3814 22.7416 19.44ZM26.4883 17.4765C25.8577 16.6669 25.495 15.6809 25.4507 14.6556H27.5322C27.482 15.6808 27.1175 16.6656 26.4883 17.4765Z" fill="#061922"/>
<path d="M21.2756 12.1017V16.7059H23.7299V16.0721H21.9281V12.1017H21.2756Z" fill="#C8102E"/>
<path d="M24.5686 13.6428V11.7477C24.5686 11.4619 24.4568 11.35 24.171 11.35H20.8219C20.5423 11.35 20.4305 11.4681 20.4305 11.7477V17.0788C20.4305 17.3646 20.5423 17.4765 20.8219 17.4765H24.171C24.4506 17.4765 24.5686 17.3584 24.5686 17.0788V15.1775H23.9038V16.8924H21.0953V11.9279H23.9038V13.6428L24.5686 13.6428Z" fill="#1D428A"/>
<path d="M23.73 15.8919V12.1017H22.1331L22.1145 15.8919H22.7545L22.7669 14.7114H23.09L23.0838 15.8919H23.73ZM23.09 14.0838H22.7669V12.7355H23.09V14.0838Z" fill="#C8102E"/>
</svg>
