<svg width="45" height="45" viewBox="0 0 45 45" fill="none" xmlns="http://www.w3.org/2000/svg">
<path d="M39.1932 22.9961C39.4021 22.4913 40.1854 20.5591 40.1854 20.5591L36.8781 22.3869C36.8607 22.4043 35.8859 22.9265 34.4933 23.5357C35.2618 21.6235 35.9072 19.6642 36.4255 17.6696C37.5918 13.2308 38.2184 8.33942 38.2358 8.13054L38.4969 6.16355C38.4969 6.16355 32.2652 7.88683 31.6734 8.0435C29.4627 5.38023 26.0509 3.8136 22.4825 3.8136C18.8793 3.8136 15.4675 5.39763 13.2568 8.07831C12.6476 7.90424 6.41587 6.16354 6.41587 6.16354L6.67697 8.13053C6.67697 8.20016 7.33844 13.2134 8.55693 17.7218C9.09993 19.6484 9.75082 21.5429 10.5065 23.3965C9.02691 22.7524 7.77361 22.178 7.7388 22.1606L4.67517 20.6984C4.67517 20.6984 5.40626 22.5435 5.61515 23.0483C5.56292 23.0483 4.5011 22.6305 4.5011 22.6305L5.52811 25.3808V25.3634C5.59774 25.5723 6.03291 26.7386 9.34024 35.6336L9.81023 36.8521C9.81023 36.8521 10.5413 36.6084 10.7676 36.5387C10.9417 37.0261 11.4291 38.3142 11.4291 38.3142L12.7694 37.6354C13.779 37.1132 15.9723 36.2254 17.7304 35.9469C19.8367 38.819 21.4729 40.316 21.5599 40.3683L22.4651 41.1864L23.3529 40.3683C23.4399 40.2986 25.0936 38.7494 27.1476 35.9643C28.7286 36.1966 30.2554 36.7095 31.656 37.4787L32.9615 38.1924L33.5359 36.8346C33.5735 36.7152 33.62 36.5989 33.6752 36.4865C33.7796 36.5039 34.4063 36.7302 34.4063 36.7302L34.8937 35.5117C34.9807 35.268 37.1044 30.3418 39.141 25.5723L40.4987 22.4042C40.5161 22.4043 39.1932 22.9961 39.1932 22.9961Z" fill="white"/>
<path d="M37.1394 22.8744C35.9549 23.4979 34.7343 24.0501 33.4839 24.528C34.4693 22.2613 35.2783 19.9218 35.9035 17.5304C37.0698 13.0917 37.6964 8.11326 37.7138 8.06104L37.8531 6.89478L36.7216 7.2081C36.7216 7.2081 22.7786 11.055 22.3783 11.1769C21.9779 11.0725 7.06014 6.91218 7.06014 6.91218L7.2168 8.07845C7.2168 8.13067 7.86086 13.0917 9.07935 17.5827C9.82785 20.2982 10.6808 22.4044 11.5163 24.3888C9.51452 23.6055 7.53013 22.6655 7.51272 22.6481L5.70239 21.7952L6.43349 23.6403C8.209 28.0791 9.11416 30.5161 10.263 33.6145L11.7252 37.5659L12.5085 37.1655C13.6922 36.5737 16.1118 35.6163 17.9917 35.3726C20.1328 38.3666 21.8387 39.8984 21.9257 39.968L22.4479 40.4554L22.9701 39.968C23.0572 39.8984 24.7804 38.2622 26.8867 35.3726C29.08 35.5989 30.9599 36.4867 31.9173 37.0089L32.7006 37.4266L33.0314 36.6259C33.9017 34.5197 38.2012 23.9362 38.2535 23.8318L39.089 21.7777L37.1394 22.8744Z" fill="black"/>
<path d="M38.7063 23.3792C38.6715 23.3966 35.2249 24.8588 32.405 25.555C33.5016 23.031 34.459 20.7507 35.3642 17.3912C36.5304 12.9872 37.1397 8.04361 37.1571 7.99139L37.1919 7.64325L36.8612 7.73028C36.8612 7.73028 22.483 11.6991 22.3612 11.7339C22.2567 11.6991 7.70447 7.64325 7.70447 7.64325L7.73929 7.99139C7.75669 8.04361 8.40075 12.9872 9.60183 17.426C10.4026 20.3503 11.3251 22.561 12.2303 24.6847C12.2303 24.6847 12.387 25.0676 12.5262 25.3984C10.0892 24.7891 6.7819 23.6228 6.74709 23.6054L6.2771 23.4488L6.45117 23.9014C7.89595 27.7483 8.64445 29.8023 9.42776 31.9956L11.0118 36.3822L11.2207 36.3125C13.505 35.6371 15.839 35.1423 18.2009 34.8329C20.3071 37.8618 22.2567 39.5676 22.2741 39.585L22.4308 39.7069L22.5874 39.585C24.079 38.1369 25.4311 36.5516 26.6259 34.8504C28.4884 34.9722 31.9872 35.7729 33.3101 36.2777L33.519 36.3648L33.6061 36.1559C34.4764 34.067 38.9674 23.7795 39.0022 23.6925L39.2285 23.1529L38.7063 23.3792Z" fill="white"/>
<path d="M31.6209 26.2164L31.8123 25.7987C33.0308 22.9961 33.9882 20.7855 34.9108 17.2692C35.8856 13.5615 36.4948 9.47091 36.6515 8.28723C36.0074 8.4613 22.43 12.2038 22.43 12.2038L22.3604 12.2212C22.3604 12.2212 8.90475 8.47871 8.24329 8.30464C8.41736 9.50572 9.0266 13.5964 10.0536 17.3389C10.8369 20.2284 11.7595 22.4043 12.6473 24.5279L13.2913 26.0772L18.4264 34.3629L18.5134 34.4847C20.2715 37.061 21.9252 38.6624 22.43 39.115C22.9174 38.6624 24.5188 37.061 26.3291 34.5195L26.3988 34.4151L31.6209 26.2164Z" fill="#C4CED4"/>
<path d="M12.6826 21.1859C12.5433 20.9944 11.9515 20.0545 11.9515 18.4878V18.3486C11.5381 17.2283 11.326 16.0439 11.3248 14.8498C11.3248 11.9428 12.5781 9.31436 14.5973 7.39959C16.7402 5.40807 19.5573 4.30115 22.4827 4.30115C25.4081 4.30115 28.2252 5.40807 30.3681 7.39959C31.4006 8.34737 32.2259 9.49851 32.7921 10.7807C33.3583 12.0628 33.6531 13.4482 33.658 14.8498C33.6603 15.9032 33.4897 16.95 33.1532 17.9482C33.1625 19.8708 32.6055 21.7536 31.5517 23.3618C31.4886 23.4221 31.4185 23.4747 31.3429 23.5185H31.3255C31.308 23.5359 31.308 23.5359 31.308 23.5707C31.308 23.5707 31.2732 23.6925 31.2384 23.797L31.2732 23.7796L31.221 23.8492C30.2306 25.1859 28.939 26.2703 27.4509 27.0143C25.9629 27.7583 24.3204 28.141 22.6568 28.1313C18.0091 28.1487 14.0751 25.2243 12.6826 21.1859Z" fill="black"/>
<path d="M37.557 24.3017C37.4873 24.3191 30.4549 27.3479 22.3781 27.3131C15.276 27.2782 7.2166 24.2494 7.14697 24.2146L5.4585 23.5706L6.06774 25.1894C6.06774 25.2416 6.06774 25.2416 9.87987 35.4595L10.1584 36.1906L10.9069 35.9643C14.6156 34.8077 18.4758 34.2094 22.3607 34.1888C27.2869 34.1888 31.5864 35.1984 33.3619 35.8077L34.1104 36.0514L34.4063 35.3203C34.5282 35.0418 37.0174 29.2278 38.671 25.3635L39.4891 23.4661L37.557 24.3017Z" fill="#007DC5"/>
<path d="M37.6267 25.2765L36.913 25.5376C36.913 25.5376 35.329 26.1294 35.3116 26.1294C34.9121 26.2476 34.5396 26.4428 34.215 26.7039C34.0425 26.8579 33.8904 27.0334 33.7624 27.2261C33.7819 27.182 33.7937 27.1349 33.7972 27.0868L34.0235 26.495L33.4142 26.669L31.9695 27.052C31.8302 27.0868 30.838 27.2783 30.5421 27.3479L30.2113 27.4001L28.5229 27.6961C28.4358 27.6961 27.7918 27.8179 27.4436 28.1486C27.3742 28.2314 27.3103 28.3187 27.2522 28.4097L27.3566 27.8353L26.9214 27.8875L25.5637 28.0094L25.5115 28.3575C25.4753 28.3127 25.4345 28.2718 25.3896 28.2357C25.1285 28.0442 24.6933 28.0442 24.5715 28.0616L22.5697 28.1138L20.9508 28.0964C20.6085 28.1096 20.2792 28.2316 20.0109 28.4446C19.9586 28.4968 19.9238 28.5664 19.8716 28.6186V28.3053L19.8542 28.0268C19.8542 28.0268 18.2179 27.8701 18.1657 27.8701L16.1813 27.6264L16.2684 28.0616L16.2858 28.1835C15.8332 27.6612 15.1369 27.4872 15.1021 27.4698C15.0847 27.4698 13.0655 27.0172 13.0655 27.0172L13.2047 27.5394L13.2918 27.9223C13.2415 27.8194 13.1833 27.7204 13.1177 27.6264C12.8382 27.2316 12.4428 26.9335 11.9862 26.7735C11.4814 26.5994 10.4718 26.3557 10.437 26.3557L9.86258 26.2165C9.34037 25.9902 8.17411 25.6246 7.79115 25.4854L7.14709 25.2765L7.39079 25.9205L10.7329 34.9374C10.7329 34.9374 12.0559 34.5718 12.1255 34.5544C12.1255 34.5544 13.5006 34.2237 13.6051 34.2063C13.6573 34.1889 15.0499 33.9452 15.0499 33.9452V33.9278C15.4328 33.8755 16.1987 33.7537 16.2684 33.7537C16.338 33.7363 16.9994 33.6318 17.3824 33.597L18.775 33.4578C18.9142 33.4404 19.3668 33.4055 19.6105 33.1967C19.6972 33.139 19.7688 33.0614 19.8194 32.9704L19.8368 33.3533L21.4904 33.3011C21.5601 33.2837 21.9953 33.2489 22.2738 32.9704C22.3128 32.9336 22.3478 32.8927 22.3782 32.8485L22.3608 33.2837C22.3608 33.2837 23.6315 33.3185 23.7011 33.3185L25.1981 33.3533L26.2774 33.4404L27.6525 33.597C27.9888 33.6235 28.326 33.5573 28.6273 33.4056C28.6621 33.3707 28.6969 33.3533 28.7318 33.3185L28.6273 33.7189L30.0199 33.9626V33.9452C30.0721 33.9626 31.0469 34.1367 31.2732 34.1715L31.4124 34.2237C31.4472 34.2237 32.1435 34.3978 32.6657 34.3281C33.3098 34.2585 33.9713 33.7363 34.2672 33.0574L35.6597 29.8719C35.6771 29.8023 37.6267 25.2765 37.6267 25.2765Z" fill="white"/>
<path d="M25.2505 33.0401L26.1208 33.1097L26.9564 28.2183L25.8423 28.3228L25.2505 33.0401Z" fill="black"/>
<path d="M28.8707 28.5838L28.453 30.3245L29.5322 30.3071L30.2633 27.7483L28.5748 28.0268C28.5748 28.0268 27.9656 28.1312 27.6871 28.4098C27.3041 28.7927 27.2171 29.489 27.2171 29.489L26.5382 33.1445L27.6174 33.2663C27.892 33.292 28.1684 33.2439 28.4182 33.127C28.6793 33.0052 28.8359 32.7093 28.923 32.4482C29.01 32.1871 29.2711 31.1427 29.2711 31.1427H28.2789L28.0526 32.1871C28.0231 32.3312 27.9638 32.4676 27.8785 32.5874C27.8223 32.6503 27.752 32.6988 27.6733 32.7291C27.5946 32.7594 27.5098 32.7705 27.426 32.7615L28.1397 29.5064C28.2026 29.269 28.2962 29.0407 28.4182 28.8275C28.4673 28.7523 28.5344 28.6907 28.6135 28.6481C28.6925 28.6055 28.781 28.5834 28.8707 28.5838Z" fill="black"/>
<path d="M30.7509 30.4115L31.6735 27.4523L30.7161 27.6612L29.045 33.4403L29.7935 33.5447L30.5769 31.0903L30.8032 31.0729C30.8032 31.0729 30.9598 31.1251 30.9598 31.2644C30.9531 31.3718 30.9296 31.4776 30.8902 31.5777L30.2287 33.6143L31.0991 33.7884L31.8302 31.6648C31.8918 31.4977 31.9213 31.3205 31.9172 31.1425C31.9005 30.9735 31.8405 30.8117 31.7431 30.6726C31.7431 30.6726 31.9172 30.6726 32.1609 30.4289C32.4046 30.2026 32.4046 30.0111 32.4568 29.837C32.5264 29.663 33.5012 26.9997 33.5012 26.9997L32.2305 27.313L31.4994 29.6978C31.4656 29.8459 31.4068 29.9872 31.3254 30.1155C31.2035 30.2896 31.1165 30.3592 31.0468 30.3592C30.9512 30.3908 30.8516 30.4084 30.7509 30.4115Z" fill="black"/>
<path d="M35.1195 27.4872L34.3014 29.6805L35.4154 29.6283L37.0168 25.8683L35.4154 26.4428C35.0569 26.5581 34.7212 26.7348 34.4232 26.965C34.0912 27.302 33.815 27.6898 33.6051 28.1138C33.518 28.3227 33.1525 29.1409 33.1003 29.402C33.0306 29.6631 32.491 31.1078 32.491 31.1078H33.7617L33.2221 32.5526C33.1711 32.767 33.0763 32.9685 32.9436 33.1445C32.8167 33.301 32.6374 33.4061 32.4388 33.4404L33.1525 31.5952H32.3692L31.5162 33.893C31.8792 33.9899 32.2549 34.031 32.6303 34.0148C33.1351 33.9626 33.7095 33.5622 33.9706 32.9356C34.2491 32.3263 35.1543 30.2201 35.1543 30.2201L33.6399 30.3071L34.1099 28.9668C34.1099 28.9668 34.4232 28.1835 34.6495 27.9224C34.7791 27.7506 34.9382 27.6032 35.1195 27.4872Z" fill="black"/>
<path d="M7.68628 25.7988L10.9414 34.5371L11.8988 34.2586L9.4792 27.1913C9.4792 27.1913 9.84475 27.2261 10.1581 27.7832C10.3914 28.2004 10.5726 28.6447 10.6977 29.1061C10.7847 29.4542 12.3165 34.1715 12.3165 34.1715L13.2913 33.9452L11.4288 27.7309C11.4288 27.7309 11.6551 27.7309 11.8988 28.1487C12.0418 28.3909 12.1585 28.6476 12.2469 28.9146L13.6743 33.8756L14.6143 33.6841L13.4132 29.0887C13.4132 29.0887 13.1347 28.2706 12.8387 27.8528C12.6072 27.5008 12.2638 27.2371 11.864 27.1043C11.394 26.9476 10.3495 26.6691 10.3495 26.6691L10.5062 27.1391C10.3075 26.9222 10.0789 26.7346 9.82734 26.5821C9.56623 26.4254 7.68628 25.7988 7.68628 25.7988Z" fill="black"/>
<path d="M15.3104 30.5856L14.7882 28.3227C14.9664 28.3675 15.1328 28.4507 15.2756 28.5664C15.467 28.7404 15.5193 29.2278 15.5193 29.2278L15.7804 30.5856H15.3104ZM16.3896 33.3707L17.2077 33.2663L16.5115 29.6282C16.5115 29.6282 16.3548 28.8275 16.1459 28.4968C15.7804 27.9571 15.0145 27.7482 15.0145 27.7482L13.5175 27.4523L15.0667 33.5796L15.9892 33.4403L15.4148 31.1426H15.9544L16.3896 33.3707Z" fill="black"/>
<path d="M16.5991 28.0094L17.6435 33.2315L18.7402 33.1096C18.7402 33.1096 19.2624 33.0922 19.4016 32.9704C19.4892 32.9014 19.5609 32.8144 19.6119 32.7153C19.6629 32.6162 19.6922 32.5073 19.6976 32.396L19.5757 28.3227L18.4965 28.2183L18.8794 32.0652C18.8794 32.0652 18.9143 32.4134 18.7402 32.5874C18.7023 32.6323 18.6538 32.667 18.5991 32.6883C18.5443 32.7096 18.4851 32.7168 18.4269 32.7093L17.8698 28.1487L16.5991 28.0094Z" fill="black"/>
<path d="M20.15 33.0053L21.4555 32.953C21.6725 32.9319 21.8784 32.8472 22.0473 32.7093C22.1855 32.5455 22.2759 32.3467 22.3084 32.1349L22.3259 31.4038H21.4381L21.4555 32.1349C21.4669 32.2601 21.4295 32.3848 21.3511 32.483C21.264 32.5701 20.9681 32.5701 20.9681 32.5701V31.0905H22.3259L22.3607 30.6553H20.9507V29.3672C20.9457 29.3159 20.9525 29.2641 20.9706 29.2158C20.9887 29.1675 21.0176 29.124 21.0551 29.0887C21.1743 29.0138 21.316 28.983 21.4555 29.0016V30.3246H22.3955L22.5173 28.4272L20.9507 28.3924C20.6973 28.4057 20.4541 28.4969 20.2544 28.6535C19.9237 28.9494 19.9759 29.6283 19.9759 29.6283L20.15 33.0053Z" fill="black"/>
<path d="M24.3102 29.1233L24.2406 30.2722C24.2397 30.3528 24.2155 30.4314 24.1709 30.4985C24.1362 30.5467 24.0876 30.5831 24.0317 30.6029L23.7183 30.5855L23.8054 28.8971L24.0317 28.8797C24.0992 28.8779 24.1658 28.8961 24.2231 28.9319C24.3102 28.9667 24.3102 29.1233 24.3102 29.1233ZM25.1805 28.5663C25.0065 28.3923 24.5887 28.4097 24.5887 28.4097L22.8828 28.4619L22.7087 32.9529L23.5617 32.9703L23.6661 31.1252C23.6661 31.1252 23.9446 31.0381 24.0839 31.2296C24.1363 31.3061 24.1609 31.3983 24.1535 31.4907L24.0491 32.9703L24.8846 33.0225L25.0413 31.5255C25.07 31.3742 25.058 31.218 25.0065 31.0729C24.9512 30.9672 24.8579 30.8863 24.7454 30.8467C24.7454 30.8467 24.8672 30.8467 25.0413 30.6552C25.1597 30.513 25.2272 30.3353 25.2328 30.1504L25.3372 29.1059C25.3198 29.1059 25.372 28.7578 25.1805 28.5663Z" fill="black"/>
<path d="M24.45 34.9897L25.5119 34.7286L24.4326 34.6241C24.3804 34.6241 23.3708 34.5371 22.866 34.5371C22.7964 34.3282 22.3612 33.0227 22.3612 33.0227L22.1871 33.5275C22.1697 33.5623 21.9434 34.189 21.8216 34.5371C21.2297 34.5371 20.4464 34.6067 20.429 34.6067L19.2802 34.7286L20.3942 34.9723C20.7423 35.0419 21.4386 35.2856 21.4908 35.5815C21.4038 35.9297 21.1775 36.5389 21.1775 36.5389L20.9512 37.0959C20.9512 37.0959 22.1697 36.243 22.3438 36.1386C22.5179 36.243 23.7015 37.0785 23.7015 37.0785C23.7015 37.0785 23.2141 35.6686 23.1793 35.5467C23.3012 35.3726 23.9104 35.1115 24.45 34.9897Z" fill="black"/>
<path d="M22.8828 35.5292C22.9698 35.2333 23.4746 35.007 23.875 34.8678C23.4746 34.833 22.9698 34.7981 22.7087 34.7981H22.6565C22.6565 34.7981 22.4476 34.2237 22.3431 33.9278C22.2561 34.1889 22.1169 34.5718 22.0646 34.7459L22.0472 34.8156H21.9776C21.6991 34.8156 21.2987 34.833 21.0028 34.8504C21.3509 35.007 21.7687 35.2333 21.8209 35.5641V35.6163C21.7687 35.8077 21.6643 36.1385 21.5772 36.3648C21.8557 36.1559 22.3606 35.8077 22.3606 35.8077C22.3606 35.8077 22.9002 36.1733 23.1787 36.3648C23.0568 36.0689 22.8828 35.5815 22.8828 35.5815V35.5292Z" fill="white"/>
<path d="M11.8989 14.8671C11.8989 9.36648 16.651 4.89288 22.4824 4.89288C28.3137 4.89288 33.0658 9.36648 33.0658 14.8671C33.0658 20.3503 28.3311 24.8239 22.4824 24.8239C16.651 24.8239 11.8989 20.3503 11.8989 14.8671Z" fill="white"/>
<path d="M16.0946 8.94881L16.5297 8.58327C16.8257 8.35698 16.9127 8.04365 16.756 7.85217C16.5472 7.59107 16.2164 7.6781 15.8683 7.93921L15.5201 8.23513L16.0946 8.94881ZM16.0598 8.1655L16.0772 8.14809C16.2164 8.04365 16.3209 8.02624 16.4079 8.13068C16.4775 8.21772 16.4253 8.33957 16.3035 8.4266L16.286 8.46142L16.0598 8.1655Z" fill="black"/>
<path d="M18.7223 7.15571L19.0356 7.01646L19.1226 7.10349L19.5752 6.91201L18.8093 6.25055L18.3393 6.42462L18.2871 7.43422L18.7397 7.26015L18.7223 7.15571ZM18.7049 6.91201L18.6875 6.6335V6.6161C18.7112 6.65502 18.7405 6.69021 18.7745 6.72054L18.8789 6.84239L18.7049 6.91201Z" fill="black"/>
<path d="M20.9338 5.6937L21.3864 5.64148L21.456 6.25072L21.839 6.21591L21.8738 6.51183L21.0383 6.59886L20.9338 5.6937Z" fill="black"/>
<path d="M23.5268 5.64148L23.9967 5.71111L23.8923 6.32035L24.2753 6.37257L24.223 6.66849L23.4049 6.54664L23.5268 5.64148Z" fill="black"/>
<path d="M26.1378 7.121L26.4511 7.26025L26.4337 7.3821L26.8863 7.59099L26.834 6.56397L26.3641 6.3725L25.5981 7.03396L26.0507 7.24285L26.1378 7.121ZM26.2944 6.96434L26.4859 6.73804V6.75545C26.4859 6.80767 26.4685 6.82508 26.4685 6.8773L26.4511 7.03396L26.2944 6.96434Z" fill="black"/>
<path d="M28.4008 8.16545L28.4182 8.20027C28.4537 8.29115 28.5069 8.37401 28.5749 8.44397C28.6097 8.47878 28.6793 8.5136 28.6967 8.47878C28.7142 8.44397 28.6793 8.39175 28.6619 8.37434L28.5923 8.30471C28.4705 8.16546 28.4008 8.0262 28.4879 7.90435C28.6271 7.74769 28.923 7.81732 29.1319 7.99139C29.2331 8.08319 29.321 8.18865 29.393 8.30471L29.1493 8.40915C29.1122 8.32447 29.0519 8.25205 28.9753 8.20028C28.9579 8.16545 28.8882 8.13064 28.8708 8.16545C28.8534 8.20026 28.8882 8.23508 28.923 8.26989L28.9753 8.33952C29.1145 8.47878 29.1667 8.63544 29.0623 8.75729C28.923 8.91395 28.6445 8.82691 28.4356 8.65284C28.3046 8.55656 28.1974 8.4315 28.1223 8.2873L28.4008 8.16545Z" fill="black"/>
<path d="M31.3595 12.3084C31.2899 12.2562 31.1506 12.1691 31.1506 12.1691C31.1222 12.1518 31.0983 12.128 31.081 12.0995C31.0674 12.0158 31.044 11.9341 31.0114 11.8558C30.0919 10.6752 28.9281 9.7073 27.5996 9.01847C27.4554 8.95611 27.303 8.91506 27.147 8.89662C27.1147 8.89595 27.0838 8.88358 27.06 8.86181C26.9466 8.74732 26.8101 8.65831 26.6596 8.6007C25.3829 8.08087 24.0171 7.8148 22.6386 7.81739C22.2136 7.81979 21.7892 7.84886 21.3679 7.90442L21.9249 7.15592C19.7316 7.0863 18.1476 8.80959 18.1476 8.80959C17.6227 9.04998 17.1165 9.32927 16.6332 9.64513C16.3072 9.75385 16.0073 9.92914 15.7526 10.1599C15.4979 10.3906 15.2939 10.6717 15.1536 10.9855C14.8577 11.2118 14.2833 11.9777 14.2833 11.9777C14.1487 12.067 14.0207 12.1659 13.9003 12.2736C13.3936 12.8202 13.0447 13.4939 12.8907 14.2232C12.8841 14.23 12.8791 14.2383 12.8761 14.2473C12.8731 14.2563 12.8721 14.2659 12.8733 14.2754C12.8559 14.3276 12.8559 14.3972 12.8385 14.4669C12.8211 14.6061 12.7863 14.728 12.7688 14.8672L12.7863 14.8498C12.7872 14.8688 12.781 14.8874 12.7688 14.902C12.6913 15.1183 12.6274 15.3392 12.5774 15.5635C12.56 15.6505 12.2466 16.5557 12.2466 16.5557C11.4633 19.306 12.5077 20.9597 12.6818 21.2208C14.0744 25.2592 18.0083 28.1488 22.6212 28.1488C24.2852 28.1603 25.9283 27.7785 27.4166 27.0343C28.9049 26.2901 30.1963 25.2048 31.1854 23.8666C31.2231 23.7841 31.2466 23.6959 31.2551 23.6055C31.2569 23.5881 31.2625 23.5713 31.2715 23.5562C31.2805 23.5412 31.2928 23.5283 31.3073 23.5185C31.4465 23.4489 31.4988 23.3967 31.4988 23.3792C32.5525 21.7711 33.1095 19.8883 33.1002 17.9657C33.1251 15.9444 32.5164 13.966 31.3595 12.3084Z" fill="black"/>
<path d="M18.2527 10.3238C18.2701 10.289 18.3049 10.2716 18.3223 10.2542L18.3745 10.202H18.3919C18.3924 9.88472 18.4333 9.56884 18.5138 9.26197C19.4712 7.93904 21.0378 7.5909 21.0378 7.5909C21.2293 7.52127 21.1074 7.60831 21.1074 7.60831C20.1152 8.72236 20.2197 9.62752 20.2197 9.62752L21.177 13.0567C21.177 13.0567 20.4111 12.7782 19.8193 11.5945C19.5408 13.9967 21.8211 15.9463 21.8211 15.9463C21.9081 16.0333 21.7515 15.9288 21.7515 15.9288C21.1944 15.6503 20.533 15.0411 20.3589 14.8844C20.3937 15.0759 21.5078 20.6113 21.5252 20.6461C21.5314 20.6825 21.5431 20.7178 21.56 20.7506L21.9255 19.8106L22.2563 22.6131C20.7941 23.9535 19.2623 23.4313 19.1752 23.3964C19.1943 23.4245 19.2117 23.4535 19.2275 23.4835C19.2275 23.4835 20.4808 25.9205 25.581 25.6768C25.581 25.6768 25.7029 25.6768 25.6855 25.6942C25.6721 25.6954 25.6597 25.7016 25.6506 25.7116C25.5714 25.7373 25.4897 25.7548 25.4069 25.7638C19.2623 27.4001 16.0768 22.178 15.9375 21.9517C15.7415 21.6724 15.5724 21.3752 15.4327 21.0639C15.4327 21.0465 15.4327 21.0117 15.4501 21.0465C15.4501 21.0465 16.0942 21.708 17.9568 21.882H17.9742C16.5468 20.3154 15.9375 19.1665 15.8505 18.9925C15.8505 18.9925 15.6764 18.7314 15.4676 18.0003C15.4676 18.0003 15.485 17.9655 15.485 18.0003C15.5546 18.1395 16.042 18.8358 16.6164 18.9925C16.129 18.2092 15.8157 16.9733 15.7809 16.7992C16.4423 17.7218 17.626 17.7914 17.626 17.7914C17.6261 17.7891 17.6257 17.7868 17.6248 17.7847C17.6239 17.7825 17.6227 17.7806 17.621 17.779C17.6194 17.7773 17.6175 17.7761 17.6153 17.7752C17.6132 17.7743 17.6109 17.7739 17.6086 17.774V17.7914C15.6764 15.8592 16.0942 13.7704 16.8775 12.256C17.2413 11.5496 17.7044 10.8989 18.2527 10.3238Z" fill="white"/>
<path d="M24.0312 23.0484L22.7605 24.3713L24.3271 23.1702L23.509 20.3851L23.8745 17.043L23.2479 20.2284L24.0312 23.0484Z" fill="#C4CED4"/>
<path d="M23.7184 16.2597C23.7446 16.2554 23.7688 16.2433 23.788 16.2249C23.921 16.1555 24.0393 16.0609 24.1362 15.9464C24.307 15.7691 24.4399 15.5587 24.5267 15.3283C24.6135 15.0978 24.6524 14.8521 24.641 14.6061C24.6358 14.2512 24.5771 13.8991 24.4669 13.5616C24.4495 14.0316 24.3102 15.7549 23.7184 16.2597Z" fill="#C4CED4"/>
<path d="M24.3104 10.5676C24.7456 9.9061 25.4767 9.85388 25.79 9.85388C25.5542 9.77524 25.3075 9.73413 25.0589 9.73203C24.8041 9.72665 24.5504 9.76794 24.3104 9.85388C24.1712 9.9061 24.0841 9.94092 24.0493 9.95832C24.1489 10.1558 24.2362 10.3593 24.3104 10.5676Z" fill="#C4CED4"/>
<path d="M23.7355 11.9775C23.7378 11.9774 23.74 11.9778 23.7422 11.9787C23.7443 11.9796 23.7462 11.9808 23.7479 11.9825C23.7495 11.9841 23.7508 11.986 23.7516 11.9882C23.7525 11.9903 23.7529 11.9926 23.7529 11.9949V12.1864C23.7529 13.6137 23.3873 15.1804 23.2307 15.7374C23.6947 14.6845 23.9319 13.5458 23.9269 12.3952C23.9281 11.9753 23.8932 11.5559 23.8225 11.1419C23.8058 11.0189 23.7826 10.8969 23.7529 10.7764C23.6136 11.8556 23.1958 12.343 23.1958 12.343L23.1784 12.3604C23.161 12.3604 23.161 12.3604 23.1436 12.343C22.7514 11.6436 22.2387 11.0189 21.6292 10.4979C21.3848 10.2818 21.1161 10.0949 20.8285 9.94086C22.1166 12.726 22.4996 14.867 22.604 15.5807V15.337C22.5802 14.4713 22.4812 13.6093 22.3081 12.7608C22.1688 12.0123 22.0122 11.4727 22.0122 11.4727V11.4379H22.047C22.6214 11.8904 23.0392 13.1611 23.0914 13.4049C23.2504 13.1664 23.379 12.9092 23.4744 12.6389C23.5788 12.3082 23.6832 11.9949 23.6832 11.9949L23.7355 11.9775Z" fill="#C4CED4"/>
<path d="M12.8911 17.7741C12.8911 19.097 13.1174 20.4721 14.2662 22.2477C15.3629 24.528 17.3473 25.7465 18.2872 26.2164C18.6006 26.3557 18.7921 26.4427 18.7921 26.4427C20.0744 27.058 21.4778 27.3791 22.9001 27.3827C24.8291 27.3663 26.7111 26.7854 28.3137 25.7116C28.5922 25.5202 28.7488 25.3983 28.7488 25.3983L28.8707 25.2765C28.8707 25.2939 28.8359 25.3113 28.8185 25.3113L28.714 25.3809C26.6774 26.5646 24.8149 26.9301 23.2831 26.9301C20.8809 26.9301 19.3491 26.0424 19.3491 26.0424C14.2662 23.3965 14.1966 18.8011 14.1966 18.8011C14.1966 18.7988 14.197 18.7965 14.1978 18.7943C14.1987 18.7922 14.2 18.7903 14.2016 18.7886C14.2032 18.787 14.2052 18.7857 14.2073 18.7849C14.2094 18.784 14.2117 18.7836 14.214 18.7837H14.2488C14.8929 20.0544 15.6936 20.4721 16.0417 20.6114C16.0804 20.633 16.1213 20.6505 16.1636 20.6636C14.684 18.8185 14.2662 17.2518 14.2662 16.0856C14.2662 14.5189 15.0147 13.6486 15.0147 13.6486L15.0321 13.6312C15.0344 13.6311 15.0367 13.6316 15.0389 13.6324C15.041 13.6333 15.0429 13.6346 15.0446 13.6362C15.0462 13.6378 15.0475 13.6397 15.0483 13.6419C15.0492 13.644 15.0496 13.6463 15.0495 13.6486C14.9586 14.1249 14.912 14.6085 14.9103 15.0934C14.9033 15.6173 14.9737 16.1393 15.1192 16.6426C15.164 16.7788 15.2163 16.9125 15.2758 17.043C15.2278 16.6852 15.2045 16.3246 15.2062 15.9637C15.2037 13.7138 16.0925 11.5546 17.678 9.95831C17.3473 10.0976 16.9643 10.4457 16.651 10.7764C16.3029 11.1246 16.0243 11.4727 16.0243 11.4727H16.0069C15.9895 11.4727 15.9895 11.4727 15.9895 11.4553C16.0177 11.1781 16.1069 10.9106 16.2506 10.672C15.9818 10.9446 15.7637 11.2629 15.6066 11.612C15.5007 11.8245 15.4133 12.0458 15.3455 12.2734V12.2908C14.9017 12.8052 14.5325 13.3794 14.2488 13.9967C14.1227 14.2606 14.0179 14.5342 13.9355 14.8149C13.9181 14.8845 13.9007 14.9193 13.9007 14.9367C13.9007 14.9367 13.9007 14.9541 13.8659 14.9541C13.8311 14.9541 13.8485 14.9367 13.8485 14.9193V14.9019C13.8494 14.8664 13.8552 14.8313 13.8659 14.7975C13.8659 14.136 14.1444 13.4223 14.2488 13.1438C13.4829 13.9619 13.2914 15.0934 13.2914 15.9811C13.2898 16.4853 13.3482 16.9878 13.4655 17.4781C13.4863 18.045 13.5503 18.6095 13.657 19.1666C13.7788 19.6888 13.8659 20.0718 13.8659 20.0718C13.8903 20.1274 13.9079 20.1859 13.9181 20.2458V20.2632H13.9007C13.8659 20.2632 13.8659 20.2458 13.8485 20.2284C13.8311 20.2284 13.8311 20.211 13.8137 20.1762L13.7788 20.1066C13.2218 19.271 12.9607 17.9133 12.9085 17.5826C12.8941 17.6453 12.8882 17.7097 12.8911 17.7741Z" fill="#C4CED4"/>
<path d="M30.0023 11.9253C30.0023 11.9253 27.5305 8.61798 22.8828 8.61798H22.7784C22.7649 8.61823 22.7517 8.62149 22.7396 8.62751C22.7276 8.63354 22.717 8.64217 22.7087 8.6528C22.7087 8.68761 22.7436 8.70502 22.7784 8.72242C23.1533 9.01744 23.5026 9.34353 23.8228 9.69721V9.71463L23.8402 9.69721C23.9355 9.65368 24.0346 9.61872 24.1361 9.59277C24.3975 9.52423 24.6666 9.48914 24.9368 9.48833C25.46 9.48866 25.9748 9.62034 26.4338 9.87128C26.1901 9.99313 25.0413 10.5676 24.7802 11.2464L24.7976 11.2638C24.7976 11.2638 25.9638 12.3083 28.366 12.3083C28.7854 12.3122 29.2045 12.2831 29.6193 12.2212C29.6902 12.2196 29.7606 12.2079 29.8282 12.1864C29.9326 12.1516 30.0545 12.1168 30.0545 11.9949C30.034 11.9742 30.0165 11.9508 30.0023 11.9253Z" fill="#007DC5"/>
<path d="M25.0064 16.5555C24.989 16.5381 24.9716 16.5381 24.9716 16.5555C24.9542 16.5555 24.9542 16.5729 24.9716 16.5729C24.9974 16.5998 25.0207 16.629 25.0413 16.66C25.1805 16.8515 25.4416 17.304 25.4416 18.1048C25.4249 18.8555 25.2405 19.593 24.902 20.2632C24.8985 20.0057 24.8693 19.7491 24.815 19.4973C24.7279 19.0447 24.5713 18.5747 24.2057 18.4703H24.1709L23.962 20.4373L24.7453 23.3617L23.1961 24.615C23.1787 24.615 23.1787 24.615 23.1787 24.6324C23.1787 24.6347 23.1791 24.637 23.1799 24.6391C23.1808 24.6412 23.1821 24.6432 23.1837 24.6448C23.1853 24.6464 23.1873 24.6477 23.1894 24.6486C23.1915 24.6494 23.1938 24.6498 23.1961 24.6498C23.7301 24.7888 24.2807 24.8532 24.8324 24.8413C25.4934 24.8379 26.1524 24.768 26.7994 24.6324C26.8547 24.6161 26.9056 24.5872 26.9479 24.5479C26.9902 24.5087 27.0228 24.4601 27.0431 24.4061C27.1633 23.7692 27.2216 23.1221 27.2171 22.4739C27.2345 20.7506 26.869 18.2962 25.0064 16.5555Z" fill="#007DC5"/>
<path d="M27.5654 24.4061C27.5306 24.3887 27.5306 24.3539 27.5306 24.3017V24.2146C27.5856 24.0029 27.6263 23.7877 27.6524 23.5706C27.738 23.0353 27.7788 22.4938 27.7743 21.9517C27.7743 20.1936 27.3565 17.7392 25.3895 15.8419C25.3801 15.8324 25.3679 15.8263 25.3547 15.8245L25.3025 15.7722C25.3043 15.759 25.3104 15.7468 25.3199 15.7374H25.3547C25.3846 15.7376 25.4141 15.7435 25.4417 15.7548C25.778 15.8667 26.0825 16.0577 26.3295 16.3119C26.3121 16.2248 26.2773 16.0334 26.2251 15.7897C26.0986 15.3707 25.8917 14.9805 25.6158 14.6408L25.5636 14.5886C25.5462 14.5538 25.5288 14.5538 25.5288 14.5189V14.4841H25.5636C25.581 14.4841 25.5984 14.5015 25.6506 14.5364C25.7725 14.5886 30.7161 16.9733 30.8901 21.7777V21.8647C30.8947 21.9534 30.8817 22.0421 30.8518 22.1258C30.8219 22.2094 30.7758 22.2863 30.7161 22.3521C30.6638 22.4043 29.4976 23.8665 27.7569 24.4061C27.7256 24.4264 27.6896 24.4383 27.6524 24.4409C27.635 24.4409 27.5828 24.4409 27.5654 24.4061Z" fill="#007DC5"/>
<path d="M31.2732 20.89C31.1688 16.9212 27.4089 14.2231 25.5289 13.1091C25.194 12.8995 24.8451 12.7134 24.4845 12.552L24.3975 12.5172H24.5193C24.7436 12.5182 24.9651 12.5668 25.1691 12.6598C25.3732 12.7528 25.5552 12.8882 25.703 13.0568C25.6974 12.8854 25.6681 12.7155 25.6159 12.552L25.5811 12.4998L25.6334 12.5172C26.173 12.7261 26.8518 12.7957 27.5307 12.7957C28.1251 12.7902 28.7183 12.7437 29.3062 12.6565C29.7762 12.6043 30.0895 12.5346 30.0895 12.5346H30.1592C30.4377 12.5346 30.5247 12.6913 30.5247 12.7087C31.1688 13.4224 31.9521 15.0586 32.0913 17.0256C32.1088 17.2693 32.1088 17.513 32.1088 17.7393C32.1088 19.2189 31.7954 20.3678 31.5691 20.8378C31.4821 21.0118 31.4125 21.0989 31.3428 21.0989C31.2906 21.0815 31.2732 21.0118 31.2732 20.89Z" fill="#007DC5"/>
<path d="M20.4285 8.06099L20.446 8.04358C20.3937 8.06099 19.3667 8.37431 19.0708 9.90613C19.0708 9.90613 19.0708 9.94095 19.0882 9.90613C19.1752 9.76687 19.4886 9.27947 19.7845 9.41873V9.38392C19.8019 9.26207 19.9063 8.72245 20.4285 8.06099Z" fill="black"/>
<path d="M19.6623 22.0038C19.436 21.5687 18.0261 18.4876 18.0261 18.4876C17.5909 18.6443 17.0513 18.2787 17.0513 18.2787C17.7475 20.1065 19.3838 21.7079 19.6449 22.0038C19.6797 22.0561 19.6797 22.0387 19.6797 22.0387C19.6623 22.0387 19.6623 22.0038 19.6623 22.0038Z" fill="black"/>
<path d="M18.2532 12.0124C16.9825 14.902 19.8373 16.103 19.8895 16.1205L19.7328 15.4416L19.6458 15.076C19.5795 15.0397 19.5094 15.0105 19.4369 14.989C19.4195 14.989 19.4021 14.9716 19.3847 14.9542C19.3524 14.9535 19.3215 14.9412 19.2976 14.9194C18.0443 14.2579 18.1662 12.6739 18.2532 12.1517V12.0994C18.2651 12.0659 18.2709 12.0306 18.2706 11.995C18.2706 11.9602 18.2706 11.995 18.2532 12.0124Z" fill="black"/>
<path d="M20.1334 20.1589L19.9246 16.5208L21.1605 20.5766C21.1605 20.5766 20.7601 19.6193 20.1334 20.1589Z" fill="#C4CED4"/>
<path d="M21.1594 13.0569L20.2194 9.62769V9.69731L20.4805 11.8732C20.4924 11.9006 20.4983 11.9303 20.4979 11.9602C20.4979 12.0821 20.4283 12.2387 19.8364 11.6295C19.819 11.5947 19.8016 11.5947 19.8016 11.5947C20.3935 12.7958 21.1594 13.0569 21.1594 13.0569Z" fill="#C4CED4"/>
<path d="M18.9146 13.6834C18.8353 13.5269 18.7935 13.3541 18.7927 13.1786C18.796 13.0213 18.8335 12.8667 18.9027 12.7254C18.9718 12.5841 19.0709 12.4596 19.1931 12.3605L19.2105 12.3431C19.1879 12.0534 19.1879 11.7624 19.2105 11.4727C18.8972 11.9253 18.2357 13.0219 19.0364 13.8749C19.019 13.8575 19.0016 13.8401 19.0016 13.8227C18.9702 13.7778 18.9412 13.7313 18.9146 13.6834Z" fill="#C4CED4"/>
<path d="M19.7494 14.1185C19.454 13.5744 19.2705 12.9766 19.2098 12.3604V12.343C19.0861 12.4446 18.9861 12.572 18.917 12.7164C18.8478 12.8607 18.8111 13.0185 18.8094 13.1786C18.8158 13.3458 18.8511 13.5108 18.9139 13.6659C18.9503 13.7137 18.9796 13.7665 19.0009 13.8226C19.0183 13.8226 19.0357 13.8574 19.0357 13.8748L19.088 13.9271C19.282 14.1221 19.544 14.2344 19.8191 14.2404C19.7886 14.2044 19.765 14.1631 19.7494 14.1185Z" fill="black"/>
<path d="M20.8812 20.6288C20.8812 20.6288 20.272 20.4722 20.3242 21.7255C20.3278 21.6885 20.3397 21.6528 20.359 21.621C20.5331 21.2033 20.7072 21.0466 20.8638 21.0292C20.9857 21.0292 21.0901 21.151 21.1598 21.3077C21.2366 21.4946 21.3006 21.6865 21.3512 21.8821C21.401 22.047 21.4359 22.2159 21.4557 22.3869C21.4716 22.4964 21.4775 22.6071 21.4731 22.7177V22.7351C21.4905 22.5958 21.7516 20.8725 20.8812 20.6288Z" fill="#C4CED4"/>
<path d="M21.1663 22.6885C21.1489 22.5318 21.1489 22.4274 21.1315 22.3403C21.114 22.2011 21.0792 22.027 21.0444 21.8529C20.9959 21.6488 20.9259 21.4504 20.8355 21.2611C20.7659 21.1044 20.6615 21 20.5396 21C20.383 21 20.2263 21.1741 20.0348 21.5744C20.0314 21.6169 20.0195 21.6584 20 21.6963L20.3133 22.3403C20.3133 22.3403 20.4874 20.5822 21.1663 22.6885Z" fill="black"/>
</svg>
