<svg width="21" height="30" viewBox="0 0 21 30" fill="none" xmlns="http://www.w3.org/2000/svg">
<path d="M19.3412 29.0541C18.2516 28.981 17.7069 28.8044 17.5329 28.2243C17.3564 27.6443 16.0928 27.9469 15.5027 27.8738C14.9124 27.8006 15.0234 27.218 15.0234 27.218C14.8292 26.4715 15.3437 25.266 15.6766 25.1171C16.0096 24.9683 16.1129 24.126 16.1129 24.126C15.8557 21.1171 15.9086 20.3227 16.0953 20.01C16.2743 19.7047 16.4005 19.2458 16.408 19.218C16.3979 19.2306 16.3047 19.3239 15.891 18.9961C15.4471 18.6455 14.7006 18.6354 14.4081 18.6455C14.1155 18.6556 13.5657 19.8636 13.0285 20.0579C12.4938 20.2521 11.6337 19.6064 10.8696 18.9608C10.1028 18.3151 9.94143 18.7085 9.94143 18.7085C8.66024 20.5068 8.14323 20.4564 7.67415 20.8498C7.20249 21.2432 5.72204 23.4601 4.93263 23.9015C4.14575 24.3453 4.29203 24.9734 4.29203 24.9734C4.56189 25.2079 4.16844 26.5976 4.20628 27.2861C4.2441 27.9746 4.42822 28.8245 4.45091 29.0465C4.47614 29.2684 4.5871 30.0553 3.12178 29.6871C1.65647 29.3189 1.47235 28.5547 1.56062 27.4727C1.64637 26.3908 1.29076 26.4135 1.00577 25.677C0.723298 24.9381 1.39921 24.8145 1.51018 24.4715C1.62115 24.1285 2.26176 23.9418 2.4837 23.9418C2.70565 23.9418 3.17223 23.2281 3.51775 22.6733C3.86075 22.1184 4.94524 20.1815 5.00073 20.1209C5.05117 20.0654 4.96037 19.9116 4.94272 19.8813C5.00073 19.9923 4.81409 20.1436 4.65016 20.0125C4.4837 19.8763 4.07765 19.7224 4.18357 19.3592C4.28698 18.9961 4.09026 18.1663 4.23906 17.9797C4.38787 17.7956 4.43074 15.7703 4.33742 14.073C4.2441 12.3756 4.8368 11.7703 4.8368 11.7703C4.8368 11.7703 5.49001 10.8599 5.58837 10.1966C5.68673 9.53078 6.2769 9.18774 6.44839 7.84598C6.6199 6.50426 7.55555 6.22179 8.13565 5.52066C8.71323 4.81952 9.95659 4.80691 9.95659 4.80691C10.0928 4.83213 10.5846 4.53705 10.5846 4.53705C10.5114 4.41346 10.5594 3.59632 10.5594 3.59632C10.3198 3.52318 10.3878 2.75395 10.3375 2.49417C10.287 2.23692 10.461 2.25962 10.461 2.25962C10.5342 0.451296 11.7775 0.241966 12.7511 0.216745C13.7221 0.191525 14.1911 1.02885 14.1911 1.02885C14.5846 1.54588 14.35 2.59254 14.2643 3.23314C14.1785 3.87374 13.6237 3.93427 13.6237 3.93427C13.6237 4.05785 13.4749 4.53705 13.4749 4.53705C13.4749 4.53705 14.6931 4.21675 15.2832 5.54588C15.8733 6.87498 15.1117 7.74766 15.5278 8.20411C15.9465 8.66062 15.7624 9.79304 15.9969 9.93929C16.0096 9.94687 16.0197 9.95445 16.0348 9.96203C16.2743 10.1133 16.6502 10.3681 16.6502 10.3681C16.7989 10.6506 17.4371 10.4185 17.7447 10.2823C18.0524 10.1461 18.113 10.3303 18.3727 10.4059C18.63 10.479 18.9528 10.8624 19.1243 11.1196C19.2958 11.3769 19.9868 11.5863 19.9969 11.8334C20.0096 12.0805 19.775 11.9696 19.775 11.9696L19.8129 12.0427C19.8507 12.1158 19.949 12.3 19.6161 12.2873C19.5959 12.2873 19.5783 12.2848 19.5581 12.2798C19.2504 12.2092 19.0007 11.6846 19.036 11.8687C19.0739 12.0654 18.9503 12.1764 18.693 12.1386C18.4988 12.1108 18.4912 11.6745 18.5013 11.4652C18.5442 11.4046 18.5089 11.3516 18.5089 11.3516C18.5089 11.3516 18.5039 11.3971 18.5013 11.4652C18.4711 11.5105 18.3954 11.561 18.2239 11.5988C17.8305 11.6846 18.0272 11.2912 17.8179 11.1676C17.6085 11.044 17.0058 10.8977 16.8469 11.1928C16.6855 11.4879 16.2668 11.3542 16.2668 11.3542C15.7372 11.4778 15.4068 11.9822 15.4068 11.9822C15.3916 11.9797 15.374 11.9772 15.3614 11.9746C14.2239 11.7502 14.6426 11.329 14.2138 11.1575C13.9061 11.0339 14.0045 10.0125 14.0045 10.0125C13.8935 10.3806 13.3765 10.7136 13.3765 10.7136C13.1067 11.1802 12.2567 12.3756 11.9238 12.9053C11.5909 13.4349 12.1684 13.0541 12.4786 13.2129C12.7864 13.3744 12.8343 13.8763 12.8343 13.8763C13.2277 13.9267 13.4496 13.508 13.7447 13.962C13.9137 14.2243 14.6325 14.5724 15.2327 14.8549C15.5606 15.3844 16.0776 15.7805 16.6855 15.9519C17.4421 16.469 18.4156 17.1928 18.8393 17.445C19.4169 17.788 19.1218 19.561 18.8393 19.7956C18.5569 20.0301 18.5871 20.5345 18.5871 20.5345C18.4761 21.4576 18.0877 23.5812 17.8481 23.9872C17.6085 24.3933 17.8028 25.1424 17.8028 25.1424C18.118 25.097 18.2189 25.3996 18.466 25.9267C18.7157 26.4513 19.1672 26.9507 19.5279 27.0515C19.8885 27.1524 20.7914 27.5509 20.857 28.2319C20.9225 28.9154 20.4332 29.1373 19.3437 29.0617L19.3412 29.0541Z" fill="#EED2D2"/>
</svg>
