<svg width="33" height="30" viewBox="0 0 33 30" fill="none" xmlns="http://www.w3.org/2000/svg">
<path d="M15.3968 3.05069C15.3968 3.05069 15.0564 1.32669 15.7845 0.986312C16.5125 0.645921 16.2478 -0.32481 18.8701 0.110129C18.8701 0.110129 20.4995 0.863392 19.9164 2.76073C19.9164 2.76073 20.1686 2.91832 20.0425 3.3312C19.9164 3.74407 19.8439 4.66753 19.4909 4.69275L19.3806 5.05834C19.3806 5.05834 19.6359 5.09617 19.6832 5.14344C19.6832 5.14344 20.2316 5.02052 20.6539 5.30103C21.0794 5.58153 22.1132 5.59414 22.3684 6.28437C22.6237 6.97775 23.7553 7.23304 23.5599 9.83318C23.3644 12.4334 24.0452 11.2924 24.3131 12.1655C24.5809 13.0417 24.2406 13.0164 24.6062 13.5743C24.9718 14.1322 27.1812 17.9237 27.6697 19.1655C27.6697 19.1655 27.6855 19.383 27.6697 19.5941C27.6539 19.8053 28.3505 20.048 28.9335 21.1511C29.5165 22.2542 29.2487 23.3478 30.0744 24.5612C30.0744 24.5612 30.6323 25.2168 30.6985 26.0268C30.6985 26.0268 31.2658 26.5941 31.395 27.1614C31.395 27.1614 31.9718 27.3064 32.0064 28.3276C32.0064 28.3276 32.2491 28.9484 31.6787 28.9484C31.1082 28.9484 29.9547 29.1785 29.9421 28.8035C29.9294 28.4253 28.716 27.9052 28.716 27.1393C28.716 26.3735 28.4734 25.6455 28.6687 25.3397C28.6687 25.3397 28.4734 24.7819 28.1708 24.454C27.8682 24.1263 27.6413 23.5842 27.0898 23.2911C26.5382 22.998 26.0528 21.7341 25.7597 20.568C25.7597 20.568 25.0789 20.5995 24.5778 20.8264C24.0767 21.0534 22.359 20.7791 21.6278 21.4252C21.6278 21.4252 21.2244 20.9557 21.2244 20.5995C21.2244 20.5995 21.1109 20.7949 20.9817 21.1196L20.8525 21.4442C20.8525 21.4442 20.1717 22.6418 20.011 22.9507C19.8502 23.2596 19.1033 23.7923 18.7471 24.2461C18.7471 24.2461 18.5171 24.2335 18.6809 24.0223C18.6809 24.0223 18.3091 24.3091 18.4981 23.7796C18.6872 23.2501 19.1096 22.9759 19.2892 22.6828C19.4689 22.3897 19.5004 21.8318 19.16 21.9706C18.8197 22.1092 18.8858 22.5063 18.391 22.5473C18.391 22.5473 18.2302 22.5316 18.5864 22.0052C18.9425 21.4788 19.1033 20.7666 19.8818 20.4261C19.8818 20.4261 20.4648 19.342 20.2379 18.5477C20.011 17.7535 19.8314 16.5716 19.5413 16.6189C19.2482 16.6662 19.1348 16.2942 18.6022 17.8165C18.0664 19.3388 17.3225 21.5104 17.0294 21.5765C17.0294 21.5765 15.6994 21.0754 15.2298 20.88L14.7602 20.6846C14.7602 20.6846 13.8052 20.7666 13.5436 20.7666C13.282 20.7666 13.219 21.545 13.0583 22.0777C12.8975 22.6135 11.5675 23.5999 11.164 24.5076C10.7575 25.4153 10.6441 25.2357 10.6283 26.323C10.6125 27.4073 10.3036 26.8241 10.354 27.8138C10.4014 28.8035 10.165 30.0578 8.6679 29.9979C7.17398 29.9381 6.8336 28.3087 7.59947 27.6531C8.36534 26.9975 8.36534 26.0867 8.69312 25.6612C9.0209 25.2357 9.24151 24.9458 9.24151 24.7125C9.24151 24.4793 9.771 23.5212 9.85292 22.8247C9.93492 22.1281 10.4045 20.152 11.3595 19.5532C11.3595 19.5532 11.1326 19.4712 11.6337 18.9386C12.1348 18.4027 12.4122 17.7882 12.4279 17.495C12.4437 17.2019 12.721 17.1389 12.8156 16.3132C12.9133 15.4874 13.7075 14.564 13.966 13.6405C14.2244 12.717 14.4671 13.2182 14.1929 12.3925C13.9187 11.5667 14.2244 10.5298 14.1109 9.76706C14.1109 9.76706 13.7548 9.54009 13.6729 9.11781C13.5909 8.69545 13.1718 8.84357 12.8156 9.00433C12.4595 9.16508 10.726 9.48966 9.99482 9.83003C9.26673 10.1705 7.92409 10.2272 7.32841 10.2146C6.73273 10.202 6.62242 10.057 6.00469 10.0317C6.00469 10.0317 5.11906 9.30374 4.1956 9.35101C4.1956 9.35101 4.15777 9.53377 3.7449 9.47388C3.33202 9.41406 3.53688 9.31637 3.39191 9.40143C3.24693 9.4865 2.78363 9.8616 2.44323 9.8017C2.10285 9.7418 1.2897 11.1506 1.11951 11.5162C0.949316 11.8819 0.681419 12.0741 0.571109 11.8819C0.460798 11.6865 0.703482 11.2862 0.703482 11.2862C0.703482 11.2862 0.788578 10.4226 1.16679 10.0349C1.54499 9.64726 2.01776 9.03897 2.69853 8.78367C3.3793 8.52838 4.58326 8.52838 4.82595 8.48111C5.06863 8.43384 7.69402 7.5482 8.92635 7.61439C10.1586 7.68058 11.0979 7.04709 11.0979 7.04709C11.0979 7.04709 11.9583 5.65402 12.8975 5.60359C13.8367 5.55631 14.7917 5.0678 15.7814 5.36091C15.7814 5.36091 15.4725 4.40594 15.5071 3.87014C15.5071 3.87014 15.006 2.94669 15.4031 3.06014L15.3968 3.05069Z" fill="#EED2D2"/>
</svg>
