<svg width="29" height="28" viewBox="0 0 29 28" fill="none" xmlns="http://www.w3.org/2000/svg">
<path d="M27.723 6.76659C27.3598 6.47908 27.1378 6.14617 26.5376 5.79056C25.9373 5.43494 25.5388 5.36937 24.9184 4.99106C24.298 4.61275 22.5225 3.46017 21.7683 3.43746C21.0142 3.41477 20.525 3.12725 19.8163 3.17012C19.1075 3.213 18.1744 3.00619 18.1744 3.00619C18.1744 3.00619 18.3308 2.42864 18.2198 2.3328L18.1088 2.23696C18.1088 2.23696 18.361 1.20796 17.6574 0.610229C16.9537 0.0124974 15.5943 0.211741 15.216 0.95071C14.8377 1.68967 15.216 2.46647 15.216 2.46647C15.216 2.46647 14.9714 2.3782 14.9486 2.59258C14.926 2.80695 14.9714 3.02889 15.0294 3.1903C15.0874 3.35424 15.2816 3.41981 15.2816 3.41981C15.2816 3.41981 13.907 3.88639 13.6095 4.07808C13.3144 4.26975 11.7835 5.54844 11.2135 5.97971C10.6435 6.40846 9.94991 6.66067 9.7784 6.91791C9.60948 7.17771 9.64478 7.45008 9.64478 7.45008C9.64478 7.45008 8.77968 8.18907 8.33579 8.40339C7.89191 8.61779 6.19962 10.1563 5.7406 10.6884C5.45812 11.0163 5.20592 11.2937 5.05459 11.4577C4.89318 11.4627 4.30302 11.4803 4.14917 11.5308C3.97262 11.5888 3.58675 11.8864 3.33455 12.0326C3.08234 12.1815 3.0092 12.4765 3.0092 12.4765L2.83265 12.5648C2.65611 12.6531 2.4039 12.9936 2.37364 13.1424C2.34337 13.2912 2.83265 13.0389 3.05459 12.8902C3.27654 12.7414 3.88183 12.7868 4.29798 12.8069C4.71159 12.8271 4.60819 13.155 4.48965 13.3769C4.37112 13.5989 4.35598 13.8511 4.41651 13.9949C4.47452 14.1411 4.86039 13.5232 5.1126 13.1399C5.36481 12.7565 5.52622 12.2521 5.52622 12.2521C5.52622 12.2521 7.57413 11.0314 8.25508 10.6253C8.93603 10.2193 9.23872 9.79814 9.81629 9.51567C10.3938 9.23572 10.762 8.89521 10.762 8.89521C10.762 8.89521 10.8503 8.99108 11.0722 8.91795C11.2942 8.84475 11.6574 8.638 11.6574 8.638C11.6574 8.638 11.8062 9.11213 11.0067 9.97716C10.2072 10.8423 9.41024 10.9532 9.47578 11.3316C9.54133 11.7098 9.72043 11.9747 9.72043 11.9747C9.72043 11.9747 7.76832 14.4816 7.27903 15.1247C6.78981 15.7679 6.54769 16.5447 6.7696 16.6329C6.99158 16.7212 7.01424 16.9003 7.01424 16.9003C7.01424 16.9003 5.75069 18.3202 5.2614 19.1626C4.77212 20.0049 4.08612 21.4249 3.73051 22.0453C3.3749 22.6657 2.91084 23.0213 2.35598 23.5308C1.80113 24.0403 0.136562 25.1499 0.0709885 25.3946C0.00541434 25.6392 0.469478 26.126 1.1353 25.9923C1.80113 25.8587 3.57667 25.1727 4.10882 24.9053C4.64098 24.638 4.77465 24.4841 4.77465 24.1739C4.77465 23.8637 5.17313 22.532 5.50604 22.2672C5.83896 21.9999 7.08232 20.4715 7.76832 19.4955C8.45685 18.5195 8.96635 17.6998 8.96635 17.6998C8.96635 17.6998 10.4518 17.9671 10.984 17.3442C11.5161 16.7237 13.3144 14.1487 13.3799 14.3051C13.4455 14.4614 14.9991 16.6001 15.4884 17.0339C16.6864 18.0982 17.443 17.5005 17.443 17.5005C17.443 17.5005 17.9726 18.0302 18.0609 18.2975C18.1492 18.5649 17.9197 19.8511 18.2551 20.6279C18.5931 21.4047 19.5237 23.4677 19.7229 24.0882C19.9222 24.7086 20.1442 25.1298 20.1214 25.2407C20.0988 25.3517 20.0559 26.6379 20.187 26.817C20.3207 26.9936 20.7191 27.1726 20.9411 27.2155C21.163 27.2609 21.5615 27.5939 22.25 27.6821C22.9386 27.7704 23.6044 27.7931 23.6927 27.5056C23.7809 27.218 23.7381 26.5523 23.2715 26.2849C22.8049 26.0176 22.4947 26.0402 22.2299 25.6417C21.9626 25.2433 21.6523 24.7994 21.6523 24.7994C21.6523 24.7994 20.699 18.2117 20.5426 17.5232C20.3863 16.8347 19.7432 16.0806 19.7432 16.0806C19.7432 16.0806 20.2097 15.6594 19.8541 15.3265C19.4985 14.9936 16.7494 11.9772 16.8604 11.9091C16.9714 11.8435 17.4152 11.7754 17.3497 10.7994C17.2841 9.82333 17.3951 9.33404 17.8819 8.57996C18.3711 7.82589 18.8579 7.02634 19.0572 6.38324C19.2564 5.74012 19.1227 5.34163 19.8339 5.18526C20.5452 5.02889 21.0319 4.87505 21.0319 4.87505C21.0319 4.87505 22.3182 5.36433 22.9184 5.51818C23.5161 5.67454 24.6712 5.85108 25.0698 6.1159C25.4682 6.38324 25.9575 7.22564 26.2223 7.26845C26.4896 7.31386 26.6662 7.26845 26.5098 7.00114C26.3535 6.73381 26.3106 6.53457 26.3106 6.53457C26.3106 6.53457 27.0647 6.73381 27.332 6.93307C27.5994 7.13231 28.1088 7.82084 28.1315 7.59886C28.1542 7.37695 28.0836 7.04402 27.7179 6.75651L27.723 6.76659Z" fill="#EED2D2"/>
</svg>
