<svg width="27" height="28" viewBox="0 0 27 28" fill="none" xmlns="http://www.w3.org/2000/svg">
<path d="M26.0234 1.43107L26.0789 1.26714C26.1344 1.1032 26.0789 0.7375 26.0058 0.626529C25.9326 0.515558 25.7863 0.974573 25.7409 1.20156C25.6956 1.43107 25.292 1.77659 25.0246 2.02123C24.7548 2.26335 24.6161 1.99853 24.553 1.78668C24.49 1.57735 24.3437 1.41089 24.2151 1.35793C24.0889 1.30496 24.2327 1.92287 24.3135 2.31632C24.3967 2.70976 24.606 3.12085 24.606 3.12085C24.606 3.12085 24.606 3.19904 24.5782 3.33523C24.5782 3.33523 24.4648 3.79929 24.4269 3.96827C24.3185 4.4626 24.1344 4.91657 23.7636 5.6858C23.3702 6.50799 23.113 6.77533 23.113 6.77533C23.113 6.77533 22.6413 6.79551 22.3109 6.81064C22.2983 6.78795 22.2907 6.77533 22.2907 6.77533C22.2907 6.77533 21.7157 6.71228 20.9288 6.37432C20.1445 6.03637 18.8179 6.25578 18.5455 6.31884C18.2706 6.38189 17.8141 6.28353 17.8141 6.28353C17.8141 6.28353 17.751 6.08177 17.7788 5.94557C17.8065 5.80938 17.862 5.79929 17.9704 5.7085C18.0789 5.6177 17.9805 5.48907 18.0537 5.46133C18.1268 5.43359 18.0814 5.07798 18.0814 5.07798C18.0814 5.07798 18.1545 4.96953 18.2453 4.84847C18.3361 4.72994 18.1999 4.57356 18.1268 4.40963C18.0537 4.24317 18.2731 3.14103 17.4963 2.566C16.7195 1.99097 15.3677 2.2457 14.9011 3.03258C14.4345 3.81695 14.7825 4.61392 14.9843 5.28984C15.1861 5.96575 14.949 6.57861 14.8557 6.56852C13.3475 6.41216 11.5215 7.32769 10.8279 7.49163C10.1344 7.6555 10.1167 7.96576 9.95028 8.0944C9.78634 8.22297 8.43448 8.67949 8.37903 8.67949C8.37903 8.67949 5.6577 7.34531 5.38279 7.14608C5.10789 6.94431 4.98179 6.30623 4.83551 6.06916C4.68922 5.83208 3.19111 5.64797 3.19111 5.64797C3.19111 5.64797 2.84307 6.41468 3.19111 6.81821C3.53916 7.2192 4.21508 7.49409 4.52529 7.65803C4.83551 7.82197 7.39288 10.3617 7.79641 10.3995C8.19741 10.4349 9.44078 10.17 9.44078 10.17L9.73335 10.1624C9.73335 10.1624 9.93512 10.4172 10.263 10.3995C10.5909 10.3819 11.3046 10.0339 11.7434 9.97837C12.1823 9.92285 12.2731 10.1801 12.5278 10.5635C12.7826 10.9468 12.9111 11.6782 12.838 12.3894C12.7649 13.1007 12.5454 14.0162 12.3992 14.4727C12.2529 14.9292 13.002 15.0401 13.002 15.0401C13.002 15.0401 12.1974 15.3504 11.7964 15.7337C11.3954 16.1171 11.0852 17.0679 10.9011 17.7438C10.7195 18.4197 9.20118 20.1372 9.2214 20.5559C9.23901 20.9771 9.9881 21.2873 9.9881 21.2873L9.38533 21.7615C9.38533 21.7615 8.81786 21.653 7.96034 21.7438C7.10284 21.8346 4.74471 21.9985 4.74471 21.9985L4.59843 21.817C4.45215 21.6354 3.52151 21.5622 3.04484 21.6354C2.57069 21.7085 2.62365 21.9456 2.36892 22.677C2.11419 23.4084 1.74849 23.6278 1.16337 24.4853C0.578253 25.3428 1.07258 26.5509 1.40045 26.4399C1.72832 26.3315 3.28191 24.4677 3.55682 24.2835C3.83172 24.1019 3.99566 24.1196 4.26804 24.102C4.54294 24.0843 4.66905 23.5546 4.66905 23.5546C4.66905 23.5546 4.87081 23.4992 5.28947 23.537C5.71066 23.5723 7.0978 23.6101 8.30338 23.7564C9.50892 23.9027 10.9515 23.4286 11.2617 23.2999C11.572 23.1713 14.4774 21.4538 14.5681 21.363C14.659 21.2722 14.8052 22.4223 14.8784 22.5332C14.9515 22.6417 15.5543 22.4979 15.5543 22.4979L15.7712 23.3025C15.7712 23.3025 13.2895 23.9229 13.234 23.9229C13.1785 23.9229 13.1054 23.9052 12.8683 23.7943C12.6312 23.6858 11.6249 23.7943 11.3348 23.8674C11.0423 23.9405 10.7321 24.6341 10.3664 24.8913C10.0007 25.1486 9.14322 26.9015 9.123 27.1007C9.10286 27.2999 9.57952 27.484 9.96284 27.3378C10.3462 27.1915 11.2416 26.2962 11.6426 26.059C12.0436 25.822 12.5001 25.9683 12.8128 25.9683C13.1255 25.9683 13.2517 25.6757 13.2517 25.6757C13.2517 25.6757 14.2756 25.5471 15.6804 25.474C17.0852 25.4008 17.746 25.5093 18.2025 25.0906C18.659 24.6694 18.896 23.2646 18.8607 21.9859C18.8254 20.7072 18.2756 16.5686 18.2756 16.5686C18.2756 16.5686 19.0978 16.2583 19.2264 15.938C19.3551 15.6177 18.9515 15.3352 19.1533 14.4298C19.3551 13.5244 19.5543 11.5975 19.5467 10.9595C19.5366 10.3188 19.8393 9.47897 20.205 9.18646C20.5707 8.89389 21.7384 8.83837 21.9124 8.75767C21.9603 8.735 22.0133 8.66938 22.0662 8.58117C22.3235 8.59626 22.8103 8.61394 23.1684 8.5559C23.6804 8.47267 24.2478 8.12212 24.5177 7.479C24.7876 6.83334 24.9061 6.11455 24.9767 5.63031C25.0474 5.14355 25.3147 4.05402 25.3324 3.79424C25.3324 3.78668 25.3878 3.39829 25.3853 3.33271C25.4837 3.2293 25.8368 2.85352 25.8998 2.72741C25.973 2.58113 26.0284 2.15994 26.0915 1.91279C26.1545 1.66562 26.0184 1.43611 26.0184 1.43611L26.0234 1.43107Z" fill="#EED2D2"/>
</svg>
