<svg width="36" height="31" viewBox="0 0 36 31" fill="none" xmlns="http://www.w3.org/2000/svg">
<path d="M30.8033 16.7363H28.0192C28.3029 17.525 28.458 18.3762 28.458 19.2633V29.9448C28.458 30.3146 28.3946 30.6697 28.2792 30.9999H32.8819C34.6013 30.9999 36 29.5799 36 27.8346V22.0117C36.0001 19.1029 33.6688 16.7363 30.8033 16.7363Z" fill="white"/>
<path d="M7.54208 19.2634C7.54208 18.3762 7.69712 17.5251 7.98091 16.7364H5.19681C2.33129 16.7364 0 19.1029 0 22.0118V27.8347C0 29.58 1.39873 31 3.11808 31H7.72089C7.60551 30.6697 7.54208 30.3147 7.54208 29.9448V19.2634Z" fill="white"/>
<path d="M21.1825 13.988H14.8176C11.9521 13.988 9.62081 16.3545 9.62081 19.2634V29.9448C9.62081 30.5275 10.0861 30.9999 10.6602 30.9999H25.3399C25.9139 30.9999 26.3793 30.5276 26.3793 29.9448V19.2634C26.3793 16.3545 24.048 13.988 21.1825 13.988Z" fill="white"/>
<path d="M18 0C14.5539 0 11.7502 2.84606 11.7502 6.34442C11.7502 8.71733 13.0404 10.7897 14.9457 11.8778C15.8495 12.3938 16.8913 12.6888 18 12.6888C19.1087 12.6888 20.1506 12.3938 21.0543 11.8778C22.9597 10.7897 24.2498 8.71726 24.2498 6.34442C24.2498 2.84613 21.4462 0 18 0Z" fill="white"/>
<path d="M7.0255 5.91345C4.44819 5.91345 2.35147 8.04189 2.35147 10.6582C2.35147 13.2745 4.44819 15.4029 7.0255 15.4029C7.67926 15.4029 8.30181 15.2655 8.86734 15.0184C9.84511 14.591 10.6513 13.8346 11.1502 12.8871C11.5003 12.222 11.6995 11.4634 11.6995 10.6582C11.6995 8.04196 9.60281 5.91345 7.0255 5.91345Z" fill="white"/>
<path d="M28.9746 5.91345C26.3973 5.91345 24.3005 8.04189 24.3005 10.6582C24.3005 11.4635 24.4997 12.2221 24.8499 12.8871C25.3488 13.8346 26.155 14.5911 27.1327 15.0184C27.6983 15.2655 28.3208 15.4029 28.9746 15.4029C31.5519 15.4029 33.6486 13.2745 33.6486 10.6582C33.6486 8.04189 31.5519 5.91345 28.9746 5.91345Z" fill="white"/>
</svg>
