<svg width="36" height="36" viewBox="0 0 36 36" fill="none" xmlns="http://www.w3.org/2000/svg">
<g clip-path="url(#clip0_2_47)">
<path d="M12.0527 31.9526H14.203V32.1341C14.203 34.2658 15.9373 36.0001 18.069 36.0001C20.2007 36.0001 21.935 34.2658 21.935 32.1341V31.9526H24.0853V27.2516H12.0527V31.9526Z" fill="white"/>
<path d="M17.0142 21.473L14.1471 19.6289V16.4536H16.2567V18.4775L18.069 19.643L19.8813 18.4775V16.4536H21.991V19.6289L19.1239 21.473V25.1418H24.2378C24.4253 24.5076 24.7807 23.9269 25.2749 23.4712C27.4534 21.4629 28.703 18.6125 28.703 15.651C28.703 9.78742 23.9326 5.01709 18.069 5.01709L17.9926 5.01737C15.1954 5.03706 12.5574 6.14323 10.5647 8.13203C8.5719 10.1209 7.46059 12.7566 7.43556 15.5538C7.40884 18.5399 8.64918 21.4174 10.8385 23.4484C11.3416 23.915 11.7036 24.5035 11.8955 25.1419H17.0143L17.0142 21.473Z" fill="white"/>
<path d="M16.9451 0H19.0548V2.85045H16.9451V0Z" fill="white"/>
<path d="M9.25702 2.6178L11.084 1.56296L12.5129 4.03779L10.6859 5.09262L9.25702 2.6178Z" fill="white"/>
<path d="M3.91191 8.73547L4.96675 6.90849L7.44157 8.33738L6.38674 10.1644L3.91191 8.73547Z" fill="white"/>
<path d="M2.3416 14.5962H5.19937V16.7059H2.3416V14.5962Z" fill="white"/>
<path d="M30.8006 14.5962H33.6584V16.7059H30.8006V14.5962Z" fill="white"/>
<path d="M28.5574 8.33691L31.0323 6.908L32.0872 8.73497L29.6123 10.1639L28.5574 8.33691Z" fill="white"/>
<path d="M23.4866 4.03845L24.9155 1.56363L26.7425 2.61846L25.3136 5.09329L23.4866 4.03845Z" fill="white"/>
</g>
<defs>
<clipPath id="clip0_2_47">
<rect width="36" height="36" fill="white"/>
</clipPath>
</defs>
</svg>
