<svg width="36" height="36" viewBox="0 0 36 36" fill="none" xmlns="http://www.w3.org/2000/svg">
<g clip-path="url(#clip0_2_28)">
<path d="M8.6676 12.0031L5.73261 13.6976C5.22812 13.9888 5.05529 14.6339 5.3466 15.1383C5.59438 15.5675 6.21102 15.857 6.7873 15.5243L9.72229 13.8298C10.2268 13.5385 10.3996 12.8935 10.1083 12.3891C9.81714 11.8846 9.17202 11.7119 8.6676 12.0031Z" fill="white"/>
<path d="M26.2778 13.8298L29.2128 15.5243C29.7762 15.8496 30.3993 15.5786 30.6535 15.1383C30.9448 14.6338 30.7719 13.9888 30.2675 13.6976L27.3325 12.003C26.828 11.7117 26.1829 11.8846 25.8918 12.389C25.6005 12.8935 25.7733 13.5385 26.2778 13.8298Z" fill="white"/>
<path d="M3.31413 8.88751H7.83283C9.23072 8.83562 9.22966 6.82954 7.83283 6.77814H3.31413C1.91625 6.83003 1.9173 8.83611 3.31413 8.88751Z" fill="white"/>
<path d="M22.2421 16.9453H13.7578C13.1753 16.9453 12.7031 17.4175 12.7031 18V36H23.2969V18C23.2968 17.4175 22.8247 16.9453 22.2421 16.9453ZM19.1296 30.3516H16.8703C15.4724 30.2997 15.4734 28.2936 16.8703 28.2422H16.9453V25.8302C16.6512 25.8506 16.3495 25.7489 16.1245 25.5239C15.7126 25.112 15.7126 24.4443 16.1245 24.0324L17.2542 22.9028C17.5558 22.601 18.0096 22.511 18.4036 22.6741C18.7977 22.8374 19.0547 23.222 19.0547 23.6485V28.2422H19.1296C20.5275 28.294 20.5264 30.3002 19.1296 30.3516Z" fill="white"/>
<path d="M34.9453 28.2422H26.4609C25.8785 28.2422 25.4062 28.7144 25.4062 29.2969V36H34.9453C35.5278 36 36 35.5278 36 34.9453V29.2969C36 28.7144 35.5278 28.2422 34.9453 28.2422Z" fill="white"/>
<path d="M9.53909 22.5938H1.05469C0.472219 22.5938 0 23.066 0 23.6485V34.9453C0 35.5278 0.472219 36 1.05469 36H10.5938V23.6485C10.5938 23.066 10.1216 22.5938 9.53909 22.5938Z" fill="white"/>
<path d="M27.1125 7.83282C27.1125 8.41529 27.5848 8.88751 28.1672 8.88751H32.686C34.0839 8.83562 34.0828 6.82954 32.686 6.77814H28.1672C27.5847 6.77814 27.1125 7.25036 27.1125 7.83282Z" fill="white"/>
<path d="M27.3326 3.6628L30.2675 1.96827C30.772 1.67703 30.9448 1.03199 30.6535 0.527566C30.3622 0.0230738 29.717 -0.149684 29.2128 0.14155L26.2779 1.83608C25.7734 2.12732 25.6006 2.77236 25.8919 3.27678C26.137 3.70133 26.7525 3.99784 27.3326 3.6628Z" fill="white"/>
<path d="M5.73298 1.96827L8.66789 3.6628C9.23131 3.98814 9.85442 3.71708 10.1086 3.27679C10.3999 2.77236 10.2271 2.12732 9.72258 1.83608L6.78767 0.141552C6.28318 -0.149823 5.6382 0.0230753 5.34696 0.527568C5.05566 1.03199 5.22849 1.67704 5.73298 1.96827Z" fill="white"/>
<path d="M22.3129 4.16967L20.728 4.07742L20.1508 2.59973C19.404 0.649968 16.5955 0.650812 15.8491 2.59973L15.272 4.07742L13.6871 4.16967C12.7309 4.22536 11.9217 4.85001 11.6253 5.76112C11.3289 6.67259 11.6165 7.65401 12.358 8.26123L13.5854 9.26719L13.1832 10.8035C12.9411 11.7308 13.2857 12.6934 14.0604 13.2557C14.8355 13.8189 15.8576 13.8487 16.6641 13.3315L18 12.4748L19.3359 13.3315C20.1425 13.8487 21.1645 13.8189 21.9396 13.2557C22.7143 12.6934 23.0588 11.7308 22.8168 10.8035L22.4146 9.26719L23.642 8.26123C24.3834 7.65408 24.6711 6.67266 24.3747 5.76112C24.0783 4.85009 23.2691 4.22536 22.3129 4.16967Z" fill="white"/>
</g>
<defs>
<clipPath id="clip0_2_28">
<rect width="36" height="36" fill="white"/>
</clipPath>
</defs>
</svg>
