<svg width="36" height="23" viewBox="0 0 36 23" fill="none" xmlns="http://www.w3.org/2000/svg">
<path d="M19.0547 16.8608H36V1.04943C36 0.469865 35.5278 0 34.9453 0H19.0547V16.8608ZM24.0908 8.43042C24.0908 7.85085 24.563 7.38099 25.1455 7.38099H28.8545V4.73992H25.1455C24.563 4.73992 24.0908 4.27006 24.0908 3.69049C24.0908 3.11093 24.563 2.64106 25.1455 2.64106H29.9092C30.4916 2.64106 30.9639 3.11093 30.9639 3.69049V8.43042C30.9639 9.00998 30.4916 9.47985 29.9092 9.47985H26.2002V12.1209H29.9092C30.4916 12.1209 30.9639 12.5908 30.9639 13.1703C30.9639 13.7499 30.4916 14.2198 29.9092 14.2198H25.1455C24.563 14.2198 24.0908 13.7499 24.0908 13.1703V8.43042Z" fill="white"/>
<path d="M16.9453 0H1.05469C0.472219 0 0 0.469865 0 1.04943V16.8608H16.9453V0ZM11.9092 13.1703C11.9092 13.7499 11.437 14.2198 10.8545 14.2198C10.272 14.2198 9.7998 13.7499 9.7998 13.1703V9.47985H6.09082C5.50835 9.47985 5.03613 9.00998 5.03613 8.43042V3.69049C5.03613 3.11093 5.50835 2.64106 6.09082 2.64106C6.67329 2.64106 7.14551 3.11093 7.14551 3.69049V7.38099H9.7998V3.69049C9.7998 3.11093 10.272 2.64106 10.8545 2.64106C11.437 2.64106 11.9092 3.11093 11.9092 3.69049V13.1703Z" fill="white"/>
<path d="M0 18.9597V21.9506C0 22.5301 0.472219 23 1.05469 23H34.9453C35.5278 23 36 22.5301 36 21.9506V18.9597H0Z" fill="white"/>
</svg>
