<svg width="32" height="32" viewBox="0 0 32 32" fill="none" xmlns="http://www.w3.org/2000/svg">
<g clip-path="url(#clip0_2_72)">
<path d="M22.5914 12.2258H31.0661V32H22.5914V12.2258Z" fill="white"/>
<path d="M11.2919 17.8755H20.7082V32H11.2919V17.8755Z" fill="white"/>
<path d="M0.93396 21.642H9.40862V31.9999H0.93396V21.642Z" fill="white"/>
<path d="M30.1245 8.45927C30.1245 7.12184 29.563 5.91386 28.6645 5.05591C27.039 7.06855 23.793 7.06779 22.1682 5.05591C21.2697 5.91386 20.7082 7.12184 20.7082 8.45927V10.3425H30.1245V8.45927Z" fill="white"/>
<path d="M25.4163 4.69273C26.7144 4.69273 27.7704 3.63673 27.7704 2.33866C27.6521 -0.780075 23.1801 -0.779196 23.0623 2.33866C23.0623 3.63673 24.1183 4.69273 25.4163 4.69273Z" fill="white"/>
<path d="M6.12676 17.5998L12.8726 10.8539L13.1934 12.4578L15.0402 12.0885L14.2511 8.14369L10.3064 7.35486L9.93709 9.20146L11.541 9.52224L4.7951 16.2681L6.12676 17.5998Z" fill="white"/>
</g>
<defs>
<clipPath id="clip0_2_72">
<rect width="32" height="32" fill="white"/>
</clipPath>
</defs>
</svg>
