<svg width="14" height="14" viewBox="0 0 14 14" fill="none" xmlns="http://www.w3.org/2000/svg">
<path d="M1.58334 7.00004C1.58334 3.87043 4.12039 1.33337 7.25 1.33337C10.3796 1.33337 12.9167 3.87043 12.9167 7.00004C12.9167 10.1297 10.3796 12.6667 7.25 12.6667C4.12039 12.6667 1.58334 10.1297 1.58334 7.00004ZM7.25 0.333374C3.5681 0.333374 0.583336 3.31814 0.583336 7.00004C0.583336 10.6819 3.5681 13.6667 7.25 13.6667C10.9319 13.6667 13.9167 10.6819 13.9167 7.00004C13.9167 3.31814 10.9319 0.333374 7.25 0.333374ZM7.24544 3.43222C7.21231 3.18826 7.003 3.00004 6.75 3.00004C6.474 3.00004 6.25 3.22404 6.25 3.50004V7.50004L6.25457 7.56786C6.2877 7.81182 6.497 8.00004 6.75 8.00004H9.41667L9.48449 7.99547C9.72845 7.96235 9.91667 7.75304 9.91667 7.50004C9.91667 7.22404 9.69267 7.00004 9.41667 7.00004H7.25V3.50004L7.24544 3.43222Z" fill="#68A7F4"/>
</svg>
