<svg width="30" height="31" viewBox="0 0 30 31" fill="none" xmlns="http://www.w3.org/2000/svg">
<mask id="mask0_3114_18938" style="mask-type:alpha" maskUnits="userSpaceOnUse" x="3" y="2" width="24" height="27">
<path fill-rule="evenodd" clip-rule="evenodd" d="M20.124 8.93924L21.0476 8.41278C21.1631 7.90248 21.461 7.58845 22.0867 7.68775C22.186 7.17744 22.4977 6.86342 23.0265 7.07816C23.0265 6.66716 23.5368 6.25383 24.1649 6.45241C23.9501 6.25383 24.6752 5.62809 25.2039 5.84283L26.0282 5.43182L26.5386 6.25615C26.2269 6.45472 25.9128 6.66716 25.5988 6.86573C25.5988 7.49147 25.0885 7.59077 24.5782 7.59077C24.6774 8.00177 24.1649 8.41508 23.6384 8.11722C23.5392 8.62751 23.2273 8.94154 22.6155 8.72681C22.5 9.35255 22.0891 9.55112 21.4632 9.35255L20.639 9.86285L20.1287 8.93924H20.124ZM22.8579 12.4005H23.0542C23.5669 12.4005 23.8786 12.8114 23.8786 13.2247V28.6144H21.8189V13.4395C21.8189 12.913 22.2322 12.4005 22.8579 12.4005ZM14.6817 12.4998H14.8802C15.2913 12.4005 15.82 12.7145 15.9194 13.2247L18.9188 28.6099L16.5451 28.6144L13.7442 13.7374C13.6449 13.2271 14.0559 12.599 14.6839 12.5021L14.6817 12.4998ZM10.5439 12.4005H10.7425C11.2689 12.4005 11.6823 12.8114 11.6823 13.2247V28.6144H9.50715V13.4395C9.50715 12.913 9.91816 12.4005 10.5439 12.4005ZM4.52658 5.56344L5.3509 6.0899C5.97664 5.87515 6.29067 5.97445 6.48925 6.60019C7.01571 6.38545 7.42903 6.48474 7.52831 7.11049C7.93932 6.89574 8.56507 7.11049 8.56507 7.73623C8.7798 7.5215 9.70342 7.83552 9.60413 8.34581L10.4285 8.87227L10.0174 9.79588C9.70341 9.5973 9.3917 9.38487 8.97838 9.28559C8.3688 9.48417 8.05477 9.17014 7.84004 8.65984C7.52831 8.97387 6.91643 8.65984 6.91643 8.14955C6.38997 8.34813 6.07594 8.24883 5.87967 7.5238C5.3509 7.73854 4.9399 7.5238 4.74132 6.89806L3.91699 6.38776L4.52658 5.56344Z" fill="black"/>
<path fill-rule="evenodd" clip-rule="evenodd" d="M15.8429 2.38623C16.4155 2.38623 16.9605 2.56633 17.413 2.89883C16.628 3.16898 15.8706 3.53151 15.1779 3.95405C14.4205 4.43895 13.6931 5.01159 13.0927 5.67659C13.0628 5.52419 13.0304 5.34409 13.0304 5.19169C13.0304 3.65158 14.3027 2.38623 15.8429 2.38623ZM17.5954 3.0189C17.6577 3.07894 17.7155 3.13897 17.8078 3.19901C17.8379 3.23133 17.9002 3.29137 17.9279 3.3514C17.0505 3.62387 16.2654 3.98408 15.5381 4.46897C14.6953 4.98158 13.9332 5.58654 13.2682 6.34159C13.2383 6.24923 13.2106 6.12916 13.1806 6.03911C13.1505 6.00909 13.1505 5.94905 13.1182 5.91904C13.7532 5.19401 14.4805 4.59135 15.2956 4.10876C15.9952 3.6562 16.7757 3.3237 17.5931 3.02352L17.5954 3.0189ZM18.048 3.50148C18.1103 3.56383 18.1403 3.62387 18.1681 3.6839C18.1981 3.71392 18.2304 3.77395 18.2604 3.80397C17.3553 4.10415 16.5079 4.49668 15.7505 4.98158C14.9354 5.46416 14.2081 6.09915 13.5431 6.79186C13.5131 6.73182 13.4507 6.67179 13.423 6.61175C13.393 6.57942 13.393 6.5494 13.3606 6.51939C14.0303 5.76433 14.7807 5.12935 15.6305 4.61675C16.3578 4.16418 17.1729 3.77165 18.048 3.49918V3.50148ZM18.3504 3.98638C18.3805 4.04642 18.4082 4.10645 18.4428 4.16648C18.5629 4.49898 18.6206 4.83148 18.6206 5.19169C18.6206 6.73412 17.383 7.97176 15.8406 7.97176C14.9932 7.97176 14.2704 7.60925 13.7555 7.0343C13.7255 7.00429 13.6931 6.97426 13.6632 6.94425C14.2981 6.24923 15.0254 5.64658 15.8406 5.13166C16.5979 4.64908 17.4453 4.28655 18.3504 3.98408V3.98638Z" fill="black"/>
</mask>
<g mask="url(#mask0_3114_18938)">
<rect x="-2.1123" y="0.106934" width="34.4815" height="30.787" fill="#68A7F4"/>
</g>
</svg>
