<svg width="29" height="29" viewBox="0 0 29 29" fill="none" xmlns="http://www.w3.org/2000/svg">
<path opacity="0.2" d="M14.0444 0.420334C21.8009 0.420334 28.0888 6.70822 28.0888 14.4647C28.0888 22.2212 21.8009 28.5091 14.0444 28.5091C6.28789 28.5091 0 22.2212 0 14.4647C0 6.70822 6.28789 0.420334 14.0444 0.420334ZM14.0444 2.52667C7.45118 2.52667 2.10633 7.87151 2.10633 14.4647C2.10633 21.0579 7.45118 26.4028 14.0444 26.4028C20.6376 26.4028 25.9824 21.0579 25.9824 14.4647C25.9824 7.87151 20.6376 2.52667 14.0444 2.52667ZM14.0393 12.357C14.5724 12.3567 15.0133 12.7526 15.0834 13.2666L15.0931 13.4095L15.0982 21.135C15.0986 21.7166 14.6274 22.1884 14.0457 22.1888C13.5125 22.1892 13.0716 21.7932 13.0016 21.2792L12.9919 21.1363L12.9868 13.4109C12.9864 12.8292 13.4576 12.3574 14.0393 12.357ZM14.045 7.4454C14.8195 7.4454 15.4474 8.07325 15.4474 8.84774C15.4474 9.62223 14.8195 10.2501 14.045 10.2501C13.2705 10.2501 12.6427 9.62223 12.6427 8.84774C12.6427 8.07325 13.2705 7.4454 14.045 7.4454Z" fill="#27273A"/>
</svg>
