<svg id="Layer_1" xmlns="http://www.w3.org/2000/svg" viewBox="0 0 750 292.59">

    <path fill="#68a7f4" d="M730.31 14.36c10.86 0 19.69 8.83 19.69 19.69s-8.83 19.7-19.69 19.7-19.7-8.84-19.7-19.7 8.84-19.69 19.7-19.69Zm0 36.8c9.49 0 17.1-7.62 17.1-17.11s-7.61-17.1-17.1-17.1-17.1 7.61-17.1 17.1 7.62 17.11 17.1 17.11Z"/>
    <path fill="#ea1832" d="M686.19 292.32H314.15c-5.33 0-9.66-4.33-9.66-9.66 0-5.34 4.32-9.66 9.66-9.66h372.04c5.34 0 9.66 4.32 9.66 9.66 0 5.33-4.32 9.66-9.66 9.66Z"/>
    <path fill="#68a7f4" d="M730.31 14.36c10.86 0 19.69 8.83 19.69 19.69s-8.83 19.7-19.69 19.7-19.7-8.84-19.7-19.7 8.84-19.69 19.7-19.69Zm0 36.8c9.49 0 17.1-7.62 17.1-17.11s-7.61-17.1-17.1-17.1-17.1 7.61-17.1 17.1 7.62 17.11 17.1 17.11Zm5.84-8.03-3.9-6.73h-6.56v6.73h-2.43V24.08h8.75c4.13 0 6.48 2.84 6.48 6.16 0 2.52-1.37 4.78-3.81 5.67l4.21 7.21h-2.75Zm-10.46-16.62v7.46h6.25c2.59 0 4.12-1.86 4.12-3.72s-1.53-3.73-4.12-3.73h-6.25Z"/>
    <path fill="#ea1832" d="M686.19 292.32H314.15c-5.33 0-9.66-4.33-9.66-9.66 0-5.34 4.32-9.66 9.66-9.66h372.04c5.34 0 9.66 4.32 9.66 9.66 0 5.33-4.32 9.66-9.66 9.66Z"/>
    <path fill="#68a7f4" d="M308.02 118.68h31.79c10.86 0 18.78 2.53 23.75 7.57 4.98 5.04 7.46 12.81 7.46 23.27v5.36c0 6.91-1.11 12.52-3.35 16.87-2.24 4.33-5.65 7.46-10.24 9.39v.37c10.47 3.58 15.7 12.9 15.7 27.97v11.49c0 10.35-2.72 18.22-8.14 23.66-5.42 5.43-13.38 8.14-23.85 8.14h-33.13V118.68Zm29.31 54.6c4.21 0 7.37-1.09 9.48-3.26 2.11-2.17 3.16-5.81 3.16-10.92v-7.46c0-4.86-.86-8.37-2.58-10.55-1.73-2.16-4.44-3.24-8.14-3.24H329.1v35.43h8.24Zm3.83 60.34c3.7 0 6.45-1 8.24-2.98 1.78-1.98 2.68-5.4 2.68-10.24v-11.69c0-6.13-1.06-10.37-3.16-12.74-2.11-2.37-5.59-3.54-10.44-3.54h-9.39v41.19h12.07ZM396.02 245.96c-5.36-5.81-8.04-14.15-8.04-24.99V118.68h21.07V222.5c0 4.6.93 7.91 2.78 9.96 1.85 2.05 4.5 3.07 7.95 3.07s6.1-1.02 7.95-3.07c1.84-2.05 2.78-5.36 2.78-9.96V118.68h20.3v102.29c0 10.85-2.68 19.19-8.04 24.99-5.36 5.81-13.16 8.71-23.37 8.71s-18-2.9-23.36-8.71ZM472.88 118.68h21.07v114.94h34.67v19.15h-55.73V118.68ZM554.24 118.68h21.06v114.94h34.67v19.15h-55.72V118.68ZM639.91 245.96c-5.24-5.81-7.86-14.15-7.86-24.99v-7.66h19.92v9.19c0 8.68 3.63 13.02 10.92 13.02 3.56 0 6.29-1.05 8.14-3.15 1.85-2.12 2.78-5.52 2.78-10.26 0-5.61-1.28-10.56-3.83-14.84-2.57-4.28-7.29-9.41-14.18-15.41-8.68-7.66-14.75-14.59-18.19-20.79-3.46-6.2-5.18-13.18-5.18-20.97 0-10.6 2.69-18.81 8.05-24.62 5.36-5.81 13.15-8.71 23.37-8.71s17.71 2.9 22.87 8.71c5.19 5.81 7.77 14.14 7.77 24.99v5.56h-19.92v-6.89c0-4.6-.89-7.94-2.69-10.06-1.78-2.1-4.4-3.15-7.86-3.15-7.02 0-10.53 4.28-10.53 12.83 0 4.86 1.3 9.39 3.92 13.61 2.62 4.2 7.38 9.32 14.27 15.32 8.82 7.66 14.88 14.63 18.21 20.88 3.31 6.25 4.97 13.59 4.97 22.02 0 10.99-2.71 19.42-8.14 25.3-5.41 5.86-13.31 8.8-23.64 8.8s-17.96-2.9-23.18-8.71ZM307.34 15.58h35.41v12.17h-22.03v23.73H338v12.17h-17.28v37.11h-13.38V15.58ZM371.41 15.58h18.14l13.87 85.17h-13.38l-2.43-16.91v.24H372.4l-2.44 16.67h-12.41l13.87-85.17Zm14.61 56.95-5.97-42.1h-.24l-5.84 42.1h12.05ZM417.47 15.58h16.79l13.02 50.98h.25V15.58h11.92v85.17H445.7l-16.06-62.18h-.25v62.18h-11.92V15.58ZM489.75 27.75h-13.99V15.58h41.37v12.17h-14v73.01h-13.38V27.75ZM545.37 15.58h18.14l13.86 85.17h-13.38l-2.43-16.91v.24h-15.21l-2.43 16.67H531.5l13.88-85.17Zm14.61 56.95L554 30.43h-.24l-5.83 42.1h12.05ZM597.44 96.43c-3.33-3.68-4.99-8.98-4.99-15.88v-4.86h12.65v5.84c0 5.51 2.32 8.27 6.95 8.27 2.27 0 3.98-.67 5.17-2.01 1.17-1.33 1.76-3.5 1.76-6.51 0-3.56-.8-6.71-2.43-9.43-1.63-2.71-4.63-5.98-9.01-9.79-5.5-4.87-9.36-9.27-11.55-13.21-2.19-3.93-3.29-8.37-3.29-13.32 0-6.74 1.72-11.95 5.12-15.64 3.4-3.69 8.36-5.54 14.85-5.54s11.26 1.85 14.53 5.54c3.29 3.69 4.94 8.99 4.94 15.88v3.53h-12.65v-4.38c0-2.92-.57-5.05-1.7-6.39-1.15-1.33-2.82-2-4.99-2-4.46 0-6.69 2.71-6.69 8.15 0 3.08.82 5.96 2.49 8.64 1.66 2.68 4.68 5.92 9.07 9.74 5.59 4.86 9.45 9.29 11.55 13.26 2.12 3.98 3.16 8.64 3.16 13.99 0 6.97-1.72 12.33-5.17 16.06-3.44 3.73-8.45 5.59-15.03 5.59s-11.39-1.85-14.72-5.54ZM663.7 64.5l-16.2-48.91h14.24l9.12 31.27h.26l9.12-31.27h13.02L677.08 64.5v36.26H663.7V64.5Z"/>
    <path fill="#ea1832" d="m52.23 104.65 14.56 2.15-10.67 29.21-12.66-10.06 8.77-21.3zM41.92 95.65l4.41 6.19-8.79 19.89-11.26-9.48 15.64-16.6zM16.48 79.83l15.48 1.55 5.8 8.69-14.71 14.26-6.57-24.5zM19.29 72.79l16.45-19.95 5.96 5.12-9.58 16.44-12.83-1.61zM56.07 33.11 45.25 51.48l-4.93-4.37 12.06-14.99-.33-6.26 4.02 7.25zM191.73 104.65l-14.56 2.15 10.67 29.21 12.66-10.06-8.77-21.3zM202.04 95.65l-4.41 6.19 8.79 19.89 11.26-9.48-15.64-16.6zM227.48 79.83l-15.49 1.55-5.79 8.69 14.71 14.26 6.57-24.5zM224.68 72.79l-16.47-19.95-5.95 5.12 9.58 16.44 12.84-1.61zM187.89 33.11l10.83 18.37 4.92-4.37-12.06-14.99.33-6.26-4.02 7.25z"/>
    <path fill="#68a7f4" d="M137.09 292.59h-29.7l-30.24-14.67 4-35.09 10.16-14.23-6-51.22-29.04-31.14 14.76-41.15h102.42c4.92 13.72 9.83 27.43 14.75 41.15l-29.03 31.14-6 51.22 10.16 14.23 4 35.09-30.24 14.67Zm-28.56-4.96h27.42l26.04-12.64-3.45-30.31-10.53-14.75 6.41-54.74 28.08-30.12-12.55-35.01H74.52l-12.56 35.01 28.08 30.12 6.42 54.74-10.53 14.75-3.45 30.31 26.05 12.64Z"/>
    <path fill="#68a7f4" d="M83.54 246.24c-1.37 0-2.48-1.12-2.48-2.48v-21.3l-19.08-70.51c-.36-1.32.43-2.69 1.75-3.05 1.32-.36 2.69.43 3.05 1.75l19.16 70.83c.06.21.09.43.09.65v21.63a2.48 2.48 0 0 1-2.48 2.48ZM160.94 246.24c-1.37 0-2.48-1.1-2.49-2.46l-.17-21.63c0-.23.03-.46.1-.68L178 150.33c.37-1.32 1.73-2.1 3.05-1.73 1.33.37 2.1 1.73 1.74 3.05l-19.53 70.81.17 21.28c.01 1.37-1.1 2.49-2.47 2.5h-.02ZM165.4 107.58h-1.25v-7.63l-42.6-10.23-41.78 10.51v7.35h-1.24v-8.32l43.02-10.82.15.03 43.7 10.5v8.61zM59.12 148.15c-.55 0-1.09-.18-1.55-.54l-20.72-16.57a2.49 2.49 0 0 1-.39-3.49 2.481 2.481 0 0 1 3.49-.39l20.71 16.57c1.07.86 1.25 2.42.39 3.49-.49.62-1.21.93-1.94.93ZM185.36 148.15c-.72 0-1.45-.32-1.94-.93a2.49 2.49 0 0 1 .38-3.49l21-16.85c1.07-.86 2.62-.69 3.48.38a2.48 2.48 0 0 1-.38 3.49l-21 16.85c-.46.37-1.01.55-1.56.55Z"/>
    <path fill="#68a7f4" d="M211.92 171.35h-17.98l-17.89-4.25 1.15-4.83 17.32 4.12h15.65l24.16-19.56 3.43-26.66-11.6 9.23-28.4 3.06 24.84-20.18 9.33-36.22-37.89-45.62V17.1l-9.27 14.62 26.06 46.65-16.33 23.36-26.53 3.18v-7.37l-46.1-11.39-45.58 11.39v7.37l-26.53-3.18-16.34-23.36 26.07-46.65-9.27-14.62v13.34l-37.9 45.62 9.34 36.22 24.84 20.18-28.41-3.06-11.6-9.23 3.44 26.66 24.16 19.56h15.65l17.31-4.12 1.15 4.83-17.87 4.25h-18L5.26 149.44 0 108.66l20.06 15.95 10.26 1.12-13.06-10.63L6.88 74.84l38.37-46.2V0l20.02 31.56-25.99 46.51 13.28 18.99 18.76 2.25v-5.65l50.54-12.63 51.08 12.62v5.66l18.76-2.25 13.28-18.99-25.99-46.51L199.01 0v28.64l38.37 46.2L227 115.1l-13.07 10.63 10.27-1.12 20.05-15.95-5.25 40.78-27.08 21.91z"/>
    <path fill="#68a7f4" d="M67.94 162.62c-.13 0-.27-.05-.39-.14l-42.69-34.62a.61.61 0 0 1-.09-.87c.22-.27.61-.31.88-.09l42.69 34.62a.616.616 0 0 1-.38 1.1ZM43.68 169.49c-.14 0-.27-.04-.39-.14L6 139.21a.622.622 0 0 1-.09-.88c.21-.27.6-.31.87-.09l37.3 30.14c.27.22.31.6.09.87-.13.15-.3.23-.49.23ZM176.32 162.62c-.18 0-.36-.08-.49-.23a.62.62 0 0 1 .1-.87l42.69-34.62c.26-.21.66-.18.87.09.21.26.17.66-.1.87l-42.69 34.62c-.11.09-.25.14-.38.14ZM200.58 169.49c-.18 0-.36-.08-.48-.23a.627.627 0 0 1 .09-.87l37.3-30.14a.61.61 0 0 1 .87.09c.21.27.18.66-.1.88l-37.29 30.14c-.12.09-.26.14-.39.14ZM102.1 253.27h3.29l2.56 16.48-9.33-2.27 3.48-14.21zM143.21 253.27h-3.29l-2.55 16.48 9.32-2.27-3.48-14.21z"/>
</svg>
