<svg width="21" height="28" viewBox="0 0 21 28" fill="none" xmlns="http://www.w3.org/2000/svg">
<g clip-path="url(#clip0_5024_8327)">
<path fill-rule="evenodd" clip-rule="evenodd" d="M3.05325 16.2285H18.3578V22.9915L10.7077 27.4094L3.05325 22.9915V16.2285Z" fill="url(#paint0_radial_5024_8327)"/>
<path fill-rule="evenodd" clip-rule="evenodd" d="M10.7077 25.7892L3.05325 21.3713V22.9918L10.7077 27.4097L18.3578 22.9918V21.3713L10.7077 25.7892Z" fill="url(#paint1_radial_5024_8327)"/>
<path fill-rule="evenodd" clip-rule="evenodd" d="M10.7078 1.9209L14.8271 4.30112L18.9507 6.68135V11.4374V16.1978L14.8271 18.5781L10.7078 20.9583L6.58412 18.5781L2.46045 16.1978V11.4374V6.68135L6.58412 4.30112L10.7078 1.9209Z" fill="url(#paint2_radial_5024_8327)"/>
<path fill-rule="evenodd" clip-rule="evenodd" d="M10.7082 -0.09021L15.7014 2.79065L20.6946 5.67151V17.1993L15.7014 20.0802L10.7082 22.9611L5.71503 20.0802L0.721832 17.2037V5.6759L5.71503 2.79504L10.7082 -0.09021ZM10.7082 2.21097L14.7045 4.51653L18.7009 6.8221V16.0532L14.7045 18.3587L10.7082 20.6643L6.71192 18.3587L2.7156 16.0532V6.82649L6.71192 4.52092L10.7082 2.21536V2.21097Z" fill="#999999"/>
<path fill-rule="evenodd" clip-rule="evenodd" d="M6.21128 3.65579C7.7088 2.79065 9.20632 1.92551 10.7038 1.06038V-0.09021L5.71064 2.79065L0.721832 5.6759L1.71872 6.2512C3.21624 5.38606 4.71376 4.52092 6.21128 3.65579Z" fill="url(#paint3_radial_5024_8327)"/>
<path fill-rule="evenodd" clip-rule="evenodd" d="M10.708 1.05981C9.2105 1.92495 7.71298 2.79009 6.21546 3.65522C4.71794 4.52036 3.22042 5.3855 1.7229 6.25063L2.71978 6.82593L6.7161 4.52036L10.7124 2.21479V1.06421L10.708 1.05981Z" fill="url(#paint4_radial_5024_8327)"/>
<path fill-rule="evenodd" clip-rule="evenodd" d="M10.7078 1.06001C12.2053 1.92515 13.7028 2.79028 15.2003 3.65542C16.6978 4.52056 18.1954 5.38569 19.6929 6.25083L20.6898 5.67554L15.6966 2.79468L10.7078 -0.0905762V1.06001Z" fill="url(#paint5_radial_5024_8327)"/>
<path fill-rule="evenodd" clip-rule="evenodd" d="M15.2003 3.65522C13.7028 2.79009 12.2053 1.92495 10.7078 1.05981V2.2104L14.7041 4.51597L18.7004 6.82154L19.6973 6.24624C18.1998 5.38111 16.7022 4.51597 15.2047 3.65083L15.2003 3.65522Z" fill="url(#paint6_radial_5024_8327)"/>
<path fill-rule="evenodd" clip-rule="evenodd" d="M18.7003 6.82627V16.0573L19.6972 16.6326V6.25098L18.7003 6.82627Z" fill="url(#paint7_radial_5024_8327)"/>
<path fill-rule="evenodd" clip-rule="evenodd" d="M19.6973 6.25095V16.6326L20.6942 17.2079V5.67566L19.6973 6.25095Z" fill="url(#paint8_radial_5024_8327)"/>
<path fill-rule="evenodd" clip-rule="evenodd" d="M1.71814 11.4374V6.24656L0.721252 5.67126V17.1991L1.71814 16.6238V11.433V11.4374Z" fill="url(#paint9_radial_5024_8327)"/>
<path fill-rule="evenodd" clip-rule="evenodd" d="M1.71826 6.25098V16.6326L2.71514 16.0573V6.82627L1.71826 6.25098Z" fill="url(#paint10_radial_5024_8327)"/>
<path fill-rule="evenodd" clip-rule="evenodd" d="M6.71146 18.3629L2.71515 16.0574L1.71826 16.6327C3.21578 17.4978 4.7133 18.3629 6.21082 19.2281C7.70834 20.0932 9.20587 20.9583 10.7034 21.8235V20.6729L6.70707 18.3673L6.71146 18.3629Z" fill="url(#paint11_radial_5024_8327)"/>
<path fill-rule="evenodd" clip-rule="evenodd" d="M6.2107 19.2235C4.71318 18.3583 3.21566 17.4932 1.71814 16.6281L0.721252 17.2033L5.71445 20.0842L10.7077 22.9651V21.8145C9.21013 20.9493 7.71261 20.0842 6.21509 19.2191L6.2107 19.2235Z" fill="url(#paint12_radial_5024_8327)"/>
<path fill-rule="evenodd" clip-rule="evenodd" d="M14.7041 18.3629L10.7078 20.6685V21.8191C12.2053 20.954 13.7028 20.0888 15.2003 19.2237C16.6978 18.3585 18.1954 17.4934 19.6929 16.6283L18.696 16.053L14.6997 18.3585L14.7041 18.3629Z" fill="url(#paint13_radial_5024_8327)"/>
<path fill-rule="evenodd" clip-rule="evenodd" d="M15.2003 19.2233C13.7028 20.0885 12.2053 20.9536 10.7078 21.8188V22.9693L15.701 20.0885L20.6942 17.2076L19.6973 16.6323C18.1998 17.4975 16.7022 18.3626 15.2047 19.2277L15.2003 19.2233Z" fill="url(#paint14_radial_5024_8327)"/>
<path style="mix-blend-mode:screen" fill-rule="evenodd" clip-rule="evenodd" d="M5.53036 4.04648L10.6114 0.981175L10.7036 0.0413818L10.7783 0.968L13.7118 2.79489L10.7036 1.18758L5.53036 4.04209V4.04648Z" fill="url(#paint15_radial_5024_8327)"/>
<path style="mix-blend-mode:screen" fill-rule="evenodd" clip-rule="evenodd" d="M5.37681 4.13855L1.67473 6.11475L1.0687 5.87761L1.60007 6.30359L1.71865 11.9994L1.88552 6.3475L5.37681 4.13855Z" fill="url(#paint16_radial_5024_8327)"/>
<path style="mix-blend-mode:screen" fill-rule="evenodd" clip-rule="evenodd" d="M3.96268 17.9281L10.6027 22.0079L10.7081 22.6973L10.8003 22.0079L14.2126 19.7945L10.7081 21.639L3.96268 17.9281Z" fill="url(#paint17_radial_5024_8327)"/>
<path fill-rule="evenodd" clip-rule="evenodd" d="M10.7074 5.58337L12.4333 9.06149L16.2759 9.628L13.5005 12.3464L14.1504 16.1758L10.7074 14.3753L7.26446 16.1758L7.91002 12.3464L5.13455 9.628L8.97716 9.06149L10.7074 5.58337Z" fill="#B05B00"/>
<path fill-rule="evenodd" clip-rule="evenodd" d="M10.7075 11.4374L5.13464 9.62805L7.91011 12.3464L10.7075 11.4374Z" fill="url(#paint18_radial_5024_8327)"/>
<path fill-rule="evenodd" clip-rule="evenodd" d="M5.13464 9.62828L10.7075 11.4376L8.97726 9.06177L5.13464 9.62828Z" fill="url(#paint19_radial_5024_8327)"/>
<path fill-rule="evenodd" clip-rule="evenodd" d="M8.97736 9.06136L10.7076 11.4372V5.58325L8.97736 9.06136Z" fill="url(#paint20_radial_5024_8327)"/>
<path fill-rule="evenodd" clip-rule="evenodd" d="M10.7076 5.58325V11.4372L12.4334 9.06136L10.7076 5.58325Z" fill="url(#paint21_radial_5024_8327)"/>
<path fill-rule="evenodd" clip-rule="evenodd" d="M12.4334 9.06177L10.7076 11.4376L16.276 9.62828L12.4334 9.06177Z" fill="url(#paint22_radial_5024_8327)"/>
<path fill-rule="evenodd" clip-rule="evenodd" d="M16.276 9.62805L10.7076 11.4374L13.5006 12.3464L16.276 9.62805Z" fill="url(#paint23_radial_5024_8327)"/>
<path fill-rule="evenodd" clip-rule="evenodd" d="M13.5006 12.3466L10.7076 11.4375L14.1505 16.176L13.5006 12.3466Z" fill="url(#paint24_radial_5024_8327)"/>
<path fill-rule="evenodd" clip-rule="evenodd" d="M14.1505 16.176L10.7076 11.4375V14.3755L14.1505 16.176Z" fill="url(#paint25_radial_5024_8327)"/>
<path fill-rule="evenodd" clip-rule="evenodd" d="M10.708 14.3755V11.4375L7.26501 16.176L10.708 14.3755Z" fill="url(#paint26_radial_5024_8327)"/>
<path fill-rule="evenodd" clip-rule="evenodd" d="M7.26501 16.176L10.708 11.4375L7.91057 12.3466L7.26501 16.176Z" fill="url(#paint27_radial_5024_8327)"/>
<path style="mix-blend-mode:screen" fill-rule="evenodd" clip-rule="evenodd" d="M5.98669 9.90485L10.431 11.0598C10.3256 10.8139 10.1367 10.3616 10.1499 10.2474L10.7032 5.85144V11.4375L5.98669 9.90485Z" fill="url(#paint28_radial_5024_8327)"/>
<path style="mix-blend-mode:screen" fill-rule="evenodd" clip-rule="evenodd" d="M10.7076 11.4375C10.9228 11.1388 11.3048 10.8622 11.8538 10.7304L15.8106 9.77747L10.7032 11.4375H10.7076Z" fill="url(#paint29_radial_5024_8327)"/>
<path style="mix-blend-mode:screen" fill-rule="evenodd" clip-rule="evenodd" d="M10.708 11.4375C10.1591 11.7844 9.49593 12.3685 9.3027 12.7023L7.26501 16.176L10.708 11.4375Z" fill="url(#paint30_radial_5024_8327)"/>
</g>
<defs>
<radialGradient id="paint0_radial_5024_8327" cx="0" cy="0" r="1" gradientUnits="userSpaceOnUse" gradientTransform="translate(10.6375 29.1924) scale(14.1935)">
<stop stop-color="#27273A"/>
<stop offset="1" stop-color="#16162B"/>
</radialGradient>
<radialGradient id="paint1_radial_5024_8327" cx="0" cy="0" r="1" gradientUnits="userSpaceOnUse" gradientTransform="translate(8.84572 28.4417) scale(11.9362)">
<stop stop-color="#CCD8EB"/>
<stop offset="1" stop-color="#4C6E9C"/>
</radialGradient>
<radialGradient id="paint2_radial_5024_8327" cx="0" cy="0" r="1" gradientUnits="userSpaceOnUse" gradientTransform="translate(7.98503 5.6625) scale(15.7042 15.7042)">
<stop stop-color="#F7E37E"/>
<stop offset="0.62" stop-color="#FF9D14"/>
<stop offset="0.81" stop-color="#EA7F0F"/>
<stop offset="1" stop-color="#A82200"/>
</radialGradient>
<radialGradient id="paint3_radial_5024_8327" cx="0" cy="0" r="1" gradientUnits="userSpaceOnUse" gradientTransform="translate(9.16679 0.489476) scale(25.0363 25.0363)">
<stop stop-color="#E6F0FF"/>
<stop offset="1" stop-color="#99B2D6"/>
</radialGradient>
<radialGradient id="paint4_radial_5024_8327" cx="0" cy="0" r="1" gradientUnits="userSpaceOnUse" gradientTransform="translate(12.289 13.5406) scale(13.6226 13.6226)">
<stop stop-color="#7388AB"/>
<stop offset="1" stop-color="#34527A"/>
</radialGradient>
<radialGradient id="paint5_radial_5024_8327" cx="0" cy="0" r="1" gradientUnits="userSpaceOnUse" gradientTransform="translate(7.01886 14.6826) scale(20.9258 20.9258)">
<stop stop-color="#CCD8EB"/>
<stop offset="1" stop-color="#4C6E9C"/>
</radialGradient>
<radialGradient id="paint6_radial_5024_8327" cx="0" cy="0" r="1" gradientUnits="userSpaceOnUse" gradientTransform="translate(7.80495 13.1981) scale(19.5512 19.5512)">
<stop stop-color="#95B0DE"/>
<stop offset="1" stop-color="#34527A"/>
</radialGradient>
<radialGradient id="paint7_radial_5024_8327" cx="0" cy="0" r="1" gradientUnits="userSpaceOnUse" gradientTransform="translate(10.8746 9.66761) scale(16.5606)">
<stop stop-color="#CCD8EB"/>
<stop offset="1" stop-color="#4C6E9C"/>
</radialGradient>
<radialGradient id="paint8_radial_5024_8327" cx="0" cy="0" r="1" gradientUnits="userSpaceOnUse" gradientTransform="translate(6.06593 10.0672) scale(18.8925 18.8925)">
<stop stop-color="#95B0DE"/>
<stop offset="1" stop-color="#34527A"/>
</radialGradient>
<radialGradient id="paint9_radial_5024_8327" cx="0" cy="0" r="1" gradientUnits="userSpaceOnUse" gradientTransform="translate(-8.1453 6.81307) scale(17.5047 17.5047)">
<stop stop-color="#CCD8EB"/>
<stop offset="1" stop-color="#4C6E9C"/>
</radialGradient>
<radialGradient id="paint10_radial_5024_8327" cx="0" cy="0" r="1" gradientUnits="userSpaceOnUse" gradientTransform="translate(16.2499 10.5986) scale(19.2745 19.2745)">
<stop stop-color="#95B0DE"/>
<stop offset="1" stop-color="#34527A"/>
</radialGradient>
<radialGradient id="paint11_radial_5024_8327" cx="0" cy="0" r="1" gradientUnits="userSpaceOnUse" gradientTransform="translate(12.28 7.11177) scale(17.9834 17.9834)">
<stop stop-color="#CCD8EB"/>
<stop offset="1" stop-color="#4C6E9C"/>
</radialGradient>
<radialGradient id="paint12_radial_5024_8327" cx="0" cy="0" r="1" gradientUnits="userSpaceOnUse" gradientTransform="translate(19.2624 6.2025) scale(22.0061)">
<stop stop-color="#95B0DE"/>
<stop offset="1" stop-color="#34527A"/>
</radialGradient>
<radialGradient id="paint13_radial_5024_8327" cx="0" cy="0" r="1" gradientUnits="userSpaceOnUse" gradientTransform="translate(17.5454 21.5951) scale(15.6603 15.6603)">
<stop stop-color="#E6F0FF"/>
<stop offset="1" stop-color="#99B2D6"/>
</radialGradient>
<radialGradient id="paint14_radial_5024_8327" cx="0" cy="0" r="1" gradientUnits="userSpaceOnUse" gradientTransform="translate(6.53139 6.33852) scale(19.1691 19.1691)">
<stop stop-color="#7388AB"/>
<stop offset="1" stop-color="#34527A"/>
</radialGradient>
<radialGradient id="paint15_radial_5024_8327" cx="0" cy="0" r="1" gradientUnits="userSpaceOnUse" gradientTransform="translate(10.1986 -0.437297) scale(20.8379 20.8379)">
<stop stop-color="#D4E5FF"/>
<stop offset="1"/>
</radialGradient>
<radialGradient id="paint16_radial_5024_8327" cx="0" cy="0" r="1" gradientUnits="userSpaceOnUse" gradientTransform="translate(1.49468 6.34311) scale(10.2367)">
<stop stop-color="#D4E5FF"/>
<stop offset="1"/>
</radialGradient>
<radialGradient id="paint17_radial_5024_8327" cx="0" cy="0" r="1" gradientUnits="userSpaceOnUse" gradientTransform="translate(10.7257 22.6578) scale(15.3968 15.3968)">
<stop stop-color="#D4E5FF"/>
<stop offset="1"/>
</radialGradient>
<radialGradient id="paint18_radial_5024_8327" cx="0" cy="0" r="1" gradientUnits="userSpaceOnUse" gradientTransform="translate(6.65851 3.51061) scale(8.90608)">
<stop stop-color="#A5BEE8"/>
<stop offset="1" stop-color="#46648A"/>
</radialGradient>
<radialGradient id="paint19_radial_5024_8327" cx="0" cy="0" r="1" gradientUnits="userSpaceOnUse" gradientTransform="translate(9.45594 7.28319) scale(7.58861 7.58861)">
<stop stop-color="#CEDBF0"/>
<stop offset="1" stop-color="#6D87AB"/>
</radialGradient>
<radialGradient id="paint20_radial_5024_8327" cx="0" cy="0" r="1" gradientUnits="userSpaceOnUse" gradientTransform="translate(9.53508 7.2213) scale(9.57798)">
<stop stop-color="#E6F0FF"/>
<stop offset="1" stop-color="#99B2D6"/>
</radialGradient>
<radialGradient id="paint21_radial_5024_8327" cx="0" cy="0" r="1" gradientUnits="userSpaceOnUse" gradientTransform="translate(5.49916 6.22881) scale(9.40671 9.40671)">
<stop stop-color="#A5BEE8"/>
<stop offset="1" stop-color="#46648A"/>
</radialGradient>
<radialGradient id="paint22_radial_5024_8327" cx="0" cy="0" r="1" gradientUnits="userSpaceOnUse" gradientTransform="translate(13.808 5.32895) scale(8.38787)">
<stop stop-color="#CEDBF0"/>
<stop offset="1" stop-color="#6D87AB"/>
</radialGradient>
<radialGradient id="paint23_radial_5024_8327" cx="0" cy="0" r="1" gradientUnits="userSpaceOnUse" gradientTransform="translate(7.875 2.17997) scale(11.4795 11.4795)">
<stop stop-color="#A5BEE8"/>
<stop offset="1" stop-color="#46648A"/>
</radialGradient>
<radialGradient id="paint24_radial_5024_8327" cx="0" cy="0" r="1" gradientUnits="userSpaceOnUse" gradientTransform="translate(18.0063 13.2117) scale(8.85777 8.85777)">
<stop stop-color="#CCD8EB"/>
<stop offset="1" stop-color="#4C6E9C"/>
</radialGradient>
<radialGradient id="paint25_radial_5024_8327" cx="0" cy="0" r="1" gradientUnits="userSpaceOnUse" gradientTransform="translate(16.8162 10.5811) scale(10.0567 10.0567)">
<stop stop-color="#95B0DE"/>
<stop offset="1" stop-color="#394F6E"/>
</radialGradient>
<radialGradient id="paint26_radial_5024_8327" cx="0" cy="0" r="1" gradientUnits="userSpaceOnUse" gradientTransform="translate(2.59679 8.96505) scale(10.2455 10.2455)">
<stop stop-color="#596D8F"/>
<stop offset="1" stop-color="#46648A"/>
</radialGradient>
<radialGradient id="paint27_radial_5024_8327" cx="0" cy="0" r="1" gradientUnits="userSpaceOnUse" gradientTransform="translate(9.04799 16.0706) scale(6.32384 6.32384)">
<stop stop-color="#CEDBF0"/>
<stop offset="1" stop-color="#6D87AB"/>
</radialGradient>
<radialGradient id="paint28_radial_5024_8327" cx="0" cy="0" r="1" gradientUnits="userSpaceOnUse" gradientTransform="translate(11.4366 10.2957) scale(7.9575 7.9575)">
<stop stop-color="#D4E5FF"/>
<stop offset="1"/>
</radialGradient>
<radialGradient id="paint29_radial_5024_8327" cx="0" cy="0" r="1" gradientUnits="userSpaceOnUse" gradientTransform="translate(14.7698 8.25799) scale(8.35713)">
<stop stop-color="#D4E5FF"/>
<stop offset="1"/>
</radialGradient>
<radialGradient id="paint30_radial_5024_8327" cx="0" cy="0" r="1" gradientUnits="userSpaceOnUse" gradientTransform="translate(6.14078 15.1088) scale(7.18459 7.18459)">
<stop stop-color="#D4E5FF"/>
<stop offset="1"/>
</radialGradient>
<clipPath id="clip0_5024_8327">
<rect width="19.4739" height="27.4999" fill="white" transform="translate(0.968872 0.25)"/>
</clipPath>
</defs>
</svg>
