<svg width="20" height="20" viewBox="0 0 20 20" fill="none" xmlns="http://www.w3.org/2000/svg">
<path d="M10.0001 -0.0010376C15.5238 -0.0010376 20.0016 4.47681 20.0016 10.0005C20.0016 15.5242 15.5238 20.0021 10.0001 20.0021C4.47638 20.0021 -0.00146484 15.5242 -0.00146484 10.0005C-0.00146484 4.47681 4.47638 -0.0010376 10.0001 -0.0010376ZM10.0001 1.49896C5.30481 1.49896 1.49854 5.30524 1.49854 10.0005C1.49854 14.6958 5.30481 18.5021 10.0001 18.5021C14.6954 18.5021 18.5016 14.6958 18.5016 10.0005C18.5016 5.30524 14.6954 1.49896 10.0001 1.49896ZM9.99644 8.49955C10.3761 8.4993 10.6901 8.78125 10.74 9.14729L10.7469 9.24905L10.7505 14.7506C10.7508 15.1649 10.4152 15.5009 10.001 15.5011C9.62133 15.5014 9.30735 15.2194 9.25745 14.8534L9.25053 14.7516L9.24693 9.25004C9.24666 8.83582 9.58223 8.49982 9.99644 8.49955ZM10.0005 5.00178C10.5521 5.00178 10.9992 5.4489 10.9992 6.00044C10.9992 6.55199 10.5521 6.99911 10.0005 6.99911C9.44899 6.99911 9.00187 6.55199 9.00187 6.00044C9.00187 5.4489 9.44899 5.00178 10.0005 5.00178Z" fill="#68A7F4"/>
</svg>
