<svg width="21" height="28" viewBox="0 0 21 28" fill="none" xmlns="http://www.w3.org/2000/svg">
<g clip-path="url(#clip0_5024_8624)">
<path fill-rule="evenodd" clip-rule="evenodd" d="M3.0531 16.2284H18.3577V22.9914L10.7076 27.4093L3.0531 22.9914V16.2284Z" fill="url(#paint0_radial_5024_8624)"/>
<path fill-rule="evenodd" clip-rule="evenodd" d="M10.7076 25.7891L3.0531 21.3712V22.9917L10.7076 27.4096L18.3577 22.9917V21.3712L10.7076 25.7891Z" fill="url(#paint1_radial_5024_8624)"/>
<path fill-rule="evenodd" clip-rule="evenodd" d="M10.7077 1.9209L14.8269 4.30112L18.9506 6.68135V11.4374V16.1978L14.8269 18.5781L10.7077 20.9583L6.584 18.5781L2.46033 16.1978V11.4374V6.68135L6.584 4.30112L10.7077 1.9209Z" fill="url(#paint2_radial_5024_8624)"/>
<path fill-rule="evenodd" clip-rule="evenodd" d="M10.7081 -0.090332L15.7013 2.79053L20.6945 5.67139V17.1992L15.7013 20.0801L10.7081 22.9609L5.71494 20.0801L0.721741 17.2036V5.67578L5.71494 2.79492L10.7081 -0.090332ZM10.7081 2.21084L14.7045 4.51641L18.7008 6.82198V16.053L14.7045 18.3586L10.7081 20.6642L6.71182 18.3586L2.71551 16.053V6.82637L6.71182 4.5208L10.7081 2.21524V2.21084Z" fill="#999999"/>
<path fill-rule="evenodd" clip-rule="evenodd" d="M6.21119 3.65567C7.70871 2.79053 9.20623 1.92539 10.7037 1.06026V-0.090332L5.71055 2.79053L0.721741 5.67578L1.71862 6.25108C3.21614 5.38594 4.71367 4.5208 6.21119 3.65567Z" fill="url(#paint3_radial_5024_8624)"/>
<path fill-rule="evenodd" clip-rule="evenodd" d="M10.7079 1.05981C9.21038 1.92495 7.71286 2.79009 6.21534 3.65522C4.71782 4.52036 3.2203 5.3855 1.72278 6.25063L2.71966 6.82593L6.71598 4.52036L10.7123 2.21479V1.06421L10.7079 1.05981Z" fill="url(#paint4_radial_5024_8624)"/>
<path fill-rule="evenodd" clip-rule="evenodd" d="M10.7076 1.06001C12.2051 1.92515 13.7027 2.79028 15.2002 3.65542C16.6977 4.52056 18.1952 5.38569 19.6927 6.25083L20.6896 5.67554L15.6964 2.79468L10.7076 -0.0905762V1.06001Z" fill="url(#paint5_radial_5024_8624)"/>
<path fill-rule="evenodd" clip-rule="evenodd" d="M15.2002 3.65522C13.7027 2.79009 12.2051 1.92495 10.7076 1.05981V2.2104L14.7039 4.51597L18.7002 6.82154L19.6971 6.24624C18.1996 5.38111 16.7021 4.51597 15.2046 3.65083L15.2002 3.65522Z" fill="url(#paint6_radial_5024_8624)"/>
<path fill-rule="evenodd" clip-rule="evenodd" d="M18.7002 6.82627V16.0573L19.697 16.6326V6.25098L18.7002 6.82627Z" fill="url(#paint7_radial_5024_8624)"/>
<path fill-rule="evenodd" clip-rule="evenodd" d="M19.6972 6.25083V16.6325L20.6941 17.2078V5.67554L19.6972 6.25083Z" fill="url(#paint8_radial_5024_8624)"/>
<path fill-rule="evenodd" clip-rule="evenodd" d="M1.71801 11.4373V6.24644L0.72113 5.67114V17.199L1.71801 16.6237V11.4329V11.4373Z" fill="url(#paint9_radial_5024_8624)"/>
<path fill-rule="evenodd" clip-rule="evenodd" d="M1.71814 6.25098V16.6326L2.71502 16.0573V6.82627L1.71814 6.25098Z" fill="url(#paint10_radial_5024_8624)"/>
<path fill-rule="evenodd" clip-rule="evenodd" d="M6.71134 18.3628L2.71502 16.0573L1.71814 16.6325C3.21566 17.4977 4.71318 18.3628 6.2107 19.228C7.70822 20.0931 9.20574 20.9582 10.7033 21.8234V20.6728L6.70695 18.3672L6.71134 18.3628Z" fill="url(#paint11_radial_5024_8624)"/>
<path fill-rule="evenodd" clip-rule="evenodd" d="M6.21058 19.2233C4.71306 18.3582 3.21553 17.4931 1.71801 16.6279L0.72113 17.2032L5.71433 20.0841L10.7075 22.9649V21.8144C9.21001 20.9492 7.71249 20.0841 6.21497 19.2189L6.21058 19.2233Z" fill="url(#paint12_radial_5024_8624)"/>
<path fill-rule="evenodd" clip-rule="evenodd" d="M14.7039 18.3628L10.7076 20.6684V21.819C12.2051 20.9538 13.7027 20.0887 15.2002 19.2236C16.6977 18.3584 18.1952 17.4933 19.6927 16.6282L18.6959 16.0529L14.6995 18.3584L14.7039 18.3628Z" fill="url(#paint13_radial_5024_8624)"/>
<path fill-rule="evenodd" clip-rule="evenodd" d="M15.2002 19.2232C13.7027 20.0884 12.2051 20.9535 10.7076 21.8186V22.9692L15.7008 20.0884L20.694 17.2075L19.6971 16.6322C18.1996 17.4973 16.7021 18.3625 15.2046 19.2276L15.2002 19.2232Z" fill="url(#paint14_radial_5024_8624)"/>
<path style="mix-blend-mode:screen" fill-rule="evenodd" clip-rule="evenodd" d="M5.53021 4.04636L10.6112 0.981053L10.7035 0.0412598L10.7781 0.967878L13.7117 2.79477L10.7035 1.18746L5.53021 4.04197V4.04636Z" fill="url(#paint15_radial_5024_8624)"/>
<path style="mix-blend-mode:screen" fill-rule="evenodd" clip-rule="evenodd" d="M5.37666 4.13843L1.67458 6.11463L1.06854 5.87748L1.59992 6.30347L1.71849 11.9993L1.88537 6.34738L5.37666 4.13843Z" fill="url(#paint16_radial_5024_8624)"/>
<path style="mix-blend-mode:screen" fill-rule="evenodd" clip-rule="evenodd" d="M3.96252 17.928L10.6026 22.0077L10.708 22.6972L10.8002 22.0077L14.2124 19.7944L10.708 21.6388L3.96252 17.928Z" fill="url(#paint17_radial_5024_8624)"/>
<path fill-rule="evenodd" clip-rule="evenodd" d="M10.7073 5.58325L12.4332 9.06136L16.2758 9.62787L13.5003 12.3462L14.1503 16.1757L10.7073 14.3751L7.2643 16.1757L7.90986 12.3462L5.1344 9.62787L8.97701 9.06136L10.7073 5.58325Z" fill="#B05B00"/>
<path fill-rule="evenodd" clip-rule="evenodd" d="M10.7073 11.4373L5.13446 9.62793L7.90992 12.3463L10.7073 11.4373Z" fill="url(#paint18_radial_5024_8624)"/>
<path fill-rule="evenodd" clip-rule="evenodd" d="M5.13446 9.62816L10.7073 11.4375L8.97707 9.06165L5.13446 9.62816Z" fill="url(#paint19_radial_5024_8624)"/>
<path fill-rule="evenodd" clip-rule="evenodd" d="M8.97717 9.06136L10.7074 11.4372V5.58325L8.97717 9.06136Z" fill="url(#paint20_radial_5024_8624)"/>
<path fill-rule="evenodd" clip-rule="evenodd" d="M10.7073 5.58325V11.4372L12.4332 9.06136L10.7073 5.58325Z" fill="url(#paint21_radial_5024_8624)"/>
<path fill-rule="evenodd" clip-rule="evenodd" d="M12.4332 9.06165L10.7073 11.4375L16.2758 9.62816L12.4332 9.06165Z" fill="url(#paint22_radial_5024_8624)"/>
<path fill-rule="evenodd" clip-rule="evenodd" d="M16.2758 9.62793L10.7073 11.4373L13.5004 12.3463L16.2758 9.62793Z" fill="url(#paint23_radial_5024_8624)"/>
<path fill-rule="evenodd" clip-rule="evenodd" d="M13.5004 12.3464L10.7073 11.4374L14.1503 16.1759L13.5004 12.3464Z" fill="url(#paint24_radial_5024_8624)"/>
<path fill-rule="evenodd" clip-rule="evenodd" d="M14.1503 16.1759L10.7073 11.4374V14.3753L14.1503 16.1759Z" fill="url(#paint25_radial_5024_8624)"/>
<path fill-rule="evenodd" clip-rule="evenodd" d="M10.7078 14.3753V11.4374L7.26483 16.1759L10.7078 14.3753Z" fill="url(#paint26_radial_5024_8624)"/>
<path fill-rule="evenodd" clip-rule="evenodd" d="M7.26483 16.1759L10.7078 11.4374L7.91039 12.3464L7.26483 16.1759Z" fill="url(#paint27_radial_5024_8624)"/>
<path style="mix-blend-mode:screen" fill-rule="evenodd" clip-rule="evenodd" d="M5.98651 9.90472L10.4308 11.0597C10.3254 10.8138 10.1365 10.3614 10.1497 10.2473L10.703 5.85132V11.4374L5.98651 9.90472Z" fill="url(#paint28_radial_5024_8624)"/>
<path style="mix-blend-mode:screen" fill-rule="evenodd" clip-rule="evenodd" d="M10.7074 11.4374C10.9226 11.1387 11.3046 10.8621 11.8536 10.7303L15.8104 9.77734L10.703 11.4374H10.7074Z" fill="url(#paint29_radial_5024_8624)"/>
<path style="mix-blend-mode:screen" fill-rule="evenodd" clip-rule="evenodd" d="M10.7078 11.4374C10.1589 11.7843 9.49574 12.3684 9.30251 12.7021L7.26483 16.1759L10.7078 11.4374Z" fill="url(#paint30_radial_5024_8624)"/>
</g>
<defs>
<radialGradient id="paint0_radial_5024_8624" cx="0" cy="0" r="1" gradientUnits="userSpaceOnUse" gradientTransform="translate(10.6373 29.1923) scale(14.1935)">
<stop stop-color="#FF0000"/>
<stop offset="1" stop-color="#7D0000"/>
</radialGradient>
<radialGradient id="paint1_radial_5024_8624" cx="0" cy="0" r="1" gradientUnits="userSpaceOnUse" gradientTransform="translate(8.84556 28.4416) scale(11.9362)">
<stop stop-color="#CCD8EB"/>
<stop offset="1" stop-color="#4C6E9C"/>
</radialGradient>
<radialGradient id="paint2_radial_5024_8624" cx="0" cy="0" r="1" gradientUnits="userSpaceOnUse" gradientTransform="translate(7.9849 5.6625) scale(15.7042 15.7042)">
<stop stop-color="#12CCFF"/>
<stop offset="0.7" stop-color="#0068FF"/>
<stop offset="1" stop-color="#0035A8"/>
</radialGradient>
<radialGradient id="paint3_radial_5024_8624" cx="0" cy="0" r="1" gradientUnits="userSpaceOnUse" gradientTransform="translate(9.1667 0.489354) scale(25.0363 25.0363)">
<stop stop-color="#E6F0FF"/>
<stop offset="1" stop-color="#99B2D6"/>
</radialGradient>
<radialGradient id="paint4_radial_5024_8624" cx="0" cy="0" r="1" gradientUnits="userSpaceOnUse" gradientTransform="translate(12.2889 13.5406) scale(13.6226 13.6226)">
<stop stop-color="#7388AB"/>
<stop offset="1" stop-color="#34527A"/>
</radialGradient>
<radialGradient id="paint5_radial_5024_8624" cx="0" cy="0" r="1" gradientUnits="userSpaceOnUse" gradientTransform="translate(7.0187 14.6826) scale(20.9258 20.9258)">
<stop stop-color="#CCD8EB"/>
<stop offset="1" stop-color="#4C6E9C"/>
</radialGradient>
<radialGradient id="paint6_radial_5024_8624" cx="0" cy="0" r="1" gradientUnits="userSpaceOnUse" gradientTransform="translate(7.80479 13.1981) scale(19.5512 19.5512)">
<stop stop-color="#95B0DE"/>
<stop offset="1" stop-color="#34527A"/>
</radialGradient>
<radialGradient id="paint7_radial_5024_8624" cx="0" cy="0" r="1" gradientUnits="userSpaceOnUse" gradientTransform="translate(10.8744 9.66761) scale(16.5606)">
<stop stop-color="#CCD8EB"/>
<stop offset="1" stop-color="#4C6E9C"/>
</radialGradient>
<radialGradient id="paint8_radial_5024_8624" cx="0" cy="0" r="1" gradientUnits="userSpaceOnUse" gradientTransform="translate(6.06578 10.0671) scale(18.8925 18.8925)">
<stop stop-color="#95B0DE"/>
<stop offset="1" stop-color="#34527A"/>
</radialGradient>
<radialGradient id="paint9_radial_5024_8624" cx="0" cy="0" r="1" gradientUnits="userSpaceOnUse" gradientTransform="translate(-8.14542 6.81295) scale(17.5047 17.5047)">
<stop stop-color="#CCD8EB"/>
<stop offset="1" stop-color="#4C6E9C"/>
</radialGradient>
<radialGradient id="paint10_radial_5024_8624" cx="0" cy="0" r="1" gradientUnits="userSpaceOnUse" gradientTransform="translate(16.2498 10.5986) scale(19.2745 19.2745)">
<stop stop-color="#95B0DE"/>
<stop offset="1" stop-color="#34527A"/>
</radialGradient>
<radialGradient id="paint11_radial_5024_8624" cx="0" cy="0" r="1" gradientUnits="userSpaceOnUse" gradientTransform="translate(12.2798 7.11165) scale(17.9834 17.9834)">
<stop stop-color="#CCD8EB"/>
<stop offset="1" stop-color="#4C6E9C"/>
</radialGradient>
<radialGradient id="paint12_radial_5024_8624" cx="0" cy="0" r="1" gradientUnits="userSpaceOnUse" gradientTransform="translate(19.2623 6.20237) scale(22.0061)">
<stop stop-color="#95B0DE"/>
<stop offset="1" stop-color="#34527A"/>
</radialGradient>
<radialGradient id="paint13_radial_5024_8624" cx="0" cy="0" r="1" gradientUnits="userSpaceOnUse" gradientTransform="translate(17.5453 21.595) scale(15.6603 15.6603)">
<stop stop-color="#E6F0FF"/>
<stop offset="1" stop-color="#99B2D6"/>
</radialGradient>
<radialGradient id="paint14_radial_5024_8624" cx="0" cy="0" r="1" gradientUnits="userSpaceOnUse" gradientTransform="translate(6.53124 6.3384) scale(19.1691 19.1691)">
<stop stop-color="#7388AB"/>
<stop offset="1" stop-color="#34527A"/>
</radialGradient>
<radialGradient id="paint15_radial_5024_8624" cx="0" cy="0" r="1" gradientUnits="userSpaceOnUse" gradientTransform="translate(10.1984 -0.437419) scale(20.8379 20.8379)">
<stop stop-color="#D4E5FF"/>
<stop offset="1"/>
</radialGradient>
<radialGradient id="paint16_radial_5024_8624" cx="0" cy="0" r="1" gradientUnits="userSpaceOnUse" gradientTransform="translate(1.49452 6.34299) scale(10.2367)">
<stop stop-color="#D4E5FF"/>
<stop offset="1"/>
</radialGradient>
<radialGradient id="paint17_radial_5024_8624" cx="0" cy="0" r="1" gradientUnits="userSpaceOnUse" gradientTransform="translate(10.7255 22.6577) scale(15.3968 15.3968)">
<stop stop-color="#D4E5FF"/>
<stop offset="1"/>
</radialGradient>
<radialGradient id="paint18_radial_5024_8624" cx="0" cy="0" r="1" gradientUnits="userSpaceOnUse" gradientTransform="translate(6.65833 3.51049) scale(8.90608)">
<stop stop-color="#A5BEE8"/>
<stop offset="1" stop-color="#46648A"/>
</radialGradient>
<radialGradient id="paint19_radial_5024_8624" cx="0" cy="0" r="1" gradientUnits="userSpaceOnUse" gradientTransform="translate(9.45575 7.28307) scale(7.58861 7.58861)">
<stop stop-color="#CEDBF0"/>
<stop offset="1" stop-color="#6D87AB"/>
</radialGradient>
<radialGradient id="paint20_radial_5024_8624" cx="0" cy="0" r="1" gradientUnits="userSpaceOnUse" gradientTransform="translate(9.5349 7.2213) scale(9.57798)">
<stop stop-color="#E6F0FF"/>
<stop offset="1" stop-color="#99B2D6"/>
</radialGradient>
<radialGradient id="paint21_radial_5024_8624" cx="0" cy="0" r="1" gradientUnits="userSpaceOnUse" gradientTransform="translate(5.49895 6.22881) scale(9.40671 9.40671)">
<stop stop-color="#A5BEE8"/>
<stop offset="1" stop-color="#46648A"/>
</radialGradient>
<radialGradient id="paint22_radial_5024_8624" cx="0" cy="0" r="1" gradientUnits="userSpaceOnUse" gradientTransform="translate(13.8078 5.32882) scale(8.38787)">
<stop stop-color="#CEDBF0"/>
<stop offset="1" stop-color="#6D87AB"/>
</radialGradient>
<radialGradient id="paint23_radial_5024_8624" cx="0" cy="0" r="1" gradientUnits="userSpaceOnUse" gradientTransform="translate(7.87478 2.17985) scale(11.4795 11.4795)">
<stop stop-color="#A5BEE8"/>
<stop offset="1" stop-color="#46648A"/>
</radialGradient>
<radialGradient id="paint24_radial_5024_8624" cx="0" cy="0" r="1" gradientUnits="userSpaceOnUse" gradientTransform="translate(18.0061 13.2116) scale(8.85777 8.85777)">
<stop stop-color="#CCD8EB"/>
<stop offset="1" stop-color="#4C6E9C"/>
</radialGradient>
<radialGradient id="paint25_radial_5024_8624" cx="0" cy="0" r="1" gradientUnits="userSpaceOnUse" gradientTransform="translate(16.816 10.581) scale(10.0567 10.0567)">
<stop stop-color="#95B0DE"/>
<stop offset="1" stop-color="#394F6E"/>
</radialGradient>
<radialGradient id="paint26_radial_5024_8624" cx="0" cy="0" r="1" gradientUnits="userSpaceOnUse" gradientTransform="translate(2.59661 8.96493) scale(10.2455 10.2455)">
<stop stop-color="#596D8F"/>
<stop offset="1" stop-color="#46648A"/>
</radialGradient>
<radialGradient id="paint27_radial_5024_8624" cx="0" cy="0" r="1" gradientUnits="userSpaceOnUse" gradientTransform="translate(9.0478 16.0705) scale(6.32384 6.32384)">
<stop stop-color="#CEDBF0"/>
<stop offset="1" stop-color="#6D87AB"/>
</radialGradient>
<radialGradient id="paint28_radial_5024_8624" cx="0" cy="0" r="1" gradientUnits="userSpaceOnUse" gradientTransform="translate(11.4364 10.2956) scale(7.9575 7.9575)">
<stop stop-color="#D4E5FF"/>
<stop offset="1"/>
</radialGradient>
<radialGradient id="paint29_radial_5024_8624" cx="0" cy="0" r="1" gradientUnits="userSpaceOnUse" gradientTransform="translate(14.7696 8.25787) scale(8.35713)">
<stop stop-color="#D4E5FF"/>
<stop offset="1"/>
</radialGradient>
<radialGradient id="paint30_radial_5024_8624" cx="0" cy="0" r="1" gradientUnits="userSpaceOnUse" gradientTransform="translate(6.14059 15.1087) scale(7.18459 7.18459)">
<stop stop-color="#D4E5FF"/>
<stop offset="1"/>
</radialGradient>
<clipPath id="clip0_5024_8624">
<rect width="19.4739" height="27.4999" fill="white" transform="translate(0.968811 0.25)"/>
</clipPath>
</defs>
</svg>
