<svg width="31" height="30" viewBox="0 0 31 30" fill="none" xmlns="http://www.w3.org/2000/svg">
<rect x="0.35376" width="30" height="30" rx="15" fill="#F6F6F6"/>
<path d="M19.19 16.3333C20.0181 16.3333 20.6893 17.0045 20.6893 17.8325V18.2161C20.6893 18.8123 20.4762 19.3889 20.0885 19.8418C19.0423 21.0641 17.4508 21.6674 15.3539 21.6674C13.2567 21.6674 11.666 21.0639 10.6218 19.8411C10.2353 19.3885 10.0229 18.8128 10.0229 18.2177V17.8325C10.0229 17.0045 10.6942 16.3333 11.5222 16.3333H19.19ZM19.19 17.3333H11.5222C11.2465 17.3333 11.0229 17.5568 11.0229 17.8325V18.2177C11.0229 18.5748 11.1504 18.9202 11.3823 19.1917C12.2178 20.1702 13.5284 20.6674 15.3539 20.6674C17.1795 20.6674 18.4912 20.1702 19.3288 19.1915C19.5615 18.9198 19.6893 18.5739 19.6893 18.2161V17.8325C19.6893 17.5568 19.4658 17.3333 19.19 17.3333ZM15.3539 8.33642C17.1949 8.33642 18.6873 9.8288 18.6873 11.6698C18.6873 13.5107 17.1949 15.0031 15.3539 15.0031C13.513 15.0031 12.0206 13.5107 12.0206 11.6698C12.0206 9.8288 13.513 8.33642 15.3539 8.33642ZM15.3539 9.33642C14.0653 9.33642 13.0206 10.3811 13.0206 11.6698C13.0206 12.9584 14.0653 14.0031 15.3539 14.0031C16.6426 14.0031 17.6873 12.9584 17.6873 11.6698C17.6873 10.3811 16.6426 9.33642 15.3539 9.33642Z" fill="#8A8A8A"/>
</svg>
