<svg width="21" height="22" viewBox="0 0 21 22" fill="none" xmlns="http://www.w3.org/2000/svg">
<path d="M10.5 1.25C10.5 0.835786 10.1642 0.5 9.75 0.5C9.33579 0.5 9 0.835786 9 1.25V1.5H3.25C1.45507 1.5 0 2.95507 0 4.75V14.25C0 16.0449 1.45507 17.5 3.25 17.5H5.64847L4.17333 19.2699C3.90813 19.5881 3.95109 20.061 4.26928 20.3262C4.58747 20.5914 5.0604 20.5485 5.32559 20.2303L7.60114 17.5H11.1089C11.2868 16.8851 11.672 16.3583 12.1837 16H3.25C2.2835 16 1.5 15.2165 1.5 14.25V4.75C1.5 3.7835 2.2835 3 3.25 3H16.75C17.7165 3 18.5 3.7835 18.5 4.75V10.1273C19.4067 10.7598 20 11.8106 20 13V4.75C20 2.95507 18.5449 1.5 16.75 1.5H10.5V1.25ZM4 6.25C4 5.83579 4.33579 5.5 4.75 5.5H8.75C9.16421 5.5 9.5 5.83579 9.5 6.25C9.5 6.66421 9.16421 7 8.75 7H4.75C4.33579 7 4 6.66421 4 6.25ZM4.75 8.5C4.33579 8.5 4 8.83579 4 9.25C4 9.66421 4.33579 10 4.75 10H11.25C11.6642 10 12 9.66421 12 9.25C12 8.83579 11.6642 8.5 11.25 8.5H4.75ZM4 12.25C4 11.8358 4.33579 11.5 4.75 11.5H10.25C10.6642 11.5 11 11.8358 11 12.25C11 12.6642 10.6642 13 10.25 13H4.75C4.33579 13 4 12.6642 4 12.25ZM19 13C19 14.3807 17.8807 15.5 16.5 15.5C15.1193 15.5 14 14.3807 14 13C14 11.6193 15.1193 10.5 16.5 10.5C17.8807 10.5 19 11.6193 19 13ZM21 18.375C21 19.9315 19.7143 21.5 16.5 21.5C13.2857 21.5 12 19.9374 12 18.375V18.272C12 17.2929 12.7937 16.5 13.7727 16.5H19.2273C20.2063 16.5 21 17.293 21 18.272V18.375Z" fill="#68A7F4"/>
</svg>
