<?xml version="1.0" encoding="UTF-8"?><svg id="Layer_1" xmlns="http://www.w3.org/2000/svg" viewBox="0 0 656.14 786"><defs><style>.cls-1{fill:#ea1832;}.cls-2{fill:#fff;}</style></defs><polygon class="cls-1" points="140.3 281.13 179.42 286.89 150.76 365.36 116.74 338.33 140.3 281.13"/><polygon class="cls-1" points="112.6 256.94 124.47 273.57 100.85 327 70.59 301.54 112.6 256.94"/><polygon class="cls-1" points="44.28 214.46 85.87 218.61 101.43 241.96 61.93 280.27 44.28 214.46"/><polygon class="cls-1" points="51.81 195.54 96.02 141.96 112.02 155.71 86.29 199.86 51.81 195.54"/><polygon class="cls-1" points="150.63 88.95 121.55 138.3 108.3 126.56 140.72 86.27 139.83 69.47 150.63 88.95"/><polygon class="cls-1" points="515.06 281.13 475.92 286.89 504.59 365.36 538.62 338.33 515.06 281.13"/><polygon class="cls-1" points="542.75 256.94 530.89 273.57 554.51 327 584.77 301.54 542.75 256.94"/><polygon class="cls-1" points="611.08 214.46 569.48 218.61 553.93 241.96 593.42 280.27 611.08 214.46"/><polygon class="cls-1" points="603.55 195.54 559.33 141.96 543.34 155.71 569.06 199.86 603.55 195.54"/><polygon class="cls-1" points="504.72 88.95 533.82 138.3 547.05 126.56 514.63 86.27 515.54 69.47 504.72 88.95"/><path class="cls-2" d="m368.27,786h-79.78l-81.25-39.41,10.74-94.25,27.3-38.22-16.12-137.6-78-83.65,39.64-110.54h275.14c13.21,36.85,26.42,73.69,39.63,110.54l-77.99,83.65-16.12,137.6,27.3,38.22,10.74,94.25-81.24,39.41Zm-76.71-13.33h73.65l69.96-33.96-9.25-81.42-28.3-39.61,17.22-147.05,75.43-80.9-33.71-94.05H200.2l-33.73,94.05,75.43,80.9,17.24,147.05-28.3,39.61-9.27,81.42,69.98,33.96Z"/><path class="cls-2" d="m224.41,661.48c-3.68,0-6.67-3-6.67-6.67v-57.21l-51.26-189.42c-.96-3.55,1.15-7.22,4.71-8.19,3.55-.97,7.22,1.15,8.18,4.7l51.48,190.28c.16.57.24,1.16.24,1.75v58.1c0,3.68-2.99,6.67-6.67,6.67Z"/><path class="cls-2" d="m432.34,661.48c-3.68,0-6.65-2.96-6.68-6.62l-.46-58.11c0-.61.09-1.24.26-1.82l52.71-191.11c.99-3.55,4.63-5.64,8.2-4.66,3.56.98,5.65,4.65,4.66,8.21l-52.46,190.22.46,57.17c.03,3.69-2.95,6.7-6.64,6.72h-.04Z"/><polygon class="cls-2" points="444.31 289 440.97 289 440.97 268.49 326.53 241.01 214.3 269.25 214.3 289 210.96 289 210.96 266.65 326.51 237.57 326.92 237.67 444.31 265.86 444.31 289"/><path class="cls-2" d="m158.82,397.97c-1.47,0-2.93-.48-4.16-1.46l-55.65-44.51c-2.87-2.31-3.34-6.5-1.04-9.38,2.31-2.86,6.5-3.35,9.38-1.04l55.63,44.51c2.88,2.3,3.35,6.5,1.04,9.38-1.31,1.65-3.25,2.5-5.2,2.5Z"/><path class="cls-2" d="m497.94,397.97c-1.94,0-3.89-.85-5.21-2.5-2.29-2.88-1.85-7.07,1.03-9.38l56.43-45.27c2.86-2.3,7.04-1.85,9.36,1.02,2.32,2.88,1.86,7.08-1.01,9.39l-56.41,45.26c-1.23,1-2.7,1.48-4.18,1.48Z"/><polygon class="cls-2" points="569.3 460.31 520.97 460.31 472.93 448.89 476.02 435.91 522.53 446.98 564.58 446.98 629.47 394.43 638.7 322.82 607.52 347.6 531.24 355.83 597.97 301.61 623.03 204.32 521.26 81.77 521.26 45.95 496.35 85.2 566.36 210.52 522.49 273.28 451.23 281.83 451.23 262.03 327.39 231.42 204.93 262.02 204.93 281.83 133.68 273.28 89.79 210.52 159.81 85.2 134.9 45.95 134.9 81.77 33.11 204.32 58.19 301.61 124.9 355.83 48.61 347.6 17.45 322.82 26.68 394.43 91.57 446.98 133.62 446.98 180.12 435.91 183.21 448.89 135.19 460.31 86.84 460.31 14.12 401.43 0 291.88 53.89 334.74 81.46 337.74 46.37 309.2 18.49 201.04 121.55 76.95 121.55 0 175.33 84.78 105.51 209.73 141.19 260.74 191.58 266.79 191.58 251.59 327.37 217.67 464.57 251.58 464.57 266.79 514.96 260.74 550.64 209.73 480.83 84.78 534.6 0 534.6 76.95 637.67 201.04 609.78 309.2 574.69 337.74 602.26 334.74 656.14 291.88 642.03 401.43 569.3 460.31"/><path class="cls-2" d="m182.52,436.85c-.36,0-.73-.12-1.05-.37l-114.68-92.99c-.72-.57-.83-1.63-.25-2.34.58-.72,1.63-.82,2.35-.25l114.67,92.99c.72.57.84,1.63.26,2.34-.33.42-.81.62-1.3.62Z"/><path class="cls-2" d="m117.34,455.31c-.36,0-.74-.12-1.05-.37l-100.18-80.96c-.72-.58-.82-1.64-.24-2.35.57-.71,1.62-.83,2.34-.24l100.19,80.97c.72.58.83,1.62.25,2.35-.34.4-.82.61-1.3.61Z"/><path class="cls-2" d="m473.64,436.85c-.49,0-.97-.21-1.32-.62-.57-.71-.46-1.77.26-2.34l114.68-92.99c.7-.57,1.78-.48,2.35.25.57.71.46,1.77-.26,2.34l-114.68,92.99c-.3.25-.67.37-1.03.37Z"/><path class="cls-2" d="m538.81,455.31c-.49,0-.96-.21-1.3-.61-.57-.72-.46-1.77.24-2.35l100.19-80.97c.72-.59,1.77-.47,2.35.24.57.71.47,1.77-.26,2.35l-100.18,80.96c-.32.25-.69.37-1.04.37Z"/><polygon class="cls-2" points="274.27 680.38 283.11 680.38 289.98 724.64 264.93 718.54 274.27 680.38"/><polygon class="cls-2" points="384.71 680.38 375.88 680.38 369.01 724.64 394.06 718.54 384.71 680.38"/></svg>