<svg width="20" height="20" viewBox="0 0 20 20" fill="none" xmlns="http://www.w3.org/2000/svg">
<path d="M14.4899 2.00044C14.3657 0.87524 13.4119 0 12.2536 0H5.25056C4.09227 0 3.13841 0.87524 3.01424 2.00044L1.74609 2C0.779595 2 -0.00390625 2.7835 -0.00390625 3.75V6.75C-0.00390625 8.54493 1.45117 10 3.24609 10L3.27235 10.0007C3.93987 12.09 5.76915 13.6601 8.00044 13.9513L8.00009 15.5H6.25056L6.06614 15.5051C4.35702 15.6008 3.00056 17.017 3.00056 18.75V19.25L3.00741 19.3518C3.05707 19.7178 3.37086 20 3.75056 20H10.4998C10.186 19.5822 10 19.0628 10 18.5H4.51828L4.54591 18.3525C4.72592 17.5775 5.4208 17 6.25056 17H10V15.5H9.50009L9.50071 13.9517C9.66955 13.9298 9.83609 13.9005 10 13.8642V13.5C10 13.0147 10.1383 12.5616 10.3776 12.1782C9.87685 12.3856 9.32783 12.5 8.75207 12.5C6.40403 12.5 4.50056 10.5965 4.50056 8.24849V2.25C4.50056 1.83579 4.83635 1.5 5.25056 1.5H12.2536C12.6678 1.5 13.0036 1.83579 13.0036 2.25V8.24849C13.0036 8.35265 12.9998 8.45594 12.9925 8.55822C13.4044 8.13526 13.9224 7.81615 14.5036 7.64388V3.5H15.7576L15.815 3.5066C15.9254 3.53251 16.0076 3.63165 16.0076 3.75V6.75L16.0009 6.90415C15.982 7.1218 15.9231 7.32804 15.8318 7.51552C16.3518 7.56442 16.8388 7.7271 17.2675 7.97842C17.4223 7.59943 17.5076 7.18468 17.5076 6.75V3.75L17.5018 3.60647C17.4288 2.70711 16.6758 2 15.7576 2L14.4899 2.00044ZM1.74609 3.5H3.00056V8.48291C2.15031 8.36353 1.49609 7.63316 1.49609 6.75V3.75C1.49609 3.61193 1.60802 3.5 1.74609 3.5ZM15.5 8.5C14.1193 8.5 13 9.61929 13 11V12H12.5C11.6716 12 11 12.6716 11 13.5V18.5C11 19.3284 11.6716 20 12.5 20H18.5C19.3284 20 20 19.3284 20 18.5V13.5C20 12.6716 19.3284 12 18.5 12H18V11C18 9.61929 16.8807 8.5 15.5 8.5ZM15.5 10C16.0523 10 16.5 10.4477 16.5 11V12H14.5V11C14.5 10.4477 14.9477 10 15.5 10ZM15.5 17C14.9477 17 14.5 16.5523 14.5 16C14.5 15.4477 14.9477 15 15.5 15C16.0523 15 16.5 15.4477 16.5 16C16.5 16.5523 16.0523 17 15.5 17Z" fill="#68A7F4"/>
</svg>
