<svg width="15" height="32" viewBox="0 0 15 32" fill="none" xmlns="http://www.w3.org/2000/svg">
<path d="M10.6247 27.5H4.37468C2.82137 27.5 1.56218 28.7592 1.56218 30.3125V31.0625C1.56218 31.5802 1.98193 32 2.49968 32H12.4997C13.0174 32 13.4372 31.5802 13.4372 31.0625V30.3125C13.4372 28.7592 12.178 27.5 10.6247 27.5Z" fill="#F9CF58"/>
<path d="M3.27831 25.7558C3.63024 25.6711 3.99706 25.625 4.37468 25.625H5.27249C4.37756 23.6556 2.66406 19.1732 2.42249 13.2969C1.68774 12.7416 1.04643 12.0691 0.526431 11.3074C0.456681 15.5004 1.13612 19.0677 1.83049 21.578C2.31143 23.3168 2.84224 24.7305 3.27831 25.7558Z" fill="#F9CF58"/>
<path d="M12.5746 13.2987C12.4477 16.4005 11.9184 19.0507 11.3791 21.0154C10.8158 23.067 10.1719 24.6514 9.72799 25.625H10.6247C11.0023 25.625 11.3691 25.6711 11.7211 25.7558C12.1571 24.7304 12.6879 23.3168 13.1689 21.5781C13.8632 19.0678 14.5427 15.5005 14.4729 11.3074C13.9524 12.0699 13.3103 12.7431 12.5746 13.2987Z" fill="#F9CF58"/>
<path d="M6.56218 14.9476V25.625H8.43718V14.9476C8.12924 14.9818 7.81656 15 7.49968 15C7.18281 15 6.87012 14.9818 6.56218 14.9476Z" fill="#F9CF58"/>
<path d="M12.553 10.7448C13.4951 9.6085 14.0622 8.1505 14.0622 6.5625C14.0622 2.94394 11.1182 0 7.49968 0C5.91168 0 4.45368 0.567062 3.31737 1.50919C5.59199 1.95706 7.68374 3.06369 9.34112 4.72106C10.9984 6.37844 12.1051 8.47019 12.553 10.7448Z" fill="#F9CF58"/>
<path d="M7.49968 13.125C8.72937 13.125 9.88093 12.7847 10.8657 12.1938C10.6677 9.86525 9.66699 7.69863 8.01524 6.04688C6.36349 4.39512 4.19687 3.39437 1.86831 3.19637C1.27743 4.18125 0.937181 5.33281 0.937181 6.5625C0.937181 10.1811 3.88112 13.125 7.49968 13.125Z" fill="#F9CF58"/>
</svg>
