<svg width="18" height="20" viewBox="0 0 18 20" fill="none" xmlns="http://www.w3.org/2000/svg">
<path d="M12.2536 0C13.4119 0 14.3657 0.87524 14.4899 2.00044L15.7576 2C16.6758 2 17.4288 2.70711 17.5018 3.60647L17.5076 3.75V6.75C17.5076 8.48303 16.1512 9.89925 14.4421 9.99485L14.2318 10.0007C13.564 12.0909 11.7334 13.6615 9.50071 13.9517L9.50009 15.5H11.2536C12.9866 15.5 14.4028 16.8565 14.4984 18.5656L14.5036 18.75V19.25C14.5036 19.6297 14.2214 19.9435 13.8554 19.9932L13.7536 20H3.75056C3.37086 20 3.05707 19.7178 3.00741 19.3518L3.00056 19.25V18.75C3.00056 17.017 4.35702 15.6008 6.06614 15.5051L6.25056 15.5H8.00009L8.00044 13.9513C5.76915 13.6601 3.93987 12.09 3.27235 10.0007L3.24609 10C1.45117 10 -0.00390625 8.54493 -0.00390625 6.75V3.75C-0.00390625 2.7835 0.779595 2 1.74609 2L3.01424 2.00044C3.13841 0.87524 4.09227 0 5.25056 0H12.2536ZM11.2536 17H6.25056C5.4208 17 4.72592 17.5775 4.54591 18.3525L4.51828 18.5H12.9859C12.8717 17.7018 12.2189 17.0774 11.4075 17.0067L11.2536 17ZM12.2536 1.5H5.25056C4.83635 1.5 4.50056 1.83579 4.50056 2.25V8.24849C4.50056 10.5965 6.40403 12.5 8.75207 12.5C11.1001 12.5 13.0036 10.5965 13.0036 8.24849V2.25C13.0036 1.83579 12.6678 1.5 12.2536 1.5ZM15.7576 3.5H14.5036V8.48285C15.3036 8.37033 15.93 7.71683 16.0009 6.90415L16.0076 6.75V3.75C16.0076 3.63165 15.9254 3.53251 15.815 3.5066L15.7576 3.5ZM3.00056 3.5H1.74609C1.60802 3.5 1.49609 3.61193 1.49609 3.75V6.75C1.49609 7.63316 2.15031 8.36353 3.00056 8.48291V3.5Z" fill="#68A7F4"/>
</svg>
