<svg width="36" height="36" viewBox="0 0 36 36" fill="none" xmlns="http://www.w3.org/2000/svg">
<rect width="36" height="36" rx="18" fill="white"/>
<path d="M19.5 22C19.9142 22 20.25 22.3358 20.25 22.75C20.25 23.1642 19.9142 23.5 19.5 23.5H16.5C16.0858 23.5 15.75 23.1642 15.75 22.75C15.75 22.3358 16.0858 22 16.5 22H19.5ZM22.5 17C22.9142 17 23.25 17.3358 23.25 17.75C23.25 18.1642 22.9142 18.5 22.5 18.5H13.5C13.0858 18.5 12.75 18.1642 12.75 17.75C12.75 17.3358 13.0858 17 13.5 17H22.5ZM25.5 12C25.9142 12 26.25 12.3358 26.25 12.75C26.25 13.1642 25.9142 13.5 25.5 13.5H10.5C10.0858 13.5 9.75 13.1642 9.75 12.75C9.75 12.3358 10.0858 12 10.5 12H25.5Z" fill="#8A8A8A"/>
</svg>
