<svg width="15" height="12" viewBox="0 0 15 12" fill="none" xmlns="http://www.w3.org/2000/svg">
<path d="M8.25551 0.80989C7.94601 0.224582 7.05177 0.224586 6.74227 0.80989L5.26855 3.59689L1.97322 4.04381C1.28116 4.13767 1.00482 4.93145 1.5056 5.38704L3.89013 7.55642L3.32722 10.6196C3.209 11.263 3.93246 11.7535 4.55146 11.4498L7.49889 10.0035L10.4463 11.4498C11.0653 11.7535 11.7888 11.2629 11.6706 10.6196L11.1077 7.55643L13.4922 5.38704C13.993 4.93145 13.7166 4.13767 13.0246 4.04381L9.72923 3.59689L8.25551 0.80989ZM0.727613 1.2059C0.56589 1.39458 0.598665 1.66989 0.800819 1.82083L2.36332 2.9875C2.56547 3.13844 2.86045 3.10785 3.02218 2.91917C3.1839 2.7305 3.15112 2.45518 2.94897 2.30424L1.38647 1.13757C1.18432 0.986631 0.889336 1.01722 0.727613 1.2059ZM14.2722 9.62751C14.4339 9.43883 14.4011 9.16351 14.199 9.01257L12.6365 7.84591C12.4343 7.69496 12.1393 7.72555 11.9776 7.91423C11.8159 8.10291 11.8487 8.37822 12.0508 8.52916L13.6133 9.69583C13.8155 9.84677 14.1105 9.81618 14.2722 9.62751ZM0.800819 9.01257C0.598665 9.16352 0.56589 9.43883 0.727613 9.62751C0.889336 9.81618 1.18432 9.84677 1.38647 9.69583L2.94897 8.52917C3.15112 8.37823 3.1839 8.10291 3.02218 7.91423C2.86045 7.72556 2.56547 7.69496 2.36332 7.84591L0.800819 9.01257ZM14.2722 1.2059C14.4339 1.39458 14.4011 1.66989 14.199 1.82083L12.6365 2.9875C12.4343 3.13844 12.1393 3.10785 11.9776 2.91917C11.8159 2.7305 11.8487 2.45518 12.0508 2.30424L13.6133 1.13757C13.8155 0.986631 14.1105 1.01722 14.2722 1.2059Z" fill="white"/>
</svg>
