<svg width="19" height="19" viewBox="0 0 19 19" fill="none" xmlns="http://www.w3.org/2000/svg">
<path d="M8.5 4.5C8.5 2.29086 6.70914 0.5 4.5 0.5C2.29086 0.5 0.5 2.29086 0.5 4.5C0.5 6.70914 2.29086 8.5 4.5 8.5C6.70914 8.5 8.5 6.70914 8.5 4.5ZM7 4.5C7 5.88071 5.88071 7 4.5 7C3.11929 7 2 5.88071 2 4.5C2 3.11929 3.11929 2 4.5 2C5.88071 2 7 3.11929 7 4.5ZM18.5 4.5C18.5 2.29086 16.7091 0.5 14.5 0.5C12.2909 0.5 10.5 2.29086 10.5 4.5C10.5 6.70914 12.2909 8.5 14.5 8.5C16.7091 8.5 18.5 6.70914 18.5 4.5ZM17 4.5C17 5.88071 15.8807 7 14.5 7C13.1193 7 12 5.88071 12 4.5C12 3.11929 13.1193 2 14.5 2C15.8807 2 17 3.11929 17 4.5ZM4.5 18.5C2.29086 18.5 0.5 16.7091 0.5 14.5C0.5 12.2909 2.29086 10.5 4.5 10.5C6.70914 10.5 8.5 12.2909 8.5 14.5C8.5 16.7091 6.70914 18.5 4.5 18.5ZM4.5 17C5.88071 17 7 15.8807 7 14.5C7 13.1193 5.88071 12 4.5 12C3.11929 12 2 13.1193 2 14.5C2 15.8807 3.11929 17 4.5 17ZM18.5 14.5C18.5 12.2909 16.7091 10.5 14.5 10.5C12.2909 10.5 10.5 12.2909 10.5 14.5C10.5 16.7091 12.2909 18.5 14.5 18.5C16.7091 18.5 18.5 16.7091 18.5 14.5ZM17 14.5C17 15.8807 15.8807 17 14.5 17C13.1193 17 12 15.8807 12 14.5C12 13.1193 13.1193 12 14.5 12C15.8807 12 17 13.1193 17 14.5Z" fill="white"/>
</svg>
